<svg width="281" height="283" viewBox="0 0 281 283" fill="none" xmlns="http://www.w3.org/2000/svg">
<path d="M278.563 97.7497L233.648 83.9799C232.654 83.6753 231.612 83.5642 230.576 83.6524L2.93881 103.054C-0.306875 103.331 -1.12258 107.715 1.8058 109.144L9.09746 112.701H8.90304V283.007H15.7739V115.959L38.6265 127.109C40.3751 127.962 42.3264 128.31 44.2615 128.114L46.693 127.868V283.007H53.5638V127.173L229.63 109.362V283.007H236.501V108.667L265.703 105.713V283.007H272.574V105.018L277.901 104.479C281.641 104.101 282.157 98.8516 278.563 97.7497Z" fill="#3F3D56"/>
<path d="M69.0225 102.38C73.3168 102.38 136.873 94.6387 136.873 94.6387L146.32 107.541L80.1876 120.443L69.0225 102.38Z" fill="white"/>
<path d="M138.777 276.391L127.735 276.371L122.556 233.708L138.853 233.737L138.777 276.391Z" fill="#A0616A"/>
<path d="M100.947 276.075C100.602 276.654 100.417 278.526 100.416 279.2C100.412 281.273 102.087 282.956 104.157 282.96L138.353 283.019C139.765 283.021 140.912 281.877 140.914 280.463L140.916 279.037C140.916 279.037 142.615 274.754 139.142 269.467C139.142 269.467 134.806 273.595 128.349 267.106L126.448 263.643L112.624 273.731L104.969 274.661C103.294 274.865 101.81 274.624 100.947 276.075Z" fill="#2F2E41"/>
<path d="M198.04 256.555L189.328 263.135L159.836 232.615L172.694 222.902L198.04 256.555Z" fill="#A0616A"/>
<path d="M168.045 278.906C168.118 279.569 169.087 281.153 169.488 281.685C170.72 283.321 173.042 283.646 174.675 282.413L201.653 262.031C202.767 261.189 202.989 259.603 202.149 258.487L201.302 257.362C201.302 257.362 200.089 252.973 194.203 250.882C194.203 250.882 193.246 256.725 184.293 255.469L180.732 253.876L175.849 270.084L170.372 275.389C169.174 276.55 167.861 277.247 168.045 278.906Z" fill="#2F2E41"/>
<path d="M174.963 36.062C174.963 46.2596 166.709 54.5263 156.526 54.5263C146.343 54.5263 138.089 46.2596 138.089 36.062C138.089 25.8644 146.343 17.5977 156.526 17.5977C166.709 17.5977 174.963 25.8644 174.963 36.062Z" fill="#A0616A"/>
<path d="M173.226 142.525C173.226 142.525 105.342 138.676 101.5 146.373C97.6575 154.069 122.273 259.784 122.273 259.784L144.234 255.175L133.521 181.006C133.521 181.006 190.168 196.03 197.853 178.072C205.538 160.114 203.325 153.428 203.325 153.428L173.226 142.525Z" fill="#2F2E41"/>
<path d="M190.618 129.605C190.618 129.605 124.136 143.878 122.464 152.318C120.791 160.758 172.454 256.187 172.454 256.187L192.415 245.924L162.492 177.235C162.492 177.235 221.09 176.717 223.757 157.363C226.425 138.009 222.525 132.146 222.525 132.146L190.618 129.605Z" fill="#2F2E41"/>
<path d="M198.201 57.2246H166.262L144.407 93.1405C144.407 93.1405 139.284 116.35 144.407 118.855C149.53 121.36 149.53 148.297 149.53 148.297L203.325 153.428C203.325 153.428 211.01 72.6171 208.448 64.9209C205.886 57.2246 198.201 57.2246 198.201 57.2246Z" fill="#FF704A"/>
<path d="M147.611 80.9541L144.409 118.855L108.393 103.547L99.7968 99.2171C98.1132 97.0185 95.9284 95.2557 93.425 94.0761C87.1998 91.0377 80.5909 91.7903 78.6607 95.7564C76.7304 99.7225 80.2105 105.4 86.4339 108.436C88.9048 109.685 91.6384 110.322 94.4058 110.295L119.556 124.601L119.586 124.545L119.697 124.744L159.138 141.241L168.213 91.4869L147.611 80.9541Z" fill="#A0616A"/>
<path d="M143.767 38.6238C143.767 38.6238 124.554 41.1892 132.239 24.514C132.239 24.514 131.068 15.4744 136.777 14.8634C142.486 14.2523 150.171 3.99065 150.171 3.99065C150.171 3.99065 167.79 -4.98831 176.912 3.99065C186.034 12.9696 212.931 65.5607 212.931 65.5607L195 84.8013C195 84.8013 184.219 56.4201 171.678 59.7077C159.137 62.9952 147.609 72.7973 147.609 72.7973C147.609 72.7973 134.882 66.4185 140.605 60.8588C146.328 55.299 143.767 38.6238 143.767 38.6238Z" fill="#2F2E41"/>
<path d="M169.383 66.844C169.383 66.844 160.417 55.2996 154.013 64.2786C147.609 73.2575 142.485 84.8019 142.485 84.8019L168.102 93.7809L169.383 66.844Z" fill="#FF704A"/>
<path d="M266.646 280.454L236.884 185.719L236.888 185.719H236.957L236.837 185.564L236.834 185.56L234.714 178.812L234.715 178.812C237.945 176.025 240.143 172.042 240.581 167.458L226.977 92.5238C227.913 82.6838 220.381 74.0826 210.513 73.7299L179.817 73.6525C171.091 73.3429 163.533 79.6562 162.262 88.3091L161.583 92.9022L152.179 156.973C151.835 159.278 151.973 161.549 152.514 163.673L145.746 164.559L143.693 164.835L135.577 165.893L135.551 165.901L134.538 166.03H133.438V193.554H133.507V281.528C133.507 282.096 133.971 282.56 134.538 282.56C135.113 282.56 135.577 282.096 135.577 281.528V193.554H147.618L159.634 281.425C159.711 281.941 160.149 282.319 160.664 282.319C160.707 282.319 160.759 282.319 160.802 282.311C161.369 282.233 161.764 281.709 161.686 281.141L149.714 193.554H207.49C213.226 193.554 218.542 191.731 222.87 188.609L245.778 281.264C245.897 281.733 246.318 282.044 246.78 282.044C246.864 282.044 246.95 282.034 247.035 282.012C247.589 281.871 247.924 281.307 247.783 280.753L224.654 187.202C224.962 186.946 225.269 186.672 225.56 186.389L234.756 185.848L264.672 281.076C264.811 281.519 265.219 281.802 265.659 281.802C265.762 281.802 265.866 281.786 265.969 281.754C266.515 281.582 266.817 281 266.646 280.454ZM232.749 180.283C232.826 180.239 232.895 180.188 232.963 180.145L233.185 180.848L232.749 180.283Z" fill="#E6E6E6"/>
</svg>
