<svg width="325" height="247" viewBox="0 0 325 247" fill="none" xmlns="http://www.w3.org/2000/svg">
<g clip-path="url(#clip0_170_5997)">
<path d="M197.069 74.431C197.474 74.4495 197.874 74.3435 198.216 74.1274C198.558 73.9113 198.825 73.5954 198.981 73.2226C199.137 72.8498 199.175 72.4381 199.089 72.0433C199.003 71.6485 198.797 71.2896 198.5 71.0153C198.45 70.8178 198.414 70.676 198.365 70.4785C198.383 70.4355 198.4 70.3925 198.418 70.3496C200.236 66.0235 206.396 66.0533 208.198 70.3859C209.797 74.2313 211.833 78.0832 212.335 82.149C212.556 83.9462 212.462 85.7681 212.059 87.5335C215.816 79.3533 217.767 70.4625 217.779 61.4637C217.78 59.2056 217.654 56.9492 217.403 54.7051C217.195 52.8654 216.907 51.0387 216.538 49.2252C214.524 39.3853 210.201 30.1624 203.924 22.3141C200.885 20.6593 198.428 18.1145 196.883 15.0227C196.324 13.9113 195.928 12.7249 195.709 11.5003C196.052 11.5452 197.001 6.33456 196.743 6.01486C197.22 5.29135 198.075 4.9317 198.597 4.22568C201.191 0.714429 204.766 1.32752 206.632 6.09903C210.618 8.10733 210.657 11.4379 208.211 14.6412C206.655 16.6792 206.441 19.4368 205.075 21.6186C205.216 21.7981 205.362 21.972 205.502 22.1515C208.07 25.4475 210.308 28.9868 212.184 32.7186C211.654 28.5796 212.437 23.5933 213.773 20.3791C215.294 16.7168 218.144 13.6324 220.655 10.4664C223.67 6.6635 229.853 8.32316 230.384 13.1439C230.389 13.1906 230.394 13.2373 230.399 13.2839C230.026 13.4939 229.661 13.7167 229.304 13.9525C228.855 14.2517 228.508 14.6792 228.307 15.179C228.106 15.6788 228.061 16.2275 228.177 16.7533C228.294 17.2792 228.567 17.7575 228.961 18.1258C229.354 18.494 229.85 18.735 230.384 18.817L230.438 18.8254C230.305 20.1668 230.071 21.4962 229.736 22.8021C232.956 35.2338 226.004 39.7617 216.077 39.9651C215.858 40.0772 215.644 40.1894 215.425 40.296C217.31 45.6284 218.492 51.1828 218.942 56.8196C219.197 60.1451 219.182 63.4857 218.897 66.8089L218.914 66.6911C219.634 62.9959 221.608 59.6616 224.505 57.2514C228.807 53.7235 234.886 52.4243 239.527 49.5885C241.761 48.2235 244.624 49.9875 244.234 52.5733C244.228 52.6145 244.222 52.6558 244.215 52.6971C243.523 52.9784 242.85 53.3025 242.198 53.6674C241.825 53.8774 241.46 54.1003 241.103 54.336C240.655 54.6352 240.307 55.0627 240.106 55.5625C239.905 56.0623 239.86 56.611 239.977 57.1369C240.093 57.6627 240.366 58.1411 240.76 58.5093C241.154 58.8775 241.65 59.1185 242.183 59.2005L242.238 59.2089C242.277 59.2145 242.311 59.2202 242.35 59.2258C241.168 62.0436 239.508 64.6372 237.445 66.893C235.431 77.7454 226.783 78.7751 217.532 75.6147H217.526C216.511 80.0177 215.041 84.3034 213.138 88.4028H197.462C197.406 88.229 197.355 88.0495 197.305 87.8756C198.756 87.9666 200.212 87.88 201.642 87.6176C200.479 86.193 199.316 84.7571 198.153 83.3325C198.127 83.3058 198.103 83.2777 198.08 83.2483C197.49 82.5192 196.895 81.7956 196.305 81.0665L196.304 81.0656C196.273 78.8306 196.53 76.6008 197.069 74.4313L197.069 74.431Z" fill="#F2F2F2"/>
<path d="M247.401 34.3828C244.486 23.7743 267.995 14.6774 274.169 23.2204C275.027 22.0058 278.2 21.2681 279.655 21.6407C281.111 22.0133 282.335 22.9447 283.53 23.8463C285.172 25.1056 286.874 26.4097 287.881 28.2204C288.897 30.0236 289.053 32.4826 287.687 34.0474C286.605 35.2918 283.41 36.0966 281.783 36.4244C280.648 36.6554 279.693 36.8417 278.872 36.9759C278.126 35.9032 277.782 34.6026 277.901 33.3023C277.349 33.6744 276.885 34.1641 276.545 34.7361C276.204 35.3081 275.994 35.9483 275.931 36.6107C275.908 36.8864 285.105 70.664 285.105 70.664C284 71.2918 282.837 71.8132 281.634 72.2214C279.252 68.588 277.428 64.6197 276.222 60.448C275.944 63.2375 275.979 66.0492 276.326 68.831C276.511 70.3908 276.775 71.9403 277.117 73.4732C266.189 75.8279 249.752 75.053 242.601 65.0382C242.6 64.9967 242.599 64.9553 242.597 64.9138C242.592 64.5185 242.449 64.1374 242.193 63.8358C241.937 63.5343 241.583 63.331 241.194 63.2607C240.804 63.1905 240.402 63.2577 240.056 63.4509C239.711 63.644 239.443 63.9511 239.3 64.3195C239.126 64.7613 238.966 65.1438 238.824 65.448C236.741 58.0114 239.436 49.4049 247.401 34.3828Z" fill="#2F2E41"/>
<path d="M228.804 212.236V212.584C228.791 212.468 228.791 212.352 228.804 212.236Z" fill="#2F2E41"/>
<path d="M239.506 152.2C239.784 152.125 240.067 152.07 240.353 152.036C240.025 152.09 239.743 152.144 239.506 152.2Z" fill="#2F2E41"/>
<path d="M239.259 152.263C239.334 152.242 239.417 152.221 239.506 152.2C239.423 152.222 239.344 152.238 239.259 152.263Z" fill="#2F2E41"/>
<path d="M318.326 246.998H278.268C277.697 246.543 277.3 245.905 277.144 245.192C276.987 244.479 277.082 243.734 277.411 243.083C278.505 240.577 276.361 238.288 276.361 238.288C275.633 237.437 275.127 236.419 274.887 235.326C274.648 234.232 274.682 233.097 274.988 232.02C276.049 228.319 271.89 217.875 271.89 217.875C271.89 217.875 269.648 231.361 266.9 246.998H228.804C228.166 245.913 227.829 244.678 227.829 243.419C227.829 242.161 228.166 240.926 228.804 239.841C231.024 236.083 228.804 235.362 228.804 235.362C228.804 235.362 226.584 231.157 228.804 228.104C231.024 225.051 228.804 212.584 228.804 212.584C228.888 213.135 229.52 212.133 230.494 210.032C231.977 206.835 234.242 201.086 236.531 194.411C238.168 189.647 239.817 184.406 241.196 179.282H241.199C241.561 177.935 241.903 176.601 242.227 175.28C242.859 172.687 243.401 170.169 243.813 167.803C244.707 162.709 245.001 158.333 244.315 155.487C243.746 153.118 242.501 151.812 240.353 152.036C241.504 151.845 243.191 151.665 245.269 151.495C245.644 151.465 246.032 151.435 246.433 151.401C261.934 150.232 295.191 149.561 295.191 149.561L305.378 167.77L318.279 190.837C318.279 190.837 317.927 221.78 318.326 246.998Z" fill="#2F2E41"/>
<path d="M275.57 70.8563L252.101 65.8867L247.441 75.2499L231.749 84.3189C231.749 84.3189 241.864 125.605 241.806 131.411C241.66 146.153 218.03 179.201 235.878 176.658C253.727 174.116 257.352 163.467 263.082 165.151C268.25 166.669 274.559 173.425 278.783 168.593C283.008 163.762 284.495 169.341 287.167 169.534C288.436 169.625 287.671 163.433 290.865 169.726C294.059 176.02 310.995 167.548 305.255 161.818C295.695 152.275 293.752 81.9262 293.752 81.9262L283.11 78.6575L275.57 70.8563Z" fill="#E6E6E6"/>
<path d="M231.305 220.788C232.248 219.666 232.715 218.22 232.607 216.759C232.498 215.298 231.823 213.937 230.725 212.966C230.499 212.772 230.257 212.597 230.001 212.443L233.925 193.219L224.854 187.799L222.331 214.714C221.772 215.82 221.597 217.079 221.831 218.296C222.065 219.512 222.696 220.617 223.626 221.437C224.159 221.899 224.778 222.252 225.448 222.475C226.118 222.698 226.825 222.787 227.529 222.737C228.233 222.687 228.921 222.499 229.552 222.184C230.184 221.869 230.747 221.433 231.21 220.901C231.242 220.864 231.274 220.826 231.305 220.788Z" fill="#A0616A"/>
<path d="M259.471 119.456C259.414 118.838 258.625 118.557 257.53 118.169C256.431 117.831 255.386 117.338 254.428 116.703C252.005 114.956 252.959 113.129 254.277 110.603C254.535 110.112 254.803 109.601 255.054 109.07C255.8 107.496 254.612 101.006 251.517 89.7745C250.563 86.317 250.566 83.8751 249.907 82.2549C249.251 80.6347 247.936 79.8363 244.352 79.6693C240.02 79.4509 235.778 80.9562 232.556 83.855C232.469 83.9318 232.378 84.0154 232.291 84.0955C232.127 84.2492 231.967 84.4062 231.809 84.5666C228.83 87.559 227.124 91.5856 227.051 95.8042L227.034 96.5225L226.294 130.837L224.216 160.949L221.352 202.429L223.473 202.532L231.94 202.953L232.967 203.003L235.403 192.801L238.335 180.525L239.412 176.015L242.756 162.025L244.315 155.487L245.269 151.495L245.657 149.865L247.551 141.941C247.595 141.774 251.952 124.613 256.975 121.744C258.849 120.675 259.525 120.053 259.471 119.456Z" fill="#E6E6E6"/>
<path d="M315.83 220.583C314.771 219.568 314.152 218.181 314.102 216.717C314.053 215.253 314.578 213.827 315.565 212.744C315.769 212.527 315.991 212.327 316.228 212.146L310.259 193.454L318.694 187.093L324.099 213.582C324.773 214.621 325.083 215.855 324.981 217.089C324.879 218.324 324.37 219.489 323.535 220.405C323.054 220.921 322.477 221.338 321.835 221.632C321.193 221.925 320.499 222.09 319.794 222.116C319.088 222.142 318.384 222.029 317.723 221.783C317.061 221.538 316.454 221.164 315.937 220.685C315.9 220.651 315.865 220.617 315.83 220.583Z" fill="#A0616A"/>
<path d="M319.957 180.023C319.957 180.023 313.377 156.915 315.384 154.414C317.39 151.912 311.464 151.424 314.018 146.765C316.572 142.106 313.047 141.327 313.047 141.327L311.134 130.615L307.715 104.304L307.611 103.521L306.617 95.8667C306.339 93.6804 305.622 91.5724 304.51 89.6688C303.397 87.7652 301.911 86.1052 300.141 84.7879C300.051 84.7188 299.959 84.6524 299.866 84.5861C299.445 84.2835 299.015 84.0032 298.576 83.7452C295.294 81.8122 291.439 81.0814 287.675 81.6783C280.584 82.7809 282.791 85.4208 281.641 92.4932C279.772 103.993 279.287 110.572 280.198 112.058C280.505 112.559 280.828 113.038 281.135 113.497C282.719 115.87 283.863 117.582 281.641 119.582C280.756 120.314 279.771 120.915 278.715 121.37C277.671 121.874 276.915 122.237 276.925 122.857C276.937 123.458 277.675 124.001 279.652 124.862C282.047 125.909 284.62 129.865 286.728 133.907C288.4 137.165 289.891 140.513 291.195 143.934L309.308 194.788L312.263 203.081L313.282 202.92L321.651 201.596L323.75 201.264L319.957 180.023Z" fill="#E6E6E6"/>
<path d="M265.668 65.5355C276.243 65.5355 284.816 56.9781 284.816 46.422C284.816 35.866 276.243 27.3086 265.668 27.3086C255.094 27.3086 246.521 35.866 246.521 46.422C246.521 56.9781 255.094 65.5355 265.668 65.5355Z" fill="#A0616A"/>
<path d="M236.95 35.873C234.035 25.2646 257.545 16.1677 263.718 24.7106C264.577 23.4961 267.749 22.7583 269.205 23.1309C270.66 23.5035 271.884 24.4349 273.079 25.3366C274.721 26.5959 276.423 27.8999 277.431 29.7106C278.446 31.5138 278.603 33.9729 277.237 35.5377C276.154 36.782 272.959 37.5868 271.332 37.9147C270.198 38.1457 269.242 38.332 268.421 38.4661C267.675 37.3934 267.332 36.0928 267.451 34.7925C266.898 35.1647 266.435 35.6543 266.094 36.2263C265.753 36.7983 265.543 37.4385 265.48 38.101C265.457 38.3767 274.654 72.1543 274.654 72.1543C273.549 72.782 272.387 73.3035 271.183 73.7116C268.801 70.0783 266.977 66.11 265.771 61.9383C265.494 64.7278 265.529 67.5394 265.875 70.3212C266.06 71.8811 266.324 73.4305 266.667 74.9635C255.739 77.3181 239.301 76.5432 232.15 66.5284C232.149 66.487 232.148 66.4455 232.147 66.404C232.141 66.0087 231.998 65.6277 231.742 65.3261C231.486 65.0245 231.133 64.8212 230.743 64.751C230.353 64.6807 229.951 64.748 229.606 64.9411C229.26 65.1343 228.993 65.4414 228.849 65.8098C228.675 66.2516 228.516 66.634 228.373 66.9383C226.291 59.5016 228.985 50.8952 236.95 35.873Z" fill="#2F2E41"/>
<path d="M141.992 101.918C141.588 101.937 141.187 101.831 140.845 101.615C140.503 101.399 140.236 101.083 140.08 100.71C139.924 100.337 139.886 99.9254 139.972 99.5306C140.058 99.1357 140.264 98.7769 140.561 98.5026C140.611 98.3051 140.647 98.1632 140.697 97.9657C140.679 97.9227 140.661 97.8798 140.643 97.8369C138.825 93.5107 132.666 93.5406 130.864 97.8732C129.264 101.719 127.228 105.57 126.727 109.636C126.506 111.434 126.599 113.255 127.002 115.021C123.245 106.841 121.295 97.9497 121.282 88.951C121.281 86.6929 121.407 84.4365 121.658 82.1924C121.866 80.3527 122.155 78.5261 122.524 76.7125C124.537 66.8726 128.86 57.6497 135.138 49.8014C138.176 48.1466 140.633 45.6018 142.178 42.51C142.738 41.3986 143.133 40.2122 143.352 38.9876C143.01 39.0325 142.06 33.8219 142.318 33.5022C141.841 32.7787 140.986 32.419 140.464 31.713C137.87 28.2017 134.295 28.8148 132.429 33.5863C128.443 35.5946 128.405 38.9253 130.851 42.1285C132.407 44.1665 132.621 46.9241 133.986 49.1059C133.845 49.2854 133.699 49.4593 133.559 49.6388C130.991 52.9348 128.753 56.4741 126.877 60.2059C127.408 56.0669 126.624 51.0806 125.288 47.8664C123.767 44.2041 120.917 41.1197 118.407 37.9537C115.391 34.1508 109.209 35.8105 108.677 40.6312C108.672 40.6779 108.667 40.7246 108.662 40.7712C109.035 40.9812 109.4 41.204 109.757 41.4398C110.206 41.739 110.553 42.1665 110.755 42.6663C110.956 43.1661 111.001 43.7148 110.884 44.2406C110.767 44.7665 110.494 45.2448 110.101 45.6131C109.707 45.9813 109.211 46.2223 108.678 46.3043L108.623 46.3127C108.756 47.6541 108.991 48.9835 109.325 50.2894C106.105 62.7211 113.057 67.249 122.984 67.4524C123.204 67.5645 123.417 67.6767 123.636 67.7833C121.751 73.1157 120.569 78.6701 120.119 84.3069C119.864 87.6324 119.879 90.9731 120.164 94.2962L120.147 94.1784C119.428 90.4832 117.453 87.1489 114.556 84.7388C110.254 81.2108 104.176 79.9116 99.5343 77.0759C97.3001 75.7108 94.437 77.4748 94.827 80.0606C94.8332 80.1019 94.8395 80.1431 94.8459 80.1844C95.5378 80.4657 96.2115 80.7898 96.863 81.1547C97.2359 81.3647 97.6009 81.5876 97.958 81.8233C98.4066 82.1225 98.7542 82.55 98.9552 83.0498C99.1563 83.5496 99.2014 84.0983 99.0847 84.6241C98.968 85.15 98.6949 85.6284 98.3012 85.9966C97.9075 86.3649 97.4115 86.6058 96.8783 86.6879L96.8237 86.6962C96.7844 86.7018 96.7506 86.7075 96.7114 86.7131C97.8936 89.5309 99.5528 92.1245 101.616 94.3803C103.63 105.233 112.278 106.262 121.529 103.102H121.535C122.55 107.505 124.02 111.791 125.923 115.89H141.599C141.655 115.716 141.706 115.537 141.757 115.363C140.306 115.454 138.849 115.367 137.419 115.105C138.582 113.68 139.745 112.244 140.908 110.82C140.934 110.793 140.958 110.765 140.981 110.736C141.571 110.007 142.167 109.283 142.757 108.554L142.757 108.553C142.788 106.318 142.532 104.088 141.993 101.919L141.992 101.918Z" fill="#F2F2F2"/>
<path d="M68.8457 23.2207C68.4899 24.0484 57.5195 23.9597 57.0171 24.6967C53.1432 30.3866 67.1078 54.5957 63.2339 60.293L62.6942 60.9351C63.958 60.3536 65.1721 59.67 66.3241 58.8908C66.4276 56.5588 66.5312 54.2193 66.642 51.8873C67.8023 53.3691 68.7389 55.0126 69.4218 56.7654C70.3237 56.1307 71.0636 54.9542 74.9295 52.6401C76.4946 50.9238 78.2988 49.4412 80.2868 48.2378L68.8457 23.2207Z" fill="#2F2E41"/>
<path d="M76.812 69.8531C75.6014 69.0658 74.2202 68.5782 72.7829 68.4305C71.3457 68.2828 69.8939 68.4794 68.5481 69.004C67.2022 69.5285 66.001 70.3659 65.0443 71.4467C64.0875 72.5274 63.4028 73.8203 63.0468 75.2181L46.3757 118.58L17.7199 102.34C17.5941 100.473 16.8793 98.6942 15.678 97.2581C14.4768 95.822 12.8508 94.8026 11.0332 94.3461C9.2157 93.8895 7.30001 94.0192 5.56092 94.7167C3.82183 95.4142 2.34869 96.6435 1.35278 98.2284C0.356864 99.8133 -0.110652 101.672 0.0172809 103.539C0.145214 105.405 0.862027 107.184 2.06491 108.618C3.26779 110.053 4.89493 111.071 6.71298 111.525C8.53103 111.98 10.4466 111.848 12.1849 111.148C18.2195 117.578 44.382 143.938 55.213 133.638C64.317 124.981 77.4553 91.4283 80.6179 79.8419C81.1245 77.9891 81.0289 76.0237 80.345 74.2286C79.661 72.4335 78.424 70.9015 76.812 69.8531Z" fill="#FFB6B6"/>
<path d="M45.5081 135.455L50.7689 159.192L89.2384 162.665L92.7738 141.997L45.5081 135.455Z" fill="#FFB6B6"/>
<path d="M104.271 196.325C104.253 196.666 104.232 197.002 104.208 197.343C103.839 202.261 103.417 207.933 102.96 214.15C102.24 224.014 101.435 235.247 100.623 246.999H19.9331L35.5821 200.045C35.5821 200.045 41.9008 196.572 38.6838 190.739C35.4669 184.905 41.7967 189.554 41.8555 181.222C41.9144 172.891 47.5865 164.027 47.5865 164.027L48.5178 151.412L49.0484 151.423L91.0398 152.121L91.8059 152.135L93.0956 162.964C100.926 172.266 104.921 184.192 104.271 196.325Z" fill="#2F2E41"/>
<path d="M69.5181 58.3499L88.6662 57.3652L97.56 71.3937C97.56 71.3937 114.294 74.1865 113.134 93.8705C111.974 113.555 92.7738 130.827 92.7738 130.827L93.5946 128.019L92.1691 132.084L92.3519 134.367L94.2965 136.785L94.4967 139.285L92.7738 143.241C92.9978 143.6 93.1167 144.014 93.117 144.436C93.1173 144.859 92.9989 145.273 92.7754 145.632C92.5518 145.991 92.232 146.28 91.8522 146.466C91.4724 146.653 91.0479 146.729 90.6267 146.687L62.9592 143.919C62.3293 142.189 61.8239 140.12 59.2989 143.565L56.6926 143.313L45.8581 142.265L45.2204 139.946C44.858 138.629 44.8016 137.246 45.0553 135.903C45.309 134.56 45.8662 133.293 46.6845 132.198C45.7434 129.256 45.9899 126.064 47.3715 123.301L47.4233 123.197L48.5738 122.24C48.5738 122.24 35.9862 103.362 50.4364 89.1435L56.2361 79.3015L62.7254 71.3982L69.5181 58.3499Z" fill="#FF704A"/>
<path d="M74.2839 50.0688C84.3121 50.0688 92.4416 41.9536 92.4416 31.9431C92.4416 21.9325 84.3121 13.8174 74.2839 13.8174C64.2557 13.8174 56.1262 21.9325 56.1262 31.9431C56.1262 41.9536 64.2557 50.0688 74.2839 50.0688Z" fill="#FFB6B6"/>
<path d="M88.0748 58.0546C86.5962 56.8213 85.567 55.135 85.1472 53.2577C84.8113 55.537 84.8991 57.8586 85.406 60.1062C84.4227 60.8442 83.469 61.5453 82.5671 62.1799C81.8842 60.4271 80.9477 58.7836 79.7873 57.3018C79.6765 59.6339 79.5729 61.9733 79.4694 64.3053C78.3174 65.0845 77.1033 65.7682 75.8395 66.3496L76.3792 65.7075C80.2531 60.0102 70.2283 49.5234 74.1022 43.8335C75.189 42.2395 70.2801 29.642 66.5392 29.0738C63.2124 28.5719 63.3529 29.5313 60.1296 30.2324C59.7948 28.8389 59.2752 27.4961 58.5845 26.2399C58.7683 27.6397 58.7259 29.06 58.4588 30.4464C57.3129 30.4907 56.4114 29.7618 55.1912 29.5756C47.4064 28.3874 48.1974 19.9818 50.3636 17.3176C52.5371 14.6609 59.7526 13.8638 63.0794 13.0004C63.3825 12.7052 64.07 12.8897 64.3731 12.6092C70.7488 6.78464 79.2758 5.82004 86.9493 8.40163C95.1325 11.1547 100.235 16.4831 102.853 24.6975L103.604 31.2711C104.278 33.3847 103.43 43.2193 102.853 45.3612C100.609 53.6872 95.8309 49.5308 88.0748 58.0546Z" fill="#2F2E41"/>
<path d="M114.55 143.929L113.835 88.3529C113.798 85.9984 112.835 83.753 111.154 82.1011C109.473 80.4493 107.208 79.5234 104.85 79.5234C103.629 79.5234 102.422 79.7715 101.301 80.2526C100.179 80.7337 99.1681 81.4376 98.3284 82.3215C97.4887 83.2055 96.8381 84.2508 96.4163 85.3939C95.9946 86.537 95.8104 87.7539 95.8751 88.9704L98.3906 146.677L98.4383 181.806C96.9558 182.434 95.7027 183.502 94.8493 184.865C93.996 186.229 93.5837 187.821 93.6686 189.426C93.7535 191.032 94.3314 192.572 95.3237 193.838C96.3161 195.104 97.6748 196.034 99.2153 196.503C100.756 196.971 102.403 196.955 103.934 196.456C105.465 195.957 106.805 195 107.772 193.714C108.739 192.428 109.286 190.877 109.338 189.27C109.391 187.664 108.947 186.08 108.067 184.734L114.55 143.929Z" fill="#FFB6B6"/>
<path d="M208.264 215.831C208.264 215.831 207.158 235.68 206.65 247H168.589C167.805 236.698 167.542 229.129 167.542 229.129L165.459 247H126.986L124.601 213.903L136.128 185.382C136.128 185.382 198.591 181.057 204.385 186.543C210.176 192.025 208.264 215.831 208.264 215.831Z" fill="#2F2E41"/>
<path d="M174.606 48.8598C186.089 48.8598 195.397 39.5681 195.397 28.1062C195.397 16.6443 186.089 7.35254 174.606 7.35254C163.124 7.35254 153.816 16.6443 153.816 28.1062C153.816 39.5681 163.124 48.8598 174.606 48.8598Z" fill="#FFB6B6"/>
<path d="M198.84 21.3625C196.704 22.3345 195.321 29.3743 193.642 27.7377C191.964 26.1011 192.076 23.9713 189.813 23.3673C187.985 22.8775 186.019 23.4373 184.352 24.3202C184.054 24.476 183.766 24.6454 183.485 24.8139C183.299 24.6901 183.114 24.5735 182.916 24.4661C181.425 23.6696 179.685 23.4742 178.054 23.9201C179.343 24.351 180.463 25.1754 181.257 26.2768C180.699 26.65 180.134 27.0241 179.556 27.3556C174.727 30.1372 167.857 24.0888 162.774 21.8166C165.958 27.7802 164.39 30.25 161.626 36.4176L161.53 36.7688C161.687 35.223 156.896 34.071 157.174 36.247C157.371 37.792 158.71 41.226 159.46 42.5901C154.117 36.4222 150.465 28.8744 151.236 21.0882C151.403 19.4526 151.353 17.7268 152.198 16.3071C153.044 14.8948 154.808 13.9037 156.368 14.4423C156.236 11.9592 156.78 9.48676 157.943 7.2878C159.106 5.08885 160.844 3.24559 162.973 1.95399C165.102 0.662383 167.541 -0.0292833 170.032 -0.0474829C172.523 -0.0656825 174.972 0.590269 177.12 1.85063C179.115 3.01937 180.781 4.67233 182.609 6.09815C184.438 7.52395 186.546 8.76678 188.865 8.88449C190.336 8.95531 191.937 8.5968 193.201 9.35737C194.665 10.2399 194.916 12.0877 195.135 13.8656C193.83 13.9942 192.592 14.5084 191.58 15.3426C192.931 15.205 194.291 15.4962 195.467 16.1748C195.489 16.1849 195.511 16.197 195.531 16.211C196.305 19.1494 196.226 19.8008 198.84 21.3625Z" fill="#2F2E41"/>
<path d="M127.079 195.423C144.784 174.736 138.803 148.423 131.777 121.862L133.114 82.6239C133.179 80.6991 133.708 78.8183 134.655 77.1403C135.602 75.4624 136.939 74.0366 138.554 72.9832L156.629 61.1962L163.664 51.043L183.055 52.9787L193.808 64.3306L205.711 73.4013C208.699 75.6788 210.973 78.7618 212.265 82.2869C213.556 85.8119 213.811 89.632 212.999 93.2967L201.608 144.718C201.608 144.718 206.372 171.374 203.466 174.319C200.559 177.263 193.068 174.32 199.008 177.625C206.136 181.591 212.618 180.859 209.011 184.46C205.403 188.061 209.969 193.067 209.969 193.067L127.079 195.423Z" fill="#FF704A"/>
<path d="M134.648 225.488L137.6 204.497L125.823 201.141L123.493 223.445C122.518 224.337 121.812 225.483 121.454 226.753C121.096 228.024 121.1 229.369 121.466 230.638C121.832 231.906 122.545 233.048 123.525 233.934C124.505 234.82 125.714 235.416 127.014 235.654C128.315 235.892 129.656 235.764 130.888 235.283C132.119 234.802 133.192 233.987 133.985 232.931C134.778 231.875 135.26 230.619 135.378 229.304C135.495 227.989 135.242 226.668 134.648 225.488Z" fill="#FFB6B6"/>
<path d="M157.07 64.9795C157.07 64.9795 123.547 75.871 122.748 83.8402C121.948 91.8093 122.213 96.6878 118.675 128.577L118.862 214.478C118.862 214.478 141.337 219.282 139.032 214.146C136.727 209.01 137.531 206.593 137.531 206.593C137.531 206.593 142.35 204.695 141.144 198.665C139.938 192.635 145.987 162.75 145.987 162.75L149.805 109.154L157.07 64.9795Z" fill="#FF704A"/>
<path d="M198.405 224.377L196.834 203.238L208.806 200.657L209.67 223.066C210.585 224.019 211.214 225.209 211.488 226.5C211.762 227.792 211.67 229.134 211.222 230.376C210.774 231.618 209.988 232.71 208.952 233.53C207.916 234.351 206.671 234.866 205.357 235.019C204.044 235.172 202.714 234.956 201.516 234.396C200.319 233.835 199.302 232.953 198.58 231.847C197.858 230.741 197.459 229.456 197.428 228.137C197.397 226.817 197.735 225.515 198.405 224.377Z" fill="#FFB6B6"/>
<path d="M186.542 62.748C186.542 62.748 219.28 75.8036 219.556 83.8079C219.832 91.8122 219.248 96.663 220.69 128.715L214.879 214.42C214.879 214.42 192.137 217.747 194.774 212.772C197.41 207.798 196.766 205.334 196.766 205.334C196.766 205.334 192.082 203.125 193.68 197.187C195.279 191.248 191.199 161.033 191.199 161.033L190.899 107.303L186.542 62.748Z" fill="#FF704A"/>
</g>
<defs>
<clipPath id="clip0_170_5997">
<rect width="325" height="247" fill="white"/>
</clipPath>
</defs>
</svg>
