<svg width="366" height="240" viewBox="0 0 366 240" fill="none" xmlns="http://www.w3.org/2000/svg">
<g clip-path="url(#clip0_186_2106)">
<rect x="34" width="311" height="116" rx="7" fill="white"/>
<path d="M337.689 115.89H40.903C36.9249 115.89 33.6885 112.649 33.6885 108.666V7.22368C33.6885 3.24052 36.9249 0 40.903 0H337.689C341.667 0 344.903 3.24052 344.903 7.22368V108.666C344.903 112.649 341.667 115.89 337.689 115.89ZM40.903 0.861223C37.3993 0.861223 34.5486 3.7155 34.5486 7.22368V108.666C34.5486 112.174 37.3993 115.029 40.903 115.029H337.689C341.192 115.029 344.043 112.174 344.043 108.666V7.22368C344.043 3.7155 341.192 0.861223 337.689 0.861223H40.903Z" fill="#3F3D56"/>
<path d="M366 237.076H0V237.801H366V237.076Z" fill="#E6E6E6"/>
<path d="M366 200.044H0V200.769H366V200.044Z" fill="#E6E6E6"/>
<path d="M166.797 119.621C167.059 122.928 168.977 125.473 171.079 125.305C173.181 125.138 174.671 122.321 174.407 119.013C174.32 117.69 173.918 116.407 173.234 115.272L171.944 101.273L165.396 102.02L167.364 115.74C166.868 116.97 166.673 118.301 166.797 119.621Z" fill="#FFB6B6"/>
<path d="M158.975 54.3147C158.975 54.3147 165.095 51.0705 168.199 55.9185C171.302 60.7666 173.444 113.199 173.444 113.199L164.842 114.119L163.212 77.1709L158.975 54.3147Z" fill="#E6E6E6"/>
<path d="M146.271 197.308L151.254 197.308L153.624 178.062L146.27 178.062L146.271 197.308Z" fill="#FFB6B6"/>
<path d="M163.344 197.195C163.5 197.457 163.581 198.301 163.581 198.605C163.581 199.541 162.824 200.299 161.89 200.299H146.457C145.82 200.299 145.304 199.782 145.304 199.144V198.5C145.304 198.5 144.54 196.567 146.112 194.184C146.112 194.184 148.065 196.05 150.984 193.127L151.845 191.565L158.076 196.128L161.53 196.554C162.286 196.647 162.956 196.54 163.344 197.195Z" fill="#2F2E41"/>
<path d="M175.109 196.482L179.937 195.246L177.477 176.012L170.351 177.835L175.109 196.482Z" fill="#FFB6B6"/>
<path d="M191.623 192.141C191.838 192.356 192.126 193.154 192.202 193.449C192.433 194.355 191.887 195.277 190.981 195.509L176.029 199.333C175.411 199.491 174.783 199.118 174.625 198.5L174.466 197.876C174.466 197.876 173.249 196.192 174.182 193.494C174.182 193.494 176.536 194.818 178.642 191.262L179.09 189.536L186.255 192.413L189.707 191.969C190.462 191.872 191.085 191.602 191.623 192.141Z" fill="#2F2E41"/>
<path d="M142.148 50.177L141.912 48.4602L144.72 41.5928L152.436 40.7344L154.102 50.5659L142.148 50.177Z" fill="#FFB6B6"/>
<path opacity="0.1" d="M142.148 50.177L141.912 48.4602L144.72 41.5928L152.436 40.7344L154.102 50.5659L142.148 50.177Z" fill="black"/>
<path d="M133.146 98.6779L129.717 108.121L132.289 113.271L145.149 187.954H153.698L152.007 121.855L171.726 187.954H180.188L173.383 143.316L168.297 102.112L165.212 100.203L150.293 91.8105L133.146 98.6779Z" fill="#2F2E41"/>
<path d="M155.009 105.117L149.865 105.975L143.006 89.665H158.438L155.009 105.117Z" fill="#E6E6E6"/>
<path d="M165.296 100.825L155.008 105.117L151.579 97.391L149.864 105.975L131.86 100.172L134.432 89.6652L131.86 55.3283L140.94 49.2678L142.148 48.4609L153.294 49.3194L154.271 49.8516L161.01 53.6115L162.724 81.9394L165.296 100.825Z" fill="#2F2E41"/>
<path d="M154.271 49.8516L149.436 70.3507L140.939 49.2678L142.148 48.4609L153.294 49.3194L154.271 49.8516Z" fill="#E6E6E6"/>
<path d="M146.006 48.4609L144.291 51.4177L146.006 52.4033L145.148 70.404L148.578 75.072L152.007 68.1729L149.435 52.4033L150.292 48.4609H146.006Z" fill="#2F2E41"/>
<path d="M148.578 46.7436C153.076 46.7436 156.723 43.0925 156.723 38.5886C156.723 34.0847 153.076 30.4336 148.578 30.4336C144.08 30.4336 140.434 34.0847 140.434 38.5886C140.434 43.0925 144.08 46.7436 148.578 46.7436Z" fill="#FFB6B6"/>
<path d="M143.373 39.3041L145.133 40.0731L145.901 35.459C145.901 35.459 148.973 33.921 151.277 34.69C153.581 35.459 157.421 34.69 157.421 34.69C157.421 34.69 157.421 27 152.045 27C146.669 27 141.293 27.769 141.293 30.076C141.293 32.383 138.988 34.69 138.988 34.69C138.988 34.69 135.916 39.3041 138.988 42.3801C142.061 45.4561 143.597 45.4561 143.597 45.4561L143.373 39.3041Z" fill="#2F2E41"/>
<path d="M127.57 119.38C127.481 122.696 129.117 125.43 131.225 125.487C133.333 125.543 135.113 122.901 135.202 119.583C135.256 118.259 134.992 116.94 134.433 115.739L134.634 101.683L128.044 101.729L128.545 115.581C127.922 116.751 127.587 118.053 127.57 119.38Z" fill="#FFB6B6"/>
<path d="M135.722 53.595C135.722 53.595 130.15 51.8782 127.578 57.0287C125.006 62.1792 128.435 114.543 128.435 114.543H137.086L134.79 77.6308L135.722 53.595Z" fill="#E6E6E6"/>
<path d="M349.495 151.148L328.714 144.778C328.254 144.637 327.772 144.586 327.293 144.627L221.969 153.602C220.467 153.73 220.09 155.758 221.445 156.419L224.819 158.065H224.729V236.846H227.908V159.571L238.481 164.729C239.29 165.124 240.193 165.285 241.088 165.194L242.213 165.081V236.846H245.392V164.759L326.855 156.52V236.846H330.034V156.198L343.545 154.832V236.846H346.724V154.51L349.189 154.261C350.919 154.086 351.158 151.658 349.495 151.148Z" fill="#3F3D56"/>
<path d="M252.545 153.29C254.532 153.29 283.938 149.709 283.938 149.709L288.309 155.677L257.711 161.646L252.545 153.29Z" fill="white"/>
<path d="M284.818 233.787L279.709 233.777L277.312 214.042L284.853 214.055L284.818 233.787Z" fill="#A0616A"/>
<path d="M267.315 233.641C267.155 233.909 267.07 234.774 267.069 235.086C267.068 236.045 267.843 236.824 268.8 236.826L284.622 236.853C285.275 236.854 285.806 236.325 285.807 235.67L285.808 235.011C285.808 235.011 286.594 233.03 284.987 230.584C284.987 230.584 282.981 232.494 279.993 229.492L279.114 227.89L272.718 232.557L269.176 232.987C268.401 233.081 267.714 232.97 267.315 233.641Z" fill="#2F2E41"/>
<path d="M312.239 224.609L308.208 227.653L294.562 213.535L300.512 209.042L312.239 224.609Z" fill="#A0616A"/>
<path d="M298.361 234.948C298.394 235.254 298.843 235.988 299.028 236.234C299.598 236.99 300.673 237.141 301.428 236.57L313.911 227.142C314.426 226.752 314.529 226.018 314.14 225.502L313.748 224.982C313.748 224.982 313.187 222.952 310.464 221.984C310.464 221.984 310.021 224.687 305.879 224.107L304.231 223.37L301.971 230.867L299.437 233.321C298.883 233.858 298.275 234.18 298.361 234.948Z" fill="#2F2E41"/>
<path d="M301.561 122.613C301.561 127.33 297.742 131.154 293.031 131.154C288.319 131.154 284.5 127.33 284.5 122.613C284.5 117.895 288.319 114.071 293.031 114.071C297.742 114.071 301.561 117.895 301.561 122.613Z" fill="#A0616A"/>
<path d="M300.758 171.86C300.758 171.86 269.349 170.08 267.571 173.64C265.793 177.2 277.182 226.103 277.182 226.103L287.343 223.971L282.387 189.661C282.387 189.661 308.596 196.611 312.152 188.304C315.708 179.997 314.684 176.904 314.684 176.904L300.758 171.86Z" fill="#2F2E41"/>
<path d="M308.805 165.884C308.805 165.884 278.045 172.486 277.271 176.391C276.497 180.295 300.401 224.439 300.401 224.439L309.636 219.691L295.792 187.917C295.792 187.917 322.904 187.677 324.138 178.724C325.372 169.771 323.568 167.059 323.568 167.059L308.805 165.884Z" fill="#2F2E41"/>
<path d="M312.313 132.401H297.535L287.424 149.016C287.424 149.016 285.053 159.752 287.424 160.911C289.794 162.07 289.794 174.53 289.794 174.53L314.684 176.904C314.684 176.904 318.24 139.522 317.054 135.962C315.869 132.401 312.313 132.401 312.313 132.401Z" fill="#3E94E7"/>
<path d="M288.905 143.379L287.424 160.911L270.76 153.83L266.783 151.827C266.004 150.81 264.993 149.995 263.835 149.449C260.954 148.043 257.896 148.392 257.003 150.226C256.11 152.061 257.72 154.687 260.6 156.092C261.743 156.669 263.008 156.964 264.288 156.952L275.925 163.569L275.939 163.543L275.99 163.636L294.239 171.267L298.438 148.251L288.905 143.379Z" fill="#A0616A"/>
<path d="M287.128 123.798C287.128 123.798 278.239 124.984 281.795 117.271C281.795 117.271 281.252 113.089 283.894 112.806C286.536 112.524 290.091 107.777 290.091 107.777C290.091 107.777 298.243 103.623 302.464 107.777C306.684 111.93 319.129 136.258 319.129 136.258L310.833 145.159C310.833 145.159 305.845 132.03 300.042 133.551C294.239 135.071 288.906 139.606 288.906 139.606C288.906 139.606 283.017 136.655 285.665 134.083C288.313 131.511 287.128 123.798 287.128 123.798Z" fill="#2F2E41"/>
<path d="M298.98 136.851C298.98 136.851 294.832 131.511 291.869 135.665C288.906 139.818 286.535 145.159 286.535 145.159L298.387 149.312L298.98 136.851Z" fill="#3E94E7"/>
<path d="M343.981 235.665L330.211 191.842L330.213 191.842H330.245L330.189 191.77L330.188 191.768L329.207 188.647L329.208 188.646C330.702 187.357 331.719 185.515 331.922 183.394L325.627 148.731C326.06 144.179 322.575 140.2 318.009 140.037L303.807 140.001C299.77 139.858 296.273 142.778 295.685 146.781L295.371 148.906L291.019 178.544C290.861 179.611 290.924 180.661 291.174 181.644L288.043 182.054L287.093 182.181L283.338 182.67L283.326 182.674L282.857 182.734H282.349V195.466H282.38V236.162C282.38 236.424 282.595 236.639 282.857 236.639C283.124 236.639 283.338 236.424 283.338 236.162V195.466H288.909L294.469 236.114C294.504 236.353 294.707 236.528 294.946 236.528C294.965 236.528 294.989 236.528 295.009 236.524C295.271 236.488 295.454 236.245 295.418 235.983L289.879 195.466H316.611C319.265 195.466 321.724 194.623 323.727 193.179L334.326 236.04C334.381 236.256 334.576 236.401 334.789 236.401C334.828 236.401 334.868 236.396 334.908 236.386C335.164 236.321 335.319 236.06 335.254 235.803L324.552 192.528C324.695 192.409 324.837 192.282 324.972 192.152L329.226 191.901L343.068 235.953C343.132 236.157 343.321 236.288 343.525 236.288C343.572 236.288 343.62 236.281 343.668 236.266C343.92 236.187 344.061 235.918 343.981 235.665ZM328.298 189.327C328.333 189.307 328.365 189.283 328.397 189.263L328.499 189.588L328.298 189.327Z" fill="#E6E6E6"/>
<path d="M73.7842 161.383L83.0517 155.481L86.8194 157.757L73.7842 172.754V161.383Z" fill="#FFB6B6"/>
<path d="M61.111 138.541C61.111 138.541 54.9555 139.992 57.8522 148.33C60.7489 156.669 70.1633 174.071 73.06 172.984C75.9567 171.896 76.3188 161.02 76.3188 161.02C76.3188 161.02 75.9567 161.382 74.5083 159.932C73.06 158.482 73.06 159.144 73.06 157.544C73.06 155.944 71.8753 154.758 71.8753 154.758L70.5254 151.956C70.5254 151.956 70.5254 138.904 65.094 138.179C59.6627 137.454 61.111 138.541 61.111 138.541Z" fill="#E6E6E6"/>
<path d="M89.87 157.366C92.2738 154.959 93.019 151.803 91.5342 150.316C90.0495 148.83 86.8971 149.576 84.4932 151.983C82.0894 154.39 81.3442 157.546 82.829 159.033C84.3137 160.519 87.4661 159.773 89.87 157.366Z" fill="#FFB6B6"/>
<path d="M37.1357 186.58L43.4595 197.06L80.3114 194.876L70.4988 182.213L37.1357 186.58Z" fill="#E6E6E6"/>
<path d="M48.1468 235.597C47.9322 235.597 47.7452 235.438 47.7153 235.219L36.7033 154.692C36.6706 154.453 36.8376 154.232 37.0762 154.2C37.3147 154.165 37.5347 154.334 37.5674 154.573L48.5794 235.101C48.6121 235.34 48.4452 235.56 48.2066 235.592C48.1864 235.595 48.1665 235.597 48.1468 235.597Z" fill="#E6E6E6"/>
<path d="M37.1353 235.698C36.8945 235.698 36.6992 235.503 36.6992 235.262V154.648C36.6992 154.406 36.8945 154.211 37.1353 154.211C37.3762 154.211 37.5714 154.406 37.5714 154.648V235.262C37.5714 235.503 37.3762 235.698 37.1353 235.698Z" fill="#E6E6E6"/>
<path d="M92.4131 235.378C92.2277 235.378 92.0558 235.259 91.9972 235.072L65.9392 152.143C65.8669 151.913 65.9945 151.668 66.2243 151.595C66.454 151.523 66.699 151.651 66.7712 151.881L92.8292 234.81C92.9015 235.04 92.7738 235.285 92.5441 235.358C92.5005 235.371 92.4564 235.378 92.4131 235.378Z" fill="#E6E6E6"/>
<path d="M84.4538 235.48C84.259 235.48 84.0816 235.349 84.0314 235.151L65.9325 161.96C65.8732 161.727 66.0143 161.489 66.2476 161.429C66.4818 161.37 66.7185 161.511 66.7779 161.745L84.8768 234.936C84.9361 235.169 84.795 235.407 84.5616 235.467C84.5255 235.476 84.4893 235.48 84.4538 235.48Z" fill="#E6E6E6"/>
<path d="M37.1357 155.932L67.3369 155.467L72.8974 187.235H37.5719L37.1357 155.932Z" fill="#E6E6E6"/>
<path d="M83.5468 202.645L75.9355 216.062L84.7728 218.01L88.4572 208.467L83.5468 202.645Z" fill="#FFB6B6"/>
<path d="M78.6693 213.528C78.6693 213.528 78.3735 211.34 76.6348 212.035C74.896 212.729 69.8779 215.309 69.8779 215.309C69.8779 215.309 82.9664 236.603 85.4503 235.612C87.9342 234.62 84.9608 228.6 84.9608 228.6L85.617 217.96L78.6693 213.528Z" fill="#2F2E41"/>
<path d="M49.886 176.61C49.886 176.61 47.1704 189.118 55.4984 193.468C63.8265 197.819 92.2505 187.124 92.2505 187.124L79.2153 206.68L88.2675 210.327C88.2675 210.327 108.907 183.136 107.458 178.785C106.01 174.434 96.2334 174.072 96.2334 174.072L74.146 175.159L68.3526 173.347L49.886 176.61Z" fill="#2F2E41"/>
<path d="M72.2868 208.599L60.3213 218.323L67.8447 223.357L74.7446 215.811L72.2868 208.599Z" fill="#FFB6B6"/>
<path d="M63.7881 216.96C63.7881 216.96 64.3078 214.814 62.4359 214.827C60.564 214.84 54.9521 215.416 54.9521 215.416C54.9521 215.416 59.4046 240.019 62.0787 240C64.7528 239.981 64.1708 233.291 64.1708 233.291L68.6488 223.62L63.7881 216.96Z" fill="#2F2E41"/>
<path d="M50.3957 172.085C50.3957 172.085 43.3205 182.746 49.4965 189.833C55.6726 196.919 86.0348 197.313 86.0348 197.313L66.7861 210.78L73.8924 217.475C73.8924 217.475 102.998 199.667 103.23 195.087C103.462 190.507 94.488 186.608 94.488 186.608L73.5195 179.573L68.782 175.774L50.3957 172.085Z" fill="#2F2E41"/>
<path d="M68.5708 147.391C68.5708 147.391 61.6911 144.854 58.4323 144.854C58.1209 144.854 57.8131 144.89 57.5054 144.955C55.4197 145.397 53.5007 147.192 52.581 148.171C52.2225 148.555 52.0161 148.813 52.0161 148.813C52.0161 148.813 52.0378 148.562 52.0813 148.124C52.2949 145.818 53.0843 138.252 54.5 133.408C55.007 131.679 55.5899 130.297 56.2598 129.627C57.8204 128.06 58.5409 126.182 58.8741 124.783C59.1565 123.583 59.1565 122.738 59.1565 122.738L56.5169 121.6L56.028 118.402C55.9411 118.779 55.5392 119.515 54.1886 120.925C54.0728 121.045 53.946 121.146 53.8121 121.233C51.864 122.459 47.8919 120.327 45.752 118.986C46.6427 115.886 48.2576 113.051 51.1905 112.587C58.0702 111.499 58.0702 107.511 62.4153 111.862C62.7738 112.221 63.1359 112.565 63.4979 112.898C64.8884 115.56 65.3953 119.127 65.5763 121.607C65.7067 123.344 65.6741 124.551 65.6741 124.551C65.6741 124.551 67.4845 135.427 70.3813 137.603C73.278 139.778 68.5708 147.391 68.5708 147.391Z" fill="#2F2E41"/>
<path d="M55.1737 129.989L50.2812 137.175L61.3292 140.141V129.989H55.1737Z" fill="#FFB6B6"/>
<path opacity="0.1" d="M55.1737 129.989L50.2812 137.175L61.3292 140.141V129.989H55.1737Z" fill="black"/>
<path d="M62.0163 136.91L51.5157 132.56C51.5157 132.56 37.3942 138.723 38.4805 150.687C39.5668 162.651 49.7053 183.316 49.7053 183.316L69.9823 174.615L67.8097 151.412L62.0163 136.91Z" fill="#E6E6E6"/>
<path d="M57.514 133.197C62.6304 133.197 66.7781 129.044 66.7781 123.921C66.7781 118.798 62.6304 114.646 57.514 114.646C52.3977 114.646 48.25 118.798 48.25 123.921C48.25 129.044 52.3977 133.197 57.514 133.197Z" fill="#FFB6B6"/>
<path d="M70.019 120.563C68.2086 122.376 66.7602 124.188 66.7602 124.188L66.036 121.288C66.036 121.288 65.8695 121.411 65.5762 121.607C64.4284 122.39 61.347 124.359 58.8739 124.783C57.7732 124.971 56.7955 124.852 56.1582 124.188C54.8076 122.778 54.4057 122.042 54.3188 121.665L53.83 124.863L51.1904 126.001C51.1904 126.001 51.1904 129.982 54.0871 132.889C54.2283 133.031 54.3659 133.205 54.4999 133.408C55.8831 135.496 56.8752 140.608 57.5052 144.955C58.0628 148.82 58.3308 152.076 58.3308 152.076C58.3308 152.076 55.5898 148.639 52.5808 148.171C52.4142 148.146 52.2477 148.127 52.0811 148.124C52.0268 148.117 51.9689 148.117 51.9146 148.117C48.6558 148.117 41.7761 150.654 41.7761 150.654C41.7761 150.654 37.0689 143.041 39.9656 140.866C42.8623 138.69 44.6728 127.814 44.6728 127.814C44.6728 127.814 44.5533 123.159 45.7518 118.986C46.6425 115.886 48.2575 113.051 51.1904 112.587C58.0701 111.499 58.0701 107.511 62.4151 111.862C62.7736 112.221 63.1357 112.565 63.4978 112.898C67.5459 116.626 71.681 118.899 70.019 120.563Z" fill="#2F2E41"/>
<path d="M29.3878 169.23H25.9473V237.267H29.3878V169.23Z" fill="#3F3D56"/>
<path d="M112.82 169.23H109.38V237.267H112.82V169.23Z" fill="#3F3D56"/>
<path d="M90.8872 140.379H68.0938V163.201H90.8872V140.379Z" fill="#3E94E7"/>
<path d="M54.9561 164.645L64.2235 158.744L67.9913 161.02L54.9561 176.017V164.645Z" fill="#FFB6B6"/>
<path d="M42.2829 141.804C42.2829 141.804 36.1274 143.254 39.0241 151.593C41.9208 159.932 51.3351 177.334 54.2318 176.246C57.1286 175.159 57.4906 164.282 57.4906 164.282C57.4906 164.282 57.1286 164.645 55.6802 163.195C54.2318 161.744 54.2318 162.407 54.2318 160.807C54.2318 159.207 53.0472 158.02 53.0472 158.02L51.6972 155.219C51.6972 155.219 51.6972 142.167 46.2659 141.442C40.8346 140.717 42.2829 141.804 42.2829 141.804Z" fill="#E6E6E6"/>
<path d="M71.0418 160.629C73.4457 158.222 74.1908 155.066 72.7061 153.579C71.2213 152.092 68.069 152.838 65.6651 155.245C63.2612 157.652 62.5161 160.809 64.0009 162.295C65.4856 163.782 68.638 163.036 71.0418 160.629Z" fill="#FFB6B6"/>
<path d="M119.702 166.646H15.626V174.397H119.702V166.646Z" fill="#3F3D56"/>
<path d="M225.442 104.639H210.071C208.853 104.639 207.865 105.628 207.865 106.848V113.195C207.865 114.415 208.853 115.404 210.071 115.404H225.442C226.66 115.404 227.648 114.415 227.648 113.195V106.848C227.648 105.628 226.66 104.639 225.442 104.639Z" fill="#3F3D56"/>
<path d="M257.697 110.986H242.326C241.108 110.986 240.12 111.975 240.12 113.195V113.195C240.12 114.415 241.108 115.404 242.326 115.404H257.697C258.915 115.404 259.903 114.415 259.903 113.195C259.903 111.975 258.915 110.986 257.697 110.986Z" fill="#3E94E7"/>
</g>
<defs>
<clipPath id="clip0_186_2106">
<rect width="366" height="240" fill="white"/>
</clipPath>
</defs>
</svg>
