<svg width="546" height="387" viewBox="0 0 546 387" fill="none" xmlns="http://www.w3.org/2000/svg">
<g clip-path="url(#clip0_539_2255)">
<path opacity="0.1" d="M181.522 386.783C208.112 386.783 229.667 383.319 229.667 379.045C229.667 374.772 208.112 371.308 181.522 371.308C154.933 371.308 133.377 374.772 133.377 379.045C133.377 383.319 154.933 386.783 181.522 386.783Z" fill="white"/>
<path opacity="0.1" d="M443.232 387C476.412 387 503.31 383.535 503.31 379.262C503.31 374.989 476.412 371.524 443.232 371.524C410.052 371.524 383.155 374.989 383.155 379.262C383.155 383.535 410.052 387 443.232 387Z" fill="white"/>
<path opacity="0.1" d="M6.83834 167.212H56.9845V235.605H10.5095C10.386 236.307 10.2674 237.014 10.1389 237.721H56.9845V292.878C56.9005 292.853 56.8264 292.824 56.7474 292.794C55.4232 292.27 54.1089 291.716 52.7946 291.123L51.9546 290.742C50.637 290.119 49.3194 289.46 48.0018 288.764C47.5423 288.522 47.0828 288.27 46.6282 288.013C39.3135 283.913 32.6684 278.717 26.9235 272.607C26.7555 272.444 26.5974 272.271 26.4294 272.112C25.629 271.242 24.8433 270.362 24.0824 269.462L23.2424 268.473C22.3432 267.371 21.4736 266.239 20.6287 265.092C20.5051 264.924 20.3865 264.755 20.2581 264.597C16.8219 259.83 13.9687 254.668 11.7596 249.221C11.6904 249.058 11.6311 248.88 11.5669 248.726C10.8883 246.98 10.2872 245.216 9.76341 243.436C9.53612 242.69 9.31872 241.953 9.13096 241.177C9.06178 240.949 9.00249 240.727 8.94814 240.504C6.14165 229.543 5.81061 218.157 5.81061 206.849C5.81061 205.529 5.81061 204.204 5.81061 202.894C5.81061 198.321 5.86496 193.718 5.94402 189.12C5.94402 187.928 5.99342 186.741 6.01813 185.545C6.0873 182.509 6.18612 179.473 6.31459 176.438C6.34424 175.592 6.38376 174.752 6.42823 173.911C6.42823 173.427 6.45294 172.942 6.50235 172.458C6.62093 170.698 6.71975 168.952 6.83834 167.212Z" fill="white"/>
<path opacity="0.1" d="M56.9845 91.0616H29.478C33.9493 84.0586 38.8348 77.3291 44.1083 70.9092C48.1945 65.8859 52.508 60.9912 56.9845 56.2744V91.0616Z" fill="white"/>
<path opacity="0.1" d="M56.9845 93.1777V165.096H6.99646C6.99646 164.888 7.03105 164.675 7.04587 164.468C7.09034 163.899 7.13481 163.331 7.18422 162.767C7.23857 162.104 7.29786 161.437 7.36209 160.789C7.42633 160.142 7.4955 159.351 7.56962 158.634C7.64373 157.917 7.7129 157.19 7.7969 156.473C7.8809 155.756 7.95501 155.039 8.04395 154.327C8.13289 153.615 8.21195 152.893 8.30583 152.181C8.37994 151.588 8.45899 151 8.53805 150.407C8.65169 149.571 8.77028 148.73 8.89874 147.9C8.89874 147.776 8.93333 147.648 8.95309 147.529C9.85492 141.448 11.0837 135.421 12.6341 129.473C14.2571 123.233 16.3295 117.119 18.8351 111.179C21.4981 104.966 24.6161 98.9568 28.1637 93.2025L56.9845 93.1777Z" fill="white"/>
<path opacity="0.1" d="M68.9565 167.207V235.605H176.063V167.207H68.9565ZM68.9565 237.716V296.453C69.5692 296.581 70.177 296.705 70.7798 296.809C71.6 296.967 72.4152 297.11 73.2503 297.234C73.4084 297.259 73.5714 297.283 73.7444 297.298C74.0705 297.353 74.4065 297.397 74.7326 297.441C75.5577 297.555 76.3779 297.649 77.2031 297.723C77.5934 297.763 77.9887 297.797 78.384 297.827L79.3376 297.901C79.8564 297.941 80.3702 297.971 80.8792 297.985C81.1954 297.985 81.5116 298.015 81.8377 298.025C82.0848 298.025 82.3318 298.025 82.5888 298.025C82.8457 298.025 83.2113 298.025 83.5226 298.025C83.9475 298.025 84.3725 298.025 84.7924 298.025H85.3607C85.7856 298.025 86.2105 298.025 86.6305 297.985H86.6601C86.9517 297.985 87.2481 297.985 87.5446 297.946C87.6268 297.951 87.7093 297.951 87.7916 297.946C88.0387 297.946 88.2857 297.946 88.5229 297.911H88.6958L90.3511 297.783C90.8946 297.733 91.443 297.669 91.9964 297.61L93.123 297.476C97.7061 296.833 102.238 295.869 106.686 294.589C116.677 291.8 126.45 287.899 136.436 285.042C149.347 281.358 163.611 279.549 176.087 284.053V237.716H68.9565ZM176.063 91.0619V0.00515593C164.336 -0.12197 152.642 1.25043 141.263 4.08904C114.142 10.9071 89.8076 25.6951 68.9565 44.5818V91.057H74.3323V93.1682H68.9565V165.096H176.063V93.1731H96.4038V91.0619H176.063ZM313.635 60.3043C306.925 60.0669 300.255 57.9409 294.222 54.658C282.684 48.3789 273.469 38.6834 263.172 30.5008C241.778 13.4582 215.245 3.17437 188.025 0.623177V91.0619H340.924L341.304 90.6615L313.635 60.3043ZM327.563 57.8322L342.332 74.049V53.5802C337.386 54.1933 333.053 55.6518 327.583 57.8124L327.563 57.8322ZM342.332 311.038V237.716H310.863C310.779 237.404 310.695 237.088 310.596 236.772C310.69 237.088 310.769 237.404 310.858 237.716H188.044V290.742C189.211 291.607 190.362 292.517 191.503 293.442C192.733 294.431 193.949 295.474 195.169 296.497L196.4 297.516C196.988 298.01 197.581 298.504 198.178 298.969C199.364 299.932 200.562 300.881 201.771 301.817C202.368 302.312 202.981 302.756 203.589 303.221C213.237 310.603 223.415 317.264 234.04 323.151C236.422 324.47 238.825 325.757 241.249 327.013C242.865 327.838 244.49 328.659 246.121 329.455C248.572 330.651 251.042 331.805 253.532 332.916C276.491 343.229 300.769 350.305 325.671 353.943C331.202 354.761 336.754 355.404 342.327 355.872V311.033H342.821L342.332 311.038ZM188.044 93.1731V165.096H342.352V93.1731H188.044ZM188.044 167.207V235.605H342.352V167.207H188.044ZM354.329 53.4912V76.3234L373.179 55.6271C366.933 54.6185 360.65 53.8983 354.329 53.4665V53.4912ZM354.329 167.232V235.605H504.412V167.207L354.329 167.232ZM503.863 316.467L504.392 237.716H354.329V356.658C363.996 357.064 373.678 356.949 383.332 356.312H383.5C388.112 356.022 392.702 355.6 397.271 355.046H397.375C421.749 352.207 445.582 345.844 468.13 336.154M533.351 178.47C532.788 177.14 532.2 175.82 531.602 174.515C530.485 172.043 529.304 169.64 528.089 167.237H516.379V235.605H545.985C545.97 216.243 541.074 196.467 533.366 178.445L533.351 178.47ZM516.379 237.741V305.476C524.719 297.476 531.765 288.324 536.839 277.863C542.941 265.265 545.733 251.624 545.96 237.731L516.379 237.741ZM516.379 147.302V165.101H526.992C523.781 158.974 520.243 153.024 516.393 147.277L516.379 147.302ZM414.594 66.9097C413.813 66.613 413.033 66.3114 412.247 66.0197C403.962 62.9579 395.495 60.4118 386.895 58.3958L358.049 90.0731L357.496 90.6615L357.867 91.0669H460.531C446.232 81.2183 430.818 73.101 414.609 66.885L414.594 66.9097ZM463.54 93.1978H356.434L354.329 95.1261V165.096H372.778H372.808H504.431V131.204C492.525 116.794 478.782 104.009 463.554 93.1731L463.54 93.1978Z" fill="white"/>
<path opacity="0.1" d="M56.9845 129.453V165.096H6.99646C6.99646 164.888 7.03105 164.675 7.04587 164.468C7.09034 163.899 7.13481 163.331 7.18422 162.767C7.23857 162.104 7.29786 161.437 7.36209 160.789C7.42633 160.142 7.4955 159.351 7.56962 158.634C7.64373 157.917 7.7129 157.19 7.7969 156.473C7.8809 155.756 7.95501 155.039 8.04395 154.327C8.13289 153.615 8.21195 152.893 8.30583 152.181C8.37994 151.588 8.45899 151 8.53805 150.407C8.65169 149.571 8.77028 148.73 8.89874 147.9C8.89874 147.776 8.93333 147.648 8.95309 147.529C9.85492 141.448 11.0837 135.421 12.6341 129.473L56.9845 129.453Z" fill="white"/>
<path opacity="0.1" d="M6.83834 167.212H56.9845V235.605H10.5095C10.386 236.307 10.2674 237.014 10.1389 237.721H56.9845V292.878C56.9005 292.853 56.8264 292.824 56.7474 292.794C55.4232 292.27 54.1089 291.716 52.7946 291.123L51.9546 290.742C50.637 290.119 49.3194 289.46 48.0018 288.764C47.5423 288.522 47.0828 288.27 46.6282 288.013C39.3135 283.913 32.6684 278.717 26.9235 272.607C26.7555 272.444 26.5974 272.271 26.4294 272.112C25.629 271.242 24.8433 270.362 24.0824 269.462L23.2424 268.473C22.3432 267.371 21.4736 266.239 20.6287 265.092C20.5051 264.924 20.3865 264.755 20.2581 264.597C16.8219 259.83 13.9687 254.668 11.7596 249.221C11.6904 249.058 11.6311 248.88 11.5669 248.726C10.8883 246.98 10.2872 245.216 9.76341 243.436C9.53612 242.69 9.31872 241.953 9.13096 241.177C9.06178 240.949 9.00249 240.727 8.94814 240.504C6.14165 229.543 5.81061 218.157 5.81061 206.849C5.81061 205.529 5.81061 204.204 5.81061 202.894C5.81061 198.321 5.86496 193.718 5.94402 189.12C5.94402 187.928 5.99342 186.741 6.01813 185.545C6.0873 182.509 6.18612 179.473 6.31459 176.438C6.34424 175.592 6.38376 174.752 6.42823 173.911C6.42823 173.427 6.45294 172.942 6.50235 172.458C6.62093 170.698 6.71975 168.952 6.83834 167.212Z" fill="white"/>
<path opacity="0.1" d="M106.661 103.472V165.096H68.9565V103.472H74.3324V82.6074H96.3988V103.472H106.661Z" fill="white"/>
<path opacity="0.1" d="M106.661 167.207H68.9615V235.6H106.661V167.207Z" fill="white"/>
<path opacity="0.1" d="M68.9565 237.721H106.661V294.579C102.214 295.857 97.6814 296.821 93.0983 297.461L91.9717 297.6C91.4183 297.664 90.8699 297.718 90.3264 297.773C89.7828 297.827 89.2196 297.867 88.6711 297.901H88.4982C88.261 297.901 88.0041 297.931 87.7719 297.936H87.5199C87.2234 297.936 86.927 297.965 86.6305 297.975C86.2105 298 85.7905 298.005 85.3607 298.01C85.1778 298.01 85.0049 298.01 84.8221 298.01C84.3972 298.01 83.9772 298.01 83.5522 298.01H82.6184C82.3664 298.01 82.1243 298.01 81.8624 298.01L80.9088 297.975C80.4147 297.975 79.8811 297.921 79.3672 297.886L78.4185 297.817L77.2377 297.708C76.4076 297.634 75.5824 297.54 74.7672 297.427L73.779 297.288L73.2849 297.219C72.4597 297.09 71.6444 296.952 70.8144 296.794C70.2066 296.69 69.6038 296.561 68.9911 296.438L68.9565 237.721Z" fill="white"/>
<path opacity="0.1" d="M342.352 96.1934H311.263V165.09H342.352V96.1934Z" fill="white"/>
<path opacity="0.1" d="M342.357 167.207V235.605H188.044V206.103H270.238V223.506H311.263V167.207H342.357Z" fill="white"/>
<path opacity="0.1" d="M342.846 311.053H342.352V355.921C336.785 355.45 331.235 354.809 325.701 353.998C300.786 350.348 276.499 343.256 253.532 332.926C246.902 329.939 240.406 326.679 234.045 323.146C223.42 317.256 213.241 310.595 203.589 303.216C201.164 301.357 198.771 299.455 196.41 297.511C194.774 296.161 193.149 294.776 191.503 293.432C190.362 292.507 189.211 291.597 188.044 290.727V237.721H310.853C310.769 237.404 310.685 237.088 310.596 236.776C310.69 237.088 310.779 237.404 310.863 237.721H342.352V311.023C342.52 311.028 342.683 311.043 342.846 311.053Z" fill="white"/>
<path opacity="0.1" d="M423.434 91.062H403.176V84.7631H412.257V66C413.044 66.2868 413.828 66.5818 414.609 66.885V84.7631H423.434V91.062Z" fill="white"/>
<path opacity="0.1" d="M472.241 165.096H372.788C372.788 165.096 372.788 165.096 372.823 165.12L372.778 165.096H354.329V96.1986H359.556V147.124H383.446V116.964H403.18V93.1777H423.439V116.984H443.173V147.143H472.241V165.096Z" fill="white"/>
<path opacity="0.1" d="M354.329 167.207V235.605H472.241V167.207H354.329ZM504.249 316.116L504.412 261.977H472.241V237.75H354.329V356.658C363.996 357.064 373.678 356.949 383.332 356.312H383.5C388.112 356.022 392.702 355.6 397.271 355.046H397.375C421.749 352.207 445.582 345.844 468.13 336.154" fill="white"/>
<path opacity="0.1" d="M518.474 237.721H545.98C545.738 251.609 542.951 265.25 536.854 277.848C531.78 288.314 524.729 297.466 516.398 305.461V261.952H518.474V237.721Z" fill="white"/>
<path opacity="0.1" d="M545.995 235.605H518.474V178.445H533.366C541.074 196.467 545.97 216.243 545.995 235.605Z" fill="white"/>
<path opacity="0.1" d="M342.357 115.348H325.701V136.949H342.357V115.348Z" fill="white"/>
<path opacity="0.1" d="M342.357 160.122H325.701V165.096H342.357V160.122Z" fill="white"/>
<path opacity="0.1" d="M342.357 167.207H325.701V181.718H342.357V167.207Z" fill="white"/>
<path opacity="0.1" d="M342.357 204.896H325.701V226.498H342.357V204.896Z" fill="white"/>
<path opacity="0.1" d="M342.357 249.671H325.701V271.272H342.357V249.671Z" fill="white"/>
<path opacity="0.1" d="M342.352 311.023C342.52 311.023 342.683 311.023 342.846 311.053H342.352V316.071H325.701V294.445H342.352V311.023Z" fill="white"/>
<path opacity="0.1" d="M342.352 339.21V355.897C336.785 355.425 331.235 354.784 325.701 353.973V339.21H342.352Z" fill="white"/>
<path opacity="0.1" d="M259.427 234.018H188.044V235.605H259.427V234.018Z" fill="white"/>
<path opacity="0.1" d="M259.427 237.716H188.044V243.797H259.427V237.716Z" fill="white"/>
<path opacity="0.1" d="M259.427 263.732H188.044V273.512H259.427V263.732Z" fill="white"/>
<path opacity="0.1" d="M259.422 293.446V303.226H203.589C201.164 301.373 198.77 299.472 196.405 297.52C194.769 296.171 193.149 294.786 191.498 293.446H259.422Z" fill="white"/>
<path opacity="0.1" d="M259.422 323.155V332.925H253.528C246.903 329.936 240.409 326.674 234.045 323.141L259.422 323.155Z" fill="white"/>
<path opacity="0.1" d="M397.39 173.837H383.337V187.898H397.39V173.837Z" fill="white"/>
<path opacity="0.1" d="M93.1329 108.322H79.0807V122.383H93.1329V108.322Z" fill="white"/>
<path opacity="0.1" d="M93.1329 140.983H79.0807V155.045H93.1329V140.983Z" fill="white"/>
<path opacity="0.1" d="M93.1329 173.645H79.0807V187.706H93.1329V173.645Z" fill="white"/>
<path opacity="0.1" d="M93.1329 206.301H79.0807V220.362H93.1329V206.301Z" fill="white"/>
<path opacity="0.1" d="M93.1329 238.962H79.0807V253.023H93.1329V238.962Z" fill="white"/>
<path opacity="0.1" d="M93.1329 271.623H79.0807V285.684H93.1329V271.623Z" fill="white"/>
<path opacity="0.1" d="M451.034 173.837H436.982V187.898H451.034V173.837Z" fill="white"/>
<path opacity="0.1" d="M397.39 208.521H383.337V222.582H397.39V208.521Z" fill="white"/>
<path opacity="0.1" d="M451.034 208.521H436.982V222.582H451.034V208.521Z" fill="white"/>
<path opacity="0.1" d="M397.39 243.199H383.337V257.26H397.39V243.199Z" fill="white"/>
<path opacity="0.1" d="M451.034 243.199H436.982V257.26H451.034V243.199Z" fill="white"/>
<path opacity="0.1" d="M397.39 277.882H383.337V291.943H397.39V277.882Z" fill="white"/>
<path opacity="0.1" d="M451.034 277.882H436.982V291.943H451.034V277.882Z" fill="white"/>
<path opacity="0.1" d="M397.39 312.565H383.337V326.627H397.39V312.565Z" fill="white"/>
<path opacity="0.1" d="M451.034 312.565H436.982V326.627H451.034V312.565Z" fill="white"/>
<path opacity="0.1" d="M383.337 356.312V347.244H397.385V355.021L383.337 356.312Z" fill="white"/>
<path opacity="0.1" d="M8.8938 147.52V155.564H56.9845V147.52H8.8938ZM13.6866 155.059H9.76342V148.014H13.7162L13.6866 155.059ZM18.4744 155.059H14.5216V148.014H18.4744V155.059ZM23.2523 155.059H19.2995V148.014H23.2523V155.059ZM28.0402 155.059H24.0923V148.014H28.0451L28.0402 155.059ZM32.823 155.059H28.8703V148.014H32.823V155.059ZM37.6109 155.059H33.6581V148.014H37.6109V155.059ZM42.3987 155.059H38.4459V148.014H42.3987V155.059ZM47.1816 155.059H43.2288V148.014H47.1816V155.059ZM51.9645 155.059H48.0117V148.014H51.9645V155.059ZM56.7474 155.059H52.7946V148.014H56.7474V155.059Z" fill="white"/>
<path opacity="0.1" d="M8.8938 170.925V178.969H56.9845V170.925H8.8938ZM13.6866 178.46H9.76342V171.434H13.7162L13.6866 178.46ZM18.4744 178.46H14.5216V171.434H18.4744V178.46ZM23.2523 178.46H19.2995V171.434H23.2523V178.46ZM28.0402 178.46H24.0923V171.434H28.0451L28.0402 178.46ZM32.823 178.46H28.8703V171.434H32.823V178.46ZM37.6109 178.46H33.6581V171.434H37.6109V178.46ZM42.3987 178.46H38.4459V171.434H42.3987V178.46ZM47.1816 178.46H43.2288V171.434H47.1816V178.46ZM51.9645 178.46H48.0117V171.434H51.9645V178.46ZM56.7474 178.46H52.7946V171.434H56.7474V178.46Z" fill="white"/>
<path opacity="0.1" d="M8.8938 194.341V202.4H56.9845V194.341H8.8938ZM13.6866 201.876H9.76342V194.845H13.7162L13.6866 201.876ZM18.4744 201.876H14.5216V194.845H18.4744V201.876ZM23.2523 201.876H19.2995V194.845H23.2523V201.876ZM28.0402 201.876H24.0923V194.845H28.0451L28.0402 201.876ZM32.823 201.876H28.8703V194.845H32.823V201.876ZM37.6109 201.876H33.6581V194.845H37.6109V201.876ZM42.3987 201.876H38.4459V194.845H42.3987V201.876ZM47.1816 201.876H43.2288V194.845H47.1816V201.876ZM51.9645 201.876H48.0117V194.845H51.9645V201.876ZM56.7474 201.876H52.7946V194.845H56.7474V201.876Z" fill="white"/>
<path opacity="0.1" d="M8.8938 217.756V225.79H56.9845V217.756H8.8938ZM13.6866 225.291H9.76342V218.255H13.7162L13.6866 225.291ZM18.4744 225.291H14.5216V218.255H18.4744V225.291ZM23.2523 225.291H19.2995V218.255H23.2523V225.291ZM28.0402 225.291H24.0923V218.255H28.0451L28.0402 225.291ZM32.823 225.291H28.8703V218.255H32.823V225.291ZM37.6109 225.291H33.6581V218.255H37.6109V225.291ZM42.3987 225.291H38.4459V218.255H42.3987V225.291ZM47.1816 225.291H43.2288V218.255H47.1816V225.291ZM51.9645 225.291H48.0117V218.255H51.9645V225.291ZM56.7474 225.291H52.7946V218.255H56.7474V225.291Z" fill="white"/>
<path opacity="0.1" d="M9.10132 241.167C9.29402 241.923 9.51142 242.68 9.7387 243.426V241.671H13.6915V248.702H11.5768C11.641 248.865 11.7052 249.043 11.7695 249.196H56.9845V241.167H9.10132ZM18.4892 248.702H14.5364V241.671H18.4892V248.702ZM23.2672 248.702H19.3144V241.671H23.2672V248.702ZM28.055 248.702H24.0923V241.671H28.0451L28.055 248.702ZM32.8379 248.702H28.8851V241.671H32.8379V248.702ZM37.6257 248.702H33.6729V241.671H37.6257V248.702ZM42.4135 248.702H38.4607V241.671H42.4135V248.702ZM47.1964 248.702H43.2436V241.671H47.1964V248.702ZM51.9793 248.702H48.0265V241.671H51.9793V248.702ZM56.7622 248.702H52.8094V241.671H56.7622V248.702Z" fill="white"/>
<path opacity="0.1" d="M20.268 264.582C20.3915 264.74 20.5101 264.918 20.6385 265.076H23.2523V268.453C23.534 268.789 23.8107 269.126 24.0972 269.442V265.057H28.05V272.112H26.4492C26.6073 272.275 26.7604 272.448 26.9433 272.606H56.9994V264.582H20.268ZM32.823 272.112H28.8702V265.086H32.823V272.112ZM37.6109 272.112H33.6581V265.086H37.6109V272.112ZM42.3987 272.112H38.4459V265.086H42.3987V272.112ZM47.1816 272.112H43.2288V265.086H47.1816V272.112ZM51.9645 272.112H48.0117V265.086H51.9645V272.112ZM56.7474 272.112H52.7946V265.086H56.7474V272.112Z" fill="white"/>
<path opacity="0.1" d="M46.6479 287.993C47.0976 288.25 47.5571 288.488 48.0215 288.745V288.497H51.9743V290.722L52.8143 291.113V288.497H56.7671V292.774C56.8429 292.812 56.9224 292.842 57.0043 292.863V287.993H46.6479Z" fill="white"/>
<path opacity="0.1" d="M310.596 236.771C310.69 237.088 310.769 237.404 310.858 237.716C310.779 237.404 310.695 237.088 310.596 236.771ZM74.3521 91.0469V93.158H96.4235V91.0469H74.3521ZM310.596 236.771C310.69 237.088 310.769 237.404 310.858 237.716C310.779 237.404 310.695 237.088 310.596 236.771ZM310.596 236.771C310.69 237.088 310.769 237.404 310.858 237.716C310.779 237.404 310.695 237.088 310.596 236.771Z" fill="white"/>
<path d="M228.076 187.716C228.076 187.716 226.13 187.444 226.13 184.606C226.13 181.768 224.736 176.468 224.736 176.468C224.736 176.443 223.531 167.237 221.866 165.773C220.2 164.31 218.061 155.717 218.061 155.717C218.061 155.717 217.695 151.055 216.949 150.051C216.203 149.047 215.195 146.59 213.708 143.085C212.221 139.579 206.02 137.152 206.02 137.152C206.02 137.152 194.809 130.645 191.632 128.524C191.343 128.35 191.073 128.146 190.826 127.916C190.273 127.189 187.862 127.174 187.862 127.174C187.61 125.582 187.368 123.753 187.289 122.097C187.289 121.919 187.288 121.741 187.264 121.563C190.806 119.467 193.475 116.163 194.779 112.258C194.838 112.07 194.888 111.872 194.942 111.684C195.154 111.614 195.35 111.501 195.516 111.351C195.682 111.201 195.814 111.018 195.906 110.814C196.192 110.176 196.197 109.43 196.553 108.836C196.968 108.134 197.758 107.758 198.381 107.229C199.952 105.894 200.357 103.645 200.283 101.598C200.234 99.9417 199.967 98.2705 200.071 96.6241L200.101 96.2088C200.13 95.9616 200.165 95.7144 200.209 95.4771C200.451 94.2509 200.98 93.094 201.276 91.8777C201.573 90.6615 201.603 89.2919 200.911 88.2438C199.898 86.7061 197.788 86.3996 195.935 86.2414C193.835 86.0634 191.958 86.2958 190.614 84.5505C189.985 83.6383 189.277 82.783 188.499 81.9943C188.222 81.7372 185.534 80.0958 185.534 79.987C182.911 78.7712 179.937 78.543 177.159 79.3443C175.766 79.7497 174.452 80.4122 173.039 80.7435C169.99 81.4653 166.482 80.6841 163.893 82.4294C162.45 83.4183 161.585 84.9905 160.775 86.5232C160.116 87.7856 159.448 89.0464 158.769 90.3055C157.677 92.3771 156.565 94.4833 156.106 96.7774C156.009 97.2766 155.95 97.7823 155.928 98.2903V98.3151C155.928 98.498 155.928 98.6809 155.928 98.8638V99.0962C155.928 99.2693 155.928 99.4374 155.958 99.5906C155.987 99.7439 155.982 99.7934 155.997 99.8972C156.012 100.001 156.037 100.233 156.066 100.392C156.096 100.55 156.155 100.827 156.215 101.044C156.239 101.138 156.274 101.227 156.304 101.316C156.353 101.484 156.412 101.647 156.476 101.811C156.511 101.895 156.546 101.984 156.585 102.068C156.659 102.241 156.748 102.409 156.837 102.562C156.877 102.631 156.906 102.696 156.946 102.76C157.084 102.99 157.235 103.211 157.4 103.422C158.458 104.742 160.014 105.583 161.165 106.819C161.165 106.868 161.165 106.918 161.165 106.962C161.165 107.101 161.165 107.234 161.165 107.373C161.227 110.129 161.96 112.829 163.301 115.238C164.643 117.646 166.552 119.69 168.864 121.192C168.864 121.38 168.888 121.572 168.898 121.76C168.994 123.228 168.976 124.701 168.844 126.166C168.643 125.928 168.391 125.74 168.107 125.613C167.823 125.486 167.514 125.425 167.203 125.434C166.991 125.423 166.778 125.442 166.571 125.488L166.526 125.454V125.498C165.439 125.765 164.1 126.897 162.821 130.116C162.821 130.116 158.927 134.506 155.963 134.323C152.998 134.141 145.493 138.892 145.493 138.892C145.493 138.892 138.17 143.648 136.599 148.493C135.721 151.241 134.668 153.929 133.446 156.543L124.395 175.207L122.724 190.015C122.724 190.015 123.648 196.6 123.466 197.604C123.283 198.608 127.265 207.66 127.265 207.66C127.265 207.66 140.423 230.794 145.799 231.981L146.184 231.709C146.414 231.829 146.658 231.92 146.911 231.981L148.017 231.2C148.084 232.07 148.056 232.945 147.933 233.81C147.192 236.094 148.21 251.001 149.505 253.923C150.799 256.845 150.34 295.157 150.34 295.157L150.157 298.539C150.157 298.539 150.157 298.648 150.201 298.836L150.157 299.637L150.29 299.706C150.429 300.779 150.384 301.867 150.157 302.925C149.692 304.408 149.505 308.6 149.505 308.6C149.505 308.6 145.804 332.273 147.558 337.029C149.312 341.786 150.804 346.997 150.804 346.997C150.804 346.997 152.657 352.93 150.893 353.944C149.129 354.957 144.114 356.658 145.147 359.13C146.086 361.414 149.648 367.535 150.177 368.43L150.132 368.9L149.406 376.776C149.523 377.816 149.805 378.83 150.241 379.782C151.036 381.497 152.583 383.277 155.523 383.084C156.017 383.05 156.59 382.991 157.143 382.916C162.524 382.194 169.15 379.792 169.15 379.792C168.806 379.573 168.491 379.312 168.211 379.015C167.947 378.759 167.737 378.451 167.595 378.111C167.454 377.771 167.382 377.406 167.386 377.038C167.465 375.604 164.782 368.771 164.115 367.09C164.011 366.848 163.957 366.709 163.957 366.709C163.957 366.709 170.074 360.312 169.056 354.641C169.056 354.641 162.287 350.685 164.515 348.515C166.744 346.344 170.726 340.11 170.726 340.11C170.726 340.11 170.909 316.798 170.726 313.317C170.536 310.901 170.65 308.471 171.067 306.084C171.141 305.723 171.23 305.372 171.324 305.026C174.406 305.486 177.517 305.723 180.633 305.733C181.769 305.733 182.926 305.733 184.092 305.664C184.092 305.993 184.107 306.349 184.136 306.732C184.393 312.506 184.872 322.632 185.263 326.395C185.816 331.789 188.875 346.325 188.875 346.325C188.875 346.325 183.039 350.072 189.892 359.308C189.892 359.308 189.892 362.655 189.438 363.14C188.953 364.724 188.562 366.335 188.267 367.965C187.98 369.706 187.862 371.466 188.326 372.38C189.438 374.566 196.108 374.388 196.108 374.388L196.271 374.358C197.531 374.228 198.803 374.349 200.015 374.715C201.227 375.081 202.355 375.684 203.332 376.489C205.867 378.526 215.487 377.631 220.695 376.983C222.735 376.726 224.099 376.489 224.099 376.489C224.165 376.258 224.188 376.017 224.168 375.777C224.114 374.496 223.111 371.688 216.312 369.181C216.312 369.181 209.918 364.88 210.007 361.132H209.874H209.133C209.671 361.103 210.017 361.132 210.017 361.132C210.017 361.132 207.512 351.986 208.535 351.244C209.558 350.502 206.494 340.367 206.494 340.367C206.494 340.367 204.74 323.359 204.646 322.167C204.65 321.145 204.805 320.129 205.106 319.151L204.646 309.827C204.646 309.827 204.557 306.727 204.646 305.718C204.631 304.843 204.56 303.969 204.434 303.103C204.389 302.756 204.345 302.396 204.295 302.04C206.692 301.431 208.248 300.868 208.248 300.868L207.972 268.409C210.007 264.454 210.383 255.777 210.373 249.621C210.373 245.666 210.195 242.739 210.195 242.739L212.977 238.196C212.977 238.196 213.619 232.757 212.601 231.565C212.152 231.026 212.354 230.468 212.725 230.008C212.917 229.855 213.12 229.716 213.332 229.593C213.332 229.593 213.303 229.548 213.268 229.484C213.463 229.322 213.669 229.174 213.886 229.044C213.886 229.044 212.898 227.511 213.782 226.863C214.612 227.427 215.353 227.852 215.917 228.198C215.877 228.559 215.838 228.767 215.838 228.767L216.075 228.273C216.618 228.579 216.949 228.767 216.949 228.767C216.949 228.767 221.307 220.08 221.213 218.8C221.12 217.519 224.178 212.125 224.178 212.125C224.178 212.125 224.549 209.292 226.219 208.105C227.889 206.919 227.513 198.321 227.513 198.321C227.513 198.321 227.978 193.841 229.089 192.012C230.201 190.183 228.076 187.716 228.076 187.716ZM144.692 183.904L144.776 185.975C144.282 185.179 143.926 184.606 143.926 184.606L144.692 183.904Z" fill="url(#paint0_linear_539_2255)"/>
<path d="M217.186 225.014L216.119 229.563C216.119 229.563 207.571 225.197 206.03 219.65C204.488 214.102 208.609 211.996 208.609 211.996L216.574 215.373L217.186 225.014Z" fill="white"/>
<path opacity="0.1" d="M217.186 225.014L216.119 229.563C216.119 229.563 207.571 225.197 206.03 219.65C204.488 214.102 208.609 211.996 208.609 211.996L216.574 215.373L217.186 225.014Z" fill="black"/>
<path d="M169.214 379.821C169.214 379.821 161.309 382.728 155.874 383.094C152.988 383.287 151.471 381.517 150.691 379.811C150.264 378.863 149.989 377.854 149.875 376.82L150.582 368.984L150.957 364.811L162.504 361.81L164.14 366.813L164.293 367.194C164.95 368.865 167.584 375.663 167.505 377.082C167.502 377.445 167.572 377.806 167.711 378.141C167.85 378.477 168.056 378.781 168.315 379.035C168.58 379.334 168.882 379.598 169.214 379.821Z" fill="white"/>
<path d="M223.215 375.836C223.234 376.074 223.211 376.313 223.145 376.543C223.145 376.543 206.237 379.366 202.779 376.543C201.803 375.718 200.667 375.106 199.441 374.747C198.216 374.388 196.929 374.289 195.664 374.456C195.664 374.456 189.122 374.634 188.03 372.479C187.575 371.574 187.694 369.819 187.975 368.088C188.263 366.467 188.645 364.864 189.122 363.287L189.383 363.08L190.94 361.829L209.162 361.29H209.301C209.212 365.018 215.487 369.295 215.487 369.295C222.152 371.767 223.135 374.56 223.215 375.836Z" fill="white"/>
<path opacity="0.1" d="M223.215 375.836C223.232 376.075 223.207 376.314 223.14 376.543C223.14 376.543 206.237 379.367 202.779 376.543C201.804 375.719 200.668 375.108 199.444 374.749C198.219 374.389 196.933 374.29 195.668 374.457C195.668 374.457 189.122 374.635 188.035 372.479C187.58 371.57 187.694 369.819 187.975 368.089C190.495 368.341 194.473 368.969 196.034 370.467C198.396 372.746 202.398 375.021 204.854 375.199C206.776 375.322 218.274 375.688 223.215 375.836Z" fill="black"/>
<path opacity="0.1" d="M169.214 379.821C169.214 379.821 161.309 382.728 155.874 383.094C152.988 383.287 151.471 381.517 150.695 379.806C152.706 380.483 155.498 381.195 156.966 380.543C158.705 379.772 164.871 379.272 168.33 379.06C168.593 379.348 168.89 379.604 169.214 379.821Z" fill="black"/>
<path d="M180.944 145.542C174.422 143.006 166.032 134.625 168.127 130.709C168.593 129.721 168.869 128.655 168.943 127.565C169.077 126.085 169.097 124.598 169.002 123.115C168.855 120.687 168.563 118.27 168.127 115.877C168.127 115.877 188.489 116.337 187.303 119.338C186.957 120.218 186.903 121.746 186.997 123.456C187.091 125.167 187.338 127.1 187.595 128.737C187.951 130.981 188.306 132.692 188.306 132.692C188.306 132.692 187.061 134.437 186.33 134.531C185.599 134.625 190.303 149.156 180.944 145.542Z" fill="#CF6F80"/>
<path opacity="0.1" d="M164.278 367.194L164.125 367.362C158.038 359.995 150.676 369.176 150.676 369.176L150.567 368.984L150.943 364.811L162.49 361.81L164.125 366.813L164.278 367.194Z" fill="black"/>
<path opacity="0.1" d="M209.306 361.809C209.306 361.809 204.859 361.715 202.487 363.812C200.115 365.908 188.652 364.267 189.146 363.812C189.293 363.586 189.381 363.328 189.403 363.06L190.96 361.809L209.182 361.271C209.251 361.602 209.306 361.809 209.306 361.809Z" fill="black"/>
<path d="M171.853 303.958C171.522 304.777 171.27 305.627 171.102 306.494C170.69 308.871 170.575 311.289 170.761 313.693C170.944 317.154 170.761 340.347 170.761 340.347C170.761 340.347 166.853 346.532 164.674 348.713C162.495 350.893 169.12 354.809 169.12 354.809C170.109 360.445 164.12 366.813 164.12 366.813C158.033 359.447 150.671 368.633 150.671 368.633C150.671 368.633 146.669 361.711 145.67 359.239C144.672 356.767 149.579 355.056 151.303 354.052C153.028 353.049 151.219 347.131 151.219 347.131C151.219 347.131 149.762 341.944 148.032 337.213C146.303 332.481 149.94 308.927 149.94 308.927C149.94 308.927 150.127 304.744 150.577 303.286C150.804 302.233 150.849 301.15 150.71 300.082C150.681 299.721 150.646 299.419 150.621 299.217C150.597 299.014 150.577 298.92 150.577 298.92L150.646 298.801L153.117 294.193C153.117 294.193 173.039 301.056 171.853 303.958Z" fill="white"/>
<path d="M209.306 361.266C209.306 361.266 204.859 361.172 202.487 363.243C200.115 365.315 188.652 363.698 189.146 363.243C189.64 362.788 189.601 359.421 189.601 359.421C182.876 350.235 188.613 346.507 188.613 346.507C188.613 346.507 185.609 332.045 185.065 326.681C184.685 322.933 184.215 312.862 183.963 307.112C183.855 304.64 183.79 302.939 183.79 302.939L189.285 301.832L189.991 301.688L203.243 299.028C203.243 299.028 203.609 301.5 203.856 303.523C203.979 304.386 204.048 305.256 204.063 306.128C203.974 307.117 204.063 310.212 204.063 310.212L204.513 319.492C204.219 320.466 204.068 321.477 204.063 322.493C204.152 323.675 205.877 340.594 205.877 340.594C205.877 340.594 208.876 350.69 207.853 351.417C206.83 352.144 209.306 361.266 209.306 361.266Z" fill="white"/>
<path opacity="0.1" d="M187.303 119.338C186.957 120.218 186.903 121.746 186.997 123.456C184.27 125.1 181.134 125.94 177.951 125.881C174.768 125.821 171.666 124.864 169.002 123.12C168.855 120.69 168.563 118.272 168.127 115.877C168.127 115.877 188.489 116.327 187.303 119.338Z" fill="black"/>
<path d="M195.174 108.411C195.178 110.193 194.898 111.964 194.344 113.657C193.106 117.451 190.568 120.685 187.178 122.787C183.787 124.89 179.763 125.725 175.817 125.146C171.871 124.567 168.256 122.61 165.612 119.622C162.968 116.634 161.465 112.807 161.368 108.817C161.368 108.678 161.368 108.55 161.368 108.411C161.33 106.165 161.739 103.934 162.571 101.848C163.403 99.7624 164.642 97.8631 166.216 96.2613C167.79 94.6595 169.666 93.3872 171.737 92.5188C173.807 91.6504 176.029 91.2031 178.274 91.2031C180.518 91.2031 182.741 91.6504 184.811 92.5188C186.881 93.3872 188.758 94.6595 190.331 96.2613C191.905 97.8631 193.144 99.7624 193.976 101.848C194.809 103.934 195.218 106.165 195.179 108.411H195.174Z" fill="#CF6F80"/>
<path opacity="0.1" d="M180.944 145.541C174.422 143.005 166.032 134.625 168.127 130.709C168.593 129.721 168.869 128.654 168.943 127.564L177.871 134.907L183.395 139.44L187.595 128.741C187.951 130.986 188.306 132.696 188.306 132.696C188.306 132.696 187.061 134.442 186.33 134.536C185.599 134.63 190.303 149.156 180.944 145.541Z" fill="black"/>
<path d="M204.034 177.99L196.578 303.325L186.854 303.963L161.674 231.288L165.805 145.007L166.675 126.778L177.871 135.979L183.4 140.513L187.723 129.503L195.762 136.513L204.034 177.99Z" fill="white"/>
<path opacity="0.1" d="M171.853 303.958C171.522 304.777 171.27 305.626 171.102 306.494C164.026 305.401 157.154 303.253 150.715 300.121L150.582 300.052L150.626 299.256L150.651 298.84L153.122 294.232C153.122 294.232 173.039 301.055 171.853 303.958Z" fill="black"/>
<path opacity="0.1" d="M189.398 306.514C187.59 306.822 185.765 307.03 183.934 307.137C183.825 304.665 183.761 302.964 183.761 302.964L189.255 301.856L189.398 306.514Z" fill="black"/>
<path opacity="0.1" d="M203.826 303.547C200.313 304.462 194.888 305.49 190.031 304.847L189.962 301.713L203.213 299.053C203.213 299.053 203.579 301.5 203.826 303.547Z" fill="black"/>
<path opacity="0.1" d="M189.942 305.421C169.684 308.882 151.13 298.959 151.13 298.959L151.308 295.597C151.308 295.597 151.768 257.483 150.493 254.561C149.218 251.639 148.225 236.821 148.946 234.547C149.668 232.273 146.313 198.168 146.313 198.168L145.769 184.324L125.877 176.26L134.771 157.709C135.972 155.109 137.005 152.433 137.864 149.7C139.41 144.884 146.589 140.153 146.589 140.153C146.589 140.153 153.952 135.426 156.862 135.604C159.772 135.782 163.587 131.421 163.587 131.421C166.403 124.237 168.952 127.491 168.952 127.491C168.952 127.832 168.952 127.491 168.814 128.554C167.826 136.44 184.793 161.358 185.035 161.798L186.651 201.184L188.287 251.026L189.942 305.421Z" fill="black"/>
<path d="M189.398 305.421C169.14 308.882 150.582 298.959 150.582 298.959L150.765 295.597C150.765 295.597 151.224 257.482 149.944 254.56C148.665 251.638 147.677 236.821 148.403 234.546C149.129 232.272 145.769 198.167 145.769 198.167L145.221 184.323L125.319 176.23L134.212 157.679C135.411 155.077 136.444 152.402 137.305 149.67C138.847 144.854 146.031 140.122 146.031 140.122C146.031 140.122 153.393 135.396 156.299 135.574C159.204 135.752 163.023 131.391 163.023 131.391C165.845 124.207 168.952 127.46 168.952 127.46C168.952 127.802 168.656 127.955 168.814 128.523C170.988 136.172 184.25 161.328 184.492 161.768L186.127 201.153L187.763 250.995L189.398 305.421Z" fill="white"/>
<path opacity="0.1" d="M183.939 162.891C181.76 161.981 170.217 148.795 170.217 148.795V145.794C169.797 144.805 167.302 145.408 165.276 146.1L166.146 127.871L167.134 128.692C169.298 136.336 183.687 162.451 183.939 162.891Z" fill="black"/>
<path d="M184.487 161.798C182.303 160.888 170.761 147.702 170.761 147.702V144.701C170.341 143.712 167.846 144.315 165.82 145.007L166.694 126.778L167.683 127.599C169.852 135.243 184.245 161.363 184.487 161.798Z" fill="white"/>
<path opacity="0.1" d="M151.13 227.56C151.402 227.56 165.217 226.106 165.217 226.106C165.217 226.106 173.582 242.566 173.034 246.57C172.485 250.575 171.492 254.12 168.127 253.492C164.763 252.864 150.019 253.987 150.019 253.987L151.13 227.56Z" fill="black"/>
<path d="M150.582 226.467C150.854 226.467 164.669 225.014 164.669 225.014C164.669 225.014 173.029 241.478 172.485 245.478C171.942 249.477 170.939 253.027 167.579 252.399C164.219 251.772 149.47 252.894 149.47 252.894L150.582 226.467Z" fill="white"/>
<path d="M160.993 218.74C160.993 218.74 173.671 225.558 173.943 227.64C174.215 229.721 167.49 226.73 166.037 226.369C165.081 226.139 164.108 225.986 163.127 225.914L153.438 226.176L160.993 218.74Z" fill="#CF6F80"/>
<path opacity="0.1" d="M180.401 163.741C181.138 163.741 181.735 163.143 181.735 162.406C181.735 161.669 181.138 161.071 180.401 161.071C179.664 161.071 179.067 161.669 179.067 162.406C179.067 163.143 179.664 163.741 180.401 163.741Z" fill="black"/>
<path d="M180.401 163.197C181.138 163.197 181.735 162.6 181.735 161.862C181.735 161.125 181.138 160.527 180.401 160.527C179.664 160.527 179.067 161.125 179.067 161.862C179.067 162.6 179.664 163.197 180.401 163.197Z" fill="#3F3D56"/>
<path opacity="0.1" d="M182.856 221.528C183.593 221.528 184.191 220.931 184.191 220.193C184.191 219.456 183.593 218.858 182.856 218.858C182.12 218.858 181.522 219.456 181.522 220.193C181.522 220.931 182.12 221.528 182.856 221.528Z" fill="black"/>
<path d="M182.856 220.979C183.593 220.979 184.191 220.382 184.191 219.645C184.191 218.907 183.593 218.31 182.856 218.31C182.12 218.31 181.522 218.907 181.522 219.645C181.522 220.382 182.12 220.979 182.856 220.979Z" fill="#3F3D56"/>
<path opacity="0.1" d="M181.73 192.635C182.467 192.635 183.064 192.037 183.064 191.3C183.064 190.563 182.467 189.965 181.73 189.965C180.993 189.965 180.396 190.563 180.396 191.3C180.396 192.037 180.993 192.635 181.73 192.635Z" fill="black"/>
<path d="M181.73 192.091C182.467 192.091 183.064 191.493 183.064 190.756C183.064 190.019 182.467 189.421 181.73 189.421C180.993 189.421 180.396 190.019 180.396 190.756C180.396 191.493 180.993 192.091 181.73 192.091Z" fill="#3F3D56"/>
<path d="M212.483 225.637C212.483 225.637 213.392 227.001 212.483 227.639C211.574 228.277 212.572 229.82 212.572 229.82C212.572 229.82 210.304 231.15 211.302 232.346C212.3 233.543 211.667 238.947 211.667 238.947L208.94 243.466C208.94 243.466 209.103 246.378 209.113 250.313C209.113 256.454 208.752 265.086 206.756 269.022L207.033 301.312C207.033 301.312 197.482 304.803 189.487 303.74L188.301 251.925C188.301 251.925 190.031 222.542 190.668 216.905C191.041 213.979 191.193 211.029 191.123 208.08C191.123 208.08 190.851 199.26 189.937 195.166C189.937 195.166 188.949 177.431 188.85 172.522C188.805 170.173 188.929 163.321 189.067 156.804C189.22 149.68 189.393 142.96 189.393 142.96L187.59 128.682C187.59 128.682 189.393 128.499 189.937 129.226C190.18 129.453 190.445 129.657 190.727 129.834C193.84 131.94 204.839 138.417 204.839 138.417C204.839 138.417 210.926 140.839 212.384 144.31C213.841 147.781 214.854 150.243 215.561 151.232C216.267 152.221 216.653 156.868 216.653 156.868C216.653 156.868 218.748 165.422 220.383 166.87C222.019 168.319 223.215 177.535 223.215 177.535L208.762 188.907C208.762 188.907 207.492 207.823 207.22 208.555C206.949 209.286 212.483 225.637 212.483 225.637Z" fill="white"/>
<path d="M213.031 225.637C213.031 225.637 213.935 227.002 213.031 227.639C212.127 228.277 213.115 229.82 213.115 229.82C213.115 229.82 210.862 231.165 211.85 232.361C212.838 233.558 212.216 238.962 212.216 238.962L209.488 243.481C209.488 243.481 209.651 246.393 209.666 250.328C209.666 256.469 209.306 265.101 207.309 269.037L207.581 301.327C207.581 301.327 198.015 304.818 190.031 303.755L188.85 251.94C188.85 251.94 190.579 222.557 191.217 216.921C191.59 213.994 191.74 211.044 191.666 208.095C191.666 208.095 191.394 199.275 190.485 195.181C190.485 195.181 189.497 177.446 189.393 172.537C189.349 170.188 189.477 163.336 189.611 156.819C189.764 149.695 189.937 142.975 189.937 142.975L187.555 128.504C187.555 128.504 189.937 128.504 190.485 129.241C190.727 129.471 190.992 129.675 191.276 129.849C194.389 131.955 205.392 138.432 205.392 138.432C205.392 138.432 211.475 140.854 212.932 144.325C214.39 147.796 215.403 150.258 216.114 151.247C216.826 152.236 217.201 156.883 217.201 156.883C217.201 156.883 219.296 165.437 220.932 166.886C222.567 168.334 223.748 177.53 223.748 177.53L209.296 188.902C209.296 188.902 208.026 207.818 207.749 208.55C207.472 209.282 213.031 225.637 213.031 225.637Z" fill="white"/>
<path opacity="0.1" d="M195.723 147.173L197.027 150.98L190.159 157.902C190.312 150.783 190.485 144.058 190.485 144.058L188.104 129.587C188.104 129.587 190.485 129.587 191.034 130.324C191.274 130.553 191.539 130.756 191.824 130.927L197.665 147.786L195.723 147.173Z" fill="black"/>
<path d="M195.174 146.081L196.484 149.888L189.616 156.809C189.769 149.685 189.942 142.966 189.942 142.966L187.555 128.494C187.555 128.494 189.942 128.494 190.485 129.231C190.728 129.46 190.993 129.663 191.276 129.839L197.121 146.694L195.174 146.081Z" fill="white"/>
<path opacity="0.1" d="M195.174 108.411C195.178 110.193 194.898 111.964 194.344 113.657C194.251 113.672 194.156 113.667 194.064 113.644C193.972 113.621 193.886 113.58 193.811 113.524C193.682 109.074 191.493 104.896 188.8 101.341C188.044 100.268 187.128 99.3173 186.083 98.5229C185.026 97.729 183.712 97.3571 182.397 97.4797C180.915 97.6824 179.605 98.691 178.108 98.8196C176.132 98.9828 174.363 97.6132 172.401 97.544C171.604 97.5516 170.817 97.7293 170.094 98.0652C169.37 98.4011 168.727 98.8875 168.206 99.492C167.176 100.712 166.41 102.133 165.958 103.665C165.181 105.988 164.758 108.415 164.703 110.864C164.678 112.248 164.545 113.983 163.26 114.488C163.357 113.47 163.242 112.442 162.921 111.471C162.6 110.5 162.082 109.606 161.398 108.846L161.368 108.817C161.368 108.678 161.368 108.55 161.368 108.411C161.33 106.165 161.739 103.934 162.571 101.848C163.403 99.7624 164.642 97.8631 166.216 96.2613C167.79 94.6595 169.666 93.3872 171.737 92.5188C173.807 91.6504 176.029 91.2031 178.274 91.2031C180.518 91.2031 182.741 91.6504 184.811 92.5188C186.881 93.3872 188.758 94.6595 190.331 96.2613C191.905 97.8631 193.144 99.7624 193.976 101.848C194.809 103.934 195.218 106.165 195.179 108.411H195.174Z" fill="black"/>
<path d="M185.273 81.5493C182.705 80.3408 179.785 80.1122 177.061 80.9066C175.692 81.312 174.402 81.9696 173.014 82.3009C170.049 83.0178 166.591 82.2415 164.046 83.9769C162.633 84.9658 161.783 86.5281 160.993 88.046L159.016 91.8134C157.939 93.8752 156.852 95.9715 156.402 98.2409C155.953 100.51 156.224 103.052 157.662 104.876C158.71 106.206 160.256 107.041 161.393 108.292C162.074 109.053 162.59 109.947 162.91 110.916C163.229 111.886 163.345 112.912 163.251 113.929C164.54 113.434 164.664 111.694 164.693 110.31C164.748 107.861 165.171 105.434 165.948 103.111C166.399 101.578 167.165 100.157 168.197 98.938C168.718 98.334 169.361 97.8479 170.084 97.512C170.808 97.1762 171.594 96.9982 172.391 96.99C174.368 97.0592 176.142 98.4238 178.098 98.2606C179.581 98.137 180.895 97.1235 182.387 96.9257C183.703 96.8011 185.017 97.1732 186.073 97.9689C187.118 98.7621 188.033 99.7128 188.786 100.787C191.483 104.342 193.672 108.51 193.801 112.97C194.359 113.38 195.164 112.846 195.441 112.213C195.718 111.58 195.728 110.839 196.079 110.235C196.484 109.538 197.259 109.167 197.867 108.643C199.409 107.313 199.794 105.074 199.735 103.042C199.676 101.01 199.28 98.9479 199.666 96.9504C199.898 95.7243 200.422 94.5772 200.708 93.3659C200.995 92.1546 201.029 90.7949 200.353 89.7517C199.364 88.219 197.284 87.9174 195.471 87.7741C193.41 87.5961 191.567 87.8235 190.253 86.0881C189.636 85.1825 188.942 84.3322 188.178 83.5468C187.916 83.2897 185.273 81.6581 185.273 81.5493Z" fill="#512E4E"/>
<path opacity="0.1" d="M131.569 185.812L126.406 176.26L124.77 190.998C124.77 190.998 125.679 197.544 125.496 198.548C125.314 199.552 129.222 208.55 129.222 208.55C129.222 208.55 142.133 231.56 147.405 232.747L165.217 220.011L160.493 214.009C160.493 214.009 158.858 213.371 158.448 214.009C158.448 214.009 149.678 198.909 148.768 197.816C147.859 196.724 148.037 194.543 148.037 194.543C148.037 194.543 146.674 193.09 147.128 191.725C147.583 190.361 144.495 185.629 144.495 185.629L147.311 182.994L131.569 185.812Z" fill="black"/>
<path d="M126.677 175.172L125.314 176.26L123.678 190.998C123.678 190.998 124.587 197.544 124.404 198.548C124.222 199.552 128.135 208.55 128.135 208.55C128.135 208.55 141.041 231.56 146.313 232.747L164.13 220.011L159.402 214.008C159.402 214.008 157.766 213.371 157.356 214.008C157.356 214.008 148.586 198.909 147.677 197.816C146.767 196.724 146.95 194.543 146.95 194.543C146.95 194.543 145.586 193.09 146.041 191.725C146.496 190.36 143.403 185.629 143.403 185.629L146.219 182.994L126.677 175.172Z" fill="white"/>
<path opacity="0.1" d="M211.302 232.91C212.29 234.112 211.667 239.506 211.667 239.506L208.94 244.025C208.94 244.025 209.103 246.942 209.113 250.872L204.528 252.306C204.113 252.436 203.674 252.464 203.246 252.389C202.819 252.314 202.415 252.138 202.069 251.875C201.724 251.612 201.446 251.271 201.259 250.879C201.072 250.487 200.981 250.056 200.995 249.621L201.785 224.104L212.483 228.198C211.574 228.831 212.572 230.384 212.572 230.384C212.572 230.384 210.304 231.709 211.302 232.91Z" fill="black"/>
<path d="M211.85 232.361C212.838 233.563 212.216 238.962 212.216 238.962L209.488 243.481C209.488 243.481 209.651 246.393 209.666 250.328L204.997 251.787C204.591 251.913 204.161 251.94 203.743 251.867C203.324 251.793 202.929 251.62 202.591 251.363C202.252 251.106 201.98 250.771 201.797 250.387C201.614 250.004 201.525 249.582 201.538 249.157L202.334 223.561L213.036 227.654C212.122 228.287 213.12 229.835 213.12 229.835C213.12 229.835 210.862 231.165 211.85 232.361Z" fill="white"/>
<path d="M215.393 220.199C215.393 220.199 214.667 224.842 212.848 225.113C211.03 225.385 210.215 232.624 208.401 232.367C206.588 232.109 207.789 225.638 207.853 224.382C207.917 223.126 205.877 217.925 207.403 216.743C208.93 215.561 213.762 216.743 213.762 216.743L215.393 220.199Z" fill="#CF6F80"/>
<path opacity="0.1" d="M219.262 184.447L222.691 177.525C222.691 177.525 224.054 182.801 224.054 185.619C224.054 188.437 225.962 188.714 225.962 188.714C225.962 188.714 228.052 191.186 226.95 192.986C225.848 194.785 225.403 199.265 225.403 199.265C225.403 199.265 225.764 207.813 224.129 208.995C222.493 210.177 222.152 213 222.152 213C222.152 213 219.148 218.364 219.242 219.64C219.336 220.915 215.062 229.553 215.062 229.553C215.062 229.553 217.152 218.819 204.972 214.181C204.972 214.181 204.878 210.538 205.788 209.539C206.697 208.54 208.115 208.085 207.225 203.037C206.336 197.989 206.969 191.957 206.969 190.746C206.969 189.535 209.696 181.98 209.696 181.98L219.262 184.447Z" fill="black"/>
<path d="M220.744 176.536L223.738 177.525C223.738 177.525 225.107 182.8 225.107 185.619C225.107 188.437 227.014 188.714 227.014 188.714C227.014 188.714 229.104 191.186 228.002 192.985C226.9 194.785 226.461 199.264 226.461 199.264C226.461 199.264 226.821 207.813 225.186 208.995C223.55 210.176 223.185 212.999 223.185 212.999C223.185 212.999 220.186 218.364 220.28 219.639C220.373 220.915 216.095 229.552 216.095 229.552C216.095 229.552 218.19 218.819 206.005 214.181C206.005 214.181 205.916 210.537 206.825 209.538C207.734 208.54 209.152 208.085 208.263 203.037C207.374 197.989 208.006 191.957 208.006 190.746C208.006 189.534 210.734 181.98 210.734 181.98L220.744 176.536Z" fill="white"/>
<path opacity="0.1" d="M154.609 355.946C154.609 355.946 159.382 352.945 162.514 355.125C165.647 357.306 154.609 355.946 154.609 355.946Z" fill="black"/>
<path opacity="0.1" d="M191.696 346.665C191.696 346.665 195.92 346.122 199.468 349.943C203.016 353.765 191.696 346.665 191.696 346.665Z" fill="black"/>
<g opacity="0.1">
<path d="M197.877 107.56C197.269 108.085 196.489 108.46 196.083 109.157C195.738 109.756 195.728 110.492 195.451 111.135C195.174 111.778 194.369 112.302 193.811 111.897C193.682 107.447 191.488 103.269 188.796 99.7091C188.043 98.6348 187.128 97.6841 186.083 96.891C185.025 96.0954 183.709 95.7234 182.392 95.8477C180.91 96.0504 179.605 97.0591 178.108 97.1827C176.132 97.3508 174.358 95.9812 172.396 95.912C171.599 95.9199 170.813 96.0983 170.09 96.4351C169.368 96.772 168.725 97.2595 168.206 97.865C167.175 99.0823 166.409 100.502 165.958 102.033C165.182 104.356 164.759 106.783 164.703 109.232C164.674 110.611 164.545 112.332 163.27 112.846C163.3 113.211 163.3 113.578 163.27 113.943C164.555 113.449 164.683 111.709 164.713 110.324C164.768 107.875 165.191 105.449 165.968 103.126C166.419 101.593 167.185 100.172 168.216 98.9527C168.736 98.3488 169.379 97.8627 170.101 97.5269C170.824 97.191 171.61 97.013 172.406 97.0047C174.383 97.0739 176.161 98.4385 178.118 98.2753C179.6 98.1517 180.915 97.1382 182.402 96.9404C183.719 96.816 185.035 97.188 186.093 97.9836C187.137 98.7768 188.053 99.7275 188.805 100.802C191.498 104.357 193.692 108.525 193.821 112.984C194.379 113.395 195.184 112.861 195.461 112.228C195.738 111.595 195.747 110.853 196.093 110.25C196.499 109.553 197.279 109.182 197.887 108.658C199.429 107.328 199.814 105.088 199.755 103.056C199.755 102.992 199.755 102.928 199.755 102.868C199.661 104.629 199.191 106.423 197.877 107.56Z" fill="black"/>
<path d="M161.403 107.209C160.266 105.958 158.715 105.122 157.672 103.797C156.794 102.624 156.293 101.212 156.234 99.748C156.079 101.578 156.589 103.402 157.672 104.885C158.715 106.215 160.266 107.051 161.403 108.301C162.494 109.525 163.149 111.076 163.265 112.712C163.341 111.716 163.215 110.716 162.895 109.77C162.575 108.825 162.067 107.953 161.403 107.209Z" fill="black"/>
<path d="M200.718 92.2827C200.427 93.494 199.908 94.646 199.671 95.8672C199.53 96.6832 199.479 97.5121 199.517 98.3393C199.534 97.8681 199.585 97.3988 199.671 96.9351C199.908 95.709 200.427 94.5619 200.718 93.3506C200.888 92.6825 200.943 91.9903 200.881 91.3037C200.85 91.6335 200.796 91.9607 200.718 92.2827Z" fill="black"/>
</g>
<path opacity="0.1" d="M65.5818 376.049C92.1716 376.049 113.727 372.584 113.727 368.311C113.727 364.038 92.1716 360.573 65.5818 360.573C38.9921 360.573 17.4368 364.038 17.4368 368.311C17.4368 372.584 38.9921 376.049 65.5818 376.049Z" fill="white"/>
<path d="M67.1333 220.085H64.0353V289.882H67.1333V220.085Z" fill="#535461"/>
<path d="M86.6008 289.669L86.4081 292.814L86.1315 297.263L86.0178 299.113L85.7461 303.562L85.6275 305.411L85.3508 309.861L82.2281 360.326C82.0923 362.498 81.1349 364.536 79.5505 366.025C77.9662 367.515 75.874 368.345 73.6999 368.346H57.4638C55.2902 368.345 53.1986 367.515 51.615 366.025C50.0315 364.535 49.0751 362.497 48.9406 360.326L45.8327 309.827L45.556 305.377L45.4423 303.528L45.1656 299.078L45.052 297.229L44.7753 292.779L44.5777 289.635C44.5433 289.029 44.633 288.423 44.841 287.854C45.0491 287.285 45.3712 286.764 45.7876 286.324C46.204 285.883 46.7059 285.533 47.2625 285.294C47.8192 285.055 48.4188 284.932 49.0246 284.933H82.233C82.8365 284.938 83.4326 285.067 83.9844 285.311C84.5362 285.556 85.032 285.911 85.4413 286.355C85.8506 286.799 86.1646 287.322 86.3641 287.892C86.5635 288.462 86.6441 289.067 86.6008 289.669Z" fill="#3F3D56"/>
<path d="M86.4082 292.813L86.1315 297.248H45.0322L44.7556 292.813H86.4082Z" fill="#9D9CB5"/>
<path d="M86.0178 299.098L85.7461 303.538H45.4226L45.1459 299.098H86.0178Z" fill="#9D9CB5"/>
<path d="M85.6275 305.392L85.3557 309.827H45.8129L45.5362 305.392H85.6275Z" fill="#9D9CB5"/>
<path d="M40.027 246.245C58.0666 259.307 65.5967 279.736 65.5967 279.736C65.5967 279.736 43.8563 278.99 25.8118 265.927C7.76724 252.865 0.251984 232.44 0.251984 232.44C0.251984 232.44 21.9825 233.182 40.027 246.245Z" fill="white"/>
<path d="M0.237183 232.44C0.237183 232.44 22.8077 244.974 30.0462 255.352C37.2848 265.73 65.5967 279.736 65.5967 279.736" stroke="#535461" stroke-width="2" stroke-miterlimit="10"/>
<path d="M51.6729 219.931C61.4907 227.036 65.5967 238.155 65.5967 238.155C65.5967 238.155 53.763 237.75 43.9403 230.645C34.1176 223.54 30.0215 212.416 30.0215 212.416C30.0215 212.416 41.8502 212.821 51.6729 219.931Z" fill="white"/>
<path d="M30.0215 212.416C30.0215 212.416 42.3048 219.239 46.2428 224.885C50.1808 230.531 65.5967 238.155 65.5967 238.155" stroke="#535461" stroke-width="2" stroke-miterlimit="10"/>
<path d="M79.8515 237.592C68.5712 249.997 66.1847 266.209 66.1847 266.209C66.1847 266.209 82.0897 262.303 93.3601 249.893C104.631 237.483 107.027 221.276 107.027 221.276C107.027 221.276 91.1318 225.187 79.8515 237.592Z" fill="white"/>
<path d="M107.037 221.281C107.037 221.281 92.3423 233.998 88.6069 242.759C84.8715 251.52 66.1847 266.209 66.1847 266.209" stroke="#535461" stroke-width="2" stroke-miterlimit="10"/>
<path d="M493.937 233.226C493.937 233.226 485.779 192.615 488.902 187.562C488.902 187.562 489.015 182.865 488.828 176.877C488.828 176.65 488.828 176.423 488.828 176.19C489.377 176.557 489.95 176.887 490.542 177.179C493.419 178.658 496.722 179.085 499.881 178.385L497.41 175.631C496.817 174.974 496.2 174.262 496.071 173.392C495.943 172.522 496.299 171.745 496.605 170.969C498.952 165.036 499.075 157.575 494.554 153.046C490.735 149.239 489.806 144.325 485.661 140.849C482.632 138.303 480.967 134.57 479.395 130.961C478.066 127.91 476.727 124.835 475.966 121.602C475.373 119.075 475.136 116.46 474.321 113.992C473.506 111.525 471.979 109.127 469.592 108.025C468.743 107.634 467.799 107.412 467.023 106.893C466.005 106.205 465.393 105.088 464.656 104.109C460.916 99.1649 448.391 102.077 442.461 104.084C440.849 104.59 439.357 105.417 438.074 106.517L438.128 106.428C438.173 106.354 438.227 106.28 438.276 106.205C437.627 106.731 437.067 107.357 436.616 108.059C435.752 109.429 435.391 111.026 434.669 112.509C433.8 114.264 428.963 119.164 431.043 121.137C431.189 121.269 431.356 121.376 431.537 121.453C432.318 121.778 433.178 121.864 434.007 121.7L433.918 121.913C433.208 123.654 432.844 125.516 432.846 127.396C432.846 135.519 439.541 142.105 447.808 142.105C449.362 142.107 450.907 141.868 452.388 141.398C452.422 141.586 452.452 141.774 452.487 141.962C452.487 142.036 452.511 142.11 452.521 142.184L452.259 142.55C452.246 142.527 452.231 142.506 452.215 142.486L444.458 153.333C443.272 154.169 436.443 159.113 436.058 162.821C435.653 166.88 435.248 171.632 435.248 171.632L435.193 172.65C434.854 172.934 434.458 173.14 434.031 173.255C433.605 173.371 433.158 173.392 432.723 173.318C430.302 172.922 430.302 182.217 430.302 182.217C430.302 182.217 428.691 183.7 427.584 182.415C426.477 181.129 423.552 185.485 423.552 185.485L405.221 186.276L404.801 186.301L403.813 183.241C403.707 182.918 403.477 182.65 403.175 182.495C402.872 182.341 402.521 182.312 402.197 182.415C402.121 182.44 402.046 182.471 401.975 182.509L401.906 182.548L401.777 182.637L401.713 182.697C401.678 182.729 401.645 182.764 401.614 182.8L401.555 182.87L401.525 182.899C401.411 183.057 401.336 183.24 401.305 183.432C401.274 183.624 401.288 183.821 401.347 184.007L402.197 186.632C398.659 187.344 395.043 189.352 397.992 194.879L383.041 192.115L387.878 196.179L412.85 201.336C412.519 201.929 412.736 202.79 413.769 204.001C418.216 209.227 426.319 210.646 429.58 211.012C430.441 212.94 431.517 214.764 432.787 216.451L432.505 221.657C432.505 221.657 424.249 261.339 422.737 263.351C423.5 262.486 424.199 261.565 424.827 260.597C422.431 268.75 419.081 279.909 418.201 281.58C416.788 284.25 415.479 295.053 417.089 295.745C417.583 295.958 418.997 295.854 421.013 295.701V296.596L420.924 330.508C420.924 330.508 421.329 351.308 420.217 353.29C419.105 355.273 418.809 359.431 418.809 359.431C418.809 359.431 414.362 367.633 410.839 370.931C410.815 370.957 410.789 370.98 410.76 371L410.651 370.229C410.651 370.229 406.417 375.579 397.049 375.277C397.049 375.277 391.411 378.946 399.771 379.143C408.131 379.341 418.809 378.847 418.809 378.847C418.809 378.847 426.265 367.475 432.51 368.958V377.576H434.422V368.82C435.309 368.236 436.068 367.478 436.653 366.591C437.238 365.705 437.638 364.709 437.827 363.663C437.99 362.586 437.87 361.484 437.479 360.467C437.087 359.45 436.437 358.553 435.593 357.864C435.214 357.521 434.91 357.103 434.7 356.637C434.49 356.17 434.379 355.666 434.373 355.154L434.304 355.214C434.304 355.041 434.259 354.863 434.24 354.68C433.691 350.23 433.004 341.049 435.43 334.255C438.756 324.94 439.764 311.967 437.342 304.244C436.561 301.776 435.92 299.265 435.42 296.724C435.361 296.403 435.307 296.096 435.257 295.809C436.912 296.033 438.551 296.364 440.164 296.798C445.772 298.346 458.04 298.633 468.515 298.548C468.54 298.835 468.57 299.137 468.604 299.438C468.791 301.535 469.181 303.608 469.77 305.629C471.085 309.584 471.687 327.022 471.687 327.022C471.687 327.022 473.382 341.36 472.458 347.194C471.964 350.438 471.47 353.696 471.188 356.969V357.033C471.188 357.033 468.411 364.944 466.381 369.24C466.331 369.349 466.277 369.458 466.228 369.562C465.686 369.611 465.153 369.729 464.642 369.913C464.642 369.913 461.919 375.351 459.206 376.251C456.494 377.151 457.393 380.112 463.535 379.025C469.676 377.937 478.951 377.047 478.951 377.047L479.351 371.5L481.238 369.136L480.744 374.669L482.755 374.273L482.488 367.544L485.577 363.678C485.577 363.678 489.307 360.356 483.763 353.819V353.963C483.704 353.869 483.65 353.77 483.585 353.676V353.646C482.666 352.222 481.935 349.567 483.274 344.856C485.695 336.342 487.103 328.614 487.103 328.614C487.103 328.614 492.509 307.913 486.011 298.118H486.298C485.632 296.74 485.161 295.276 484.9 293.767C484.867 293.589 484.837 293.407 484.811 293.219C489.618 292.942 494.337 292.072 498.186 290.193C498.171 290.173 495.854 241.048 493.937 233.226ZM432.901 198.963V199.062L431.912 199.111L432.901 198.963ZM429.511 199.433C429.349 199.469 429.196 199.541 429.066 199.645C428.641 200.247 428.375 200.946 428.291 201.677L426.749 201.331C426.749 201.331 425.667 201.099 424.111 200.837L423.374 200.095C425.4 199.927 427.505 199.68 429.511 199.433Z" fill="url(#paint1_linear_539_2255)"/>
<path d="M480.517 367.614L479.929 374.62L481.9 374.224L481.604 366.625L480.517 367.614Z" fill="#1D2366"/>
<path d="M435.539 334.35C433.162 341.123 433.834 350.265 434.368 354.705C434.566 356.346 434.748 357.345 434.748 357.345C434.748 357.345 431.196 365.444 430.899 365.75C430.603 366.057 420.444 372.262 420.444 372.262L413.344 376.41C413.344 376.41 406.14 373.25 409.594 372.163C410.3 371.879 410.935 371.446 411.457 370.892C414.915 367.604 419.258 359.431 419.258 359.431C419.258 359.431 419.555 355.283 420.642 353.31C421.729 351.338 421.334 330.607 421.334 330.607L421.418 296.813V292.408L434.931 292.507C435.017 294.003 435.211 295.49 435.514 296.957C435.999 299.489 436.628 301.991 437.397 304.452C439.778 312.16 438.79 325.069 435.539 334.35Z" fill="#FFB0B1"/>
<path opacity="0.1" d="M434.748 357.345C434.748 357.345 431.196 365.444 430.899 365.75C430.603 366.057 420.444 372.262 420.444 372.262L413.344 376.41C413.344 376.41 406.14 373.251 409.594 372.163C410.3 371.879 410.935 371.446 411.457 370.892L411.763 373.053L414.13 372.954L434.388 354.715C434.566 356.346 434.748 357.345 434.748 357.345Z" fill="black"/>
<path d="M434.501 355.175L414.13 373.537L411.763 373.636L411.269 370.175C411.269 370.175 407.128 375.505 397.928 375.209C397.928 375.209 392.404 378.862 400.591 379.06C408.779 379.258 419.234 378.763 419.234 378.763C419.234 378.763 426.537 367.392 432.649 368.875V377.463H434.526V368.796C435.399 368.208 436.144 367.449 436.716 366.566C437.289 365.682 437.677 364.692 437.856 363.654C438.019 362.585 437.904 361.493 437.522 360.481C437.141 359.47 436.505 358.574 435.677 357.879C435.308 357.532 435.013 357.114 434.81 356.649C434.608 356.183 434.503 355.682 434.501 355.175Z" fill="#1D2366"/>
<path d="M482.395 344.91C481.08 349.607 481.797 352.253 482.696 353.672V353.701C483.849 355.453 484.651 357.413 485.058 359.471L485.137 359.916L475.867 373.438L470.838 375.416C470.838 375.416 462.749 372.652 464.226 371.861C464.597 371.668 465.175 370.64 465.837 369.221C467.814 364.944 470.541 357.053 470.541 357.053V356.989C470.828 353.731 471.282 350.483 471.786 347.249C472.69 341.43 471.03 327.146 471.03 327.146C471.03 327.146 470.437 309.777 469.153 305.827C468.573 303.818 468.187 301.759 468.001 299.676C467.735 297.204 467.675 295.167 467.675 295.167C467.675 295.167 473.002 287.751 482.765 295.76C483.546 296.399 484.233 297.145 484.806 297.975C491.55 307.577 486.12 328.728 486.12 328.728C486.12 328.728 484.761 336.421 482.395 344.91Z" fill="#FFB0B1"/>
<path opacity="0.1" d="M485.152 359.916L475.882 373.438L470.852 375.416C470.852 375.416 462.764 372.652 464.241 371.861C464.612 371.668 465.19 370.64 465.852 369.221C469.276 369.191 471.05 372.454 471.05 372.454L475.388 371.762C475.388 371.762 481.11 360.509 482.394 359.822C483.679 359.135 482.592 354.685 482.592 354.685V353.553C482.627 353.592 482.656 353.637 482.696 353.676V353.706C483.849 355.458 484.651 357.418 485.058 359.476L485.152 359.916Z" fill="black"/>
<path d="M471.346 372.746C471.346 372.746 468.876 368.208 464.142 369.884C464.142 369.884 461.479 375.322 458.816 376.202C456.153 377.082 457.042 380.049 463.06 378.966C469.079 377.883 478.15 376.988 478.15 376.988L478.546 371.456L484.662 363.659C484.662 363.659 488.309 360.351 482.884 353.84V354.972C482.884 354.972 483.971 359.422 482.686 360.109C481.401 360.796 475.699 372.054 475.699 372.054L471.346 372.746Z" fill="#1D2366"/>
<path opacity="0.1" d="M434.946 292.497C435.031 293.993 435.226 295.48 435.529 296.947C429.966 296.131 424.802 296.537 421.418 296.804V292.398L434.946 292.497Z" fill="black"/>
<path opacity="0.1" d="M485.354 299.207C485.354 299.207 477.449 299.592 468.021 299.671C467.754 297.199 467.695 295.162 467.695 295.162C467.695 295.162 473.021 287.746 482.785 295.756C483.566 296.394 484.253 297.14 484.825 297.971C484.979 298.392 485.155 298.805 485.354 299.207Z" fill="black"/>
<path d="M485.354 298.317C485.354 298.317 450.728 299.993 440.174 297.031C429.62 294.07 419.16 296.636 417.583 295.949C416.007 295.261 417.287 284.498 418.67 281.833C420.054 279.168 427.643 252.217 427.643 252.217L434.946 214.118L442.639 211.997L443.183 211.843L456.588 208.145L466.41 205.431C466.41 205.431 485.942 281.734 484.267 287.361C483.659 289.515 483.561 291.782 483.981 293.981C484.236 295.483 484.699 296.942 485.354 298.317Z" fill="#1D2366"/>
<path d="M409.49 188.062C409.49 188.062 402.573 195.478 407.81 199.611C413.048 203.744 416.492 200.007 416.492 200.007L409.49 188.062Z" fill="#C7DAF5"/>
<path opacity="0.1" d="M409.49 188.062C409.49 188.062 402.573 195.478 407.81 199.611C413.048 203.744 416.492 200.007 416.492 200.007L409.49 188.062Z" fill="black"/>
<path d="M465.378 139.302C465.378 139.302 464.567 140.074 463.347 141.211C461.608 142.838 459.034 145.216 456.751 147.208C453.589 149.962 450.98 151.984 451.914 150.259C452.847 148.533 452.669 145.527 452.205 142.714C452.17 142.526 452.141 142.338 452.106 142.155C451.722 140.089 451.212 138.048 450.579 136.044C450.579 136.044 455.688 129.439 458.515 126.833C459.567 125.844 460.303 125.439 460.348 126.126C460.397 127.051 461.089 129.093 461.949 131.258C461.973 131.328 461.998 131.392 462.028 131.461C462.601 132.944 463.248 134.467 463.816 135.782C464.686 137.799 465.378 139.302 465.378 139.302Z" fill="#FFB0B1"/>
<path opacity="0.1" d="M462.028 131.46C461.548 134.044 460.383 136.452 458.655 138.431C456.927 140.411 454.699 141.889 452.205 142.713C451.812 140.456 451.269 138.228 450.579 136.043C450.579 136.043 460.2 123.609 460.348 126.125C460.382 127.08 461.133 129.196 462.028 131.46Z" fill="black"/>
<path opacity="0.1" d="M451.246 146.036L452.492 144.281C452.492 144.281 453.317 149.314 456.351 147.094C459.384 144.875 459.533 163.801 459.533 163.801L456.276 212.516L432.747 211.107L433.414 187.567L436.078 175.701L442.664 158.451L446.582 152.751L451.246 146.036Z" fill="black"/>
<path d="M459.533 164.102L456.568 208.15L456.257 212.817L443.138 212.031L442.644 212.001L432.762 211.408L433.429 187.864L436.092 175.998L442.679 158.747L446.597 153.047L451.261 146.308L452.506 144.558C452.506 144.558 453.332 149.591 456.365 147.371L456.43 147.326C459.394 145.448 459.533 164.102 459.533 164.102Z" fill="#1D2366"/>
<path d="M436.423 171.874C436.423 171.874 435.243 174.346 432.871 173.946C430.499 173.545 430.504 182.845 430.504 182.845C430.504 182.845 428.928 184.328 427.841 183.043C426.754 181.757 423.888 186.103 423.888 186.103L405.933 186.894C405.933 186.894 413.922 190.548 412.356 201.603C412.356 201.603 439.482 199.922 440.371 197.356C441.261 194.79 436.423 171.874 436.423 171.874Z" fill="white"/>
<path opacity="0.03" d="M436.423 171.874C436.423 171.874 435.243 174.346 432.871 173.946C430.499 173.545 430.504 182.845 430.504 182.845C430.504 182.845 428.928 184.328 427.841 183.043C426.754 181.757 423.888 186.103 423.888 186.103L405.933 186.894C405.933 186.894 413.922 190.548 412.356 201.603C412.356 201.603 439.482 199.922 440.371 197.356C441.261 194.79 436.423 171.874 436.423 171.874Z" fill="black"/>
<path d="M384.242 192.704L388.975 196.748L427.94 204.941L423.108 200.007L384.242 192.704Z" fill="white"/>
<path d="M451.321 147.594C450.673 148.582 448.82 153.645 447.274 158.065C445.984 161.749 444.907 164.987 444.907 164.987C444.907 164.987 442.392 181.372 441.108 184.334C439.823 187.295 440.52 198.845 440.52 198.845L435.732 227.368C435.732 227.368 433.563 242.077 430.213 250.862C426.907 259.51 423.226 263.564 423.112 263.693C424.595 261.685 432.673 222.161 432.673 222.161L435.341 172.314C435.341 172.314 435.732 167.578 436.127 163.529C436.522 159.479 444.527 153.952 444.527 153.952L452.245 142.971C453.02 144.009 452.501 145.819 451.321 147.594Z" fill="white"/>
<path d="M431.196 211.655C431.196 211.655 419.832 211.16 414.327 204.545C408.823 197.93 427.05 201.905 427.05 201.905L431.789 202.993L431.196 211.655Z" fill="#FFB0B1"/>
<path opacity="0.1" d="M484.267 287.365C483.659 289.519 483.561 291.786 483.981 293.985C471.584 294.865 458.322 291.513 458.322 291.513C455.852 293.787 449.344 297.139 449.344 297.139L445.797 253.136C443.529 247.203 442.639 216.119 442.639 216.119C442.639 216.119 442.842 214.493 443.133 212.055C443.133 211.996 443.133 211.932 443.158 211.872C444.043 205.064 445.797 192.284 446.656 190.558C447.842 188.185 443.01 181.871 443.01 181.871L445.209 163.108L445.475 160.844C450.11 158.772 453.663 152.157 453.663 152.157L456.39 147.376C459.355 145.472 459.508 164.126 459.508 164.126L456.543 208.174L466.366 205.46C466.366 205.46 485.942 281.738 484.267 287.365Z" fill="black"/>
<path d="M496.99 290.405C483.477 297.12 458.915 290.9 458.915 290.9C456.444 293.174 449.937 296.526 449.937 296.526L446.385 252.523C444.122 246.59 443.232 215.506 443.232 215.506C443.232 215.506 446.088 192.313 447.274 189.945C447.62 189.253 447.452 188.224 447.042 187.117C445.025 181.845 444.284 176.172 444.878 170.559L445.826 162.495L446.088 160.235C450.728 158.159 454.28 151.543 454.28 151.543L456.751 147.212L461.296 139.232L463.451 135.455L463.816 135.786L466.608 138.318C466.608 138.318 467.794 139.307 469.573 140.79C473.441 144.053 480.127 149.798 483.575 153.313C486.609 156.408 487.568 168.448 487.844 177.51C488.027 183.478 487.919 188.155 487.919 188.155C484.86 193.193 492.86 233.641 492.86 233.641C494.722 241.458 496.99 290.405 496.99 290.405Z" fill="white"/>
<path opacity="0.03" d="M471.05 151.444C471.05 151.444 461.776 169.11 462.853 175.824C463.93 182.538 466.993 190.138 465.516 191.912C465.009 192.585 464.352 193.131 463.599 193.507C462.845 193.884 462.015 194.081 461.173 194.083C459.691 194.182 455.738 196.946 455.738 197.242C455.738 197.539 452.086 197.539 448.82 198.923C445.554 200.308 440.732 201.094 440.732 201.094C440.732 201.094 431.344 200.797 430.47 201.687C429.595 202.577 428.696 207.902 430.568 212.149C432.441 216.396 434.521 219.565 436.092 220.144C437.664 220.722 447.635 217.38 455.723 216.589C463.811 215.798 472.592 209.385 472.592 209.385C472.592 209.385 482.261 205.924 483.956 200.105C485.651 194.286 481.886 162.302 481.886 162.302C481.886 162.302 479.04 147.395 471.05 151.444Z" fill="black"/>
<path opacity="0.03" d="M469.864 149.962C469.864 149.962 460.59 167.632 461.677 174.341C462.764 181.051 465.817 188.655 464.335 190.435C463.829 191.108 463.174 191.654 462.421 192.031C461.669 192.408 460.839 192.604 459.997 192.605C458.515 192.704 454.562 195.468 454.562 195.764C454.562 196.061 450.91 196.061 447.644 197.44C444.378 198.82 439.556 199.611 439.556 199.611C439.556 199.611 430.168 199.314 429.299 200.204C428.429 201.094 427.52 206.424 429.397 210.666C431.275 214.908 433.35 218.082 434.921 218.661C436.493 219.239 446.464 215.897 454.552 215.111C462.64 214.325 471.421 207.902 471.421 207.902C471.421 207.902 481.085 204.441 482.76 198.627C484.435 192.813 480.69 160.819 480.69 160.819C480.69 160.819 477.854 145.917 469.864 149.962Z" fill="black"/>
<path d="M470.758 150.555C470.758 150.555 461.484 168.225 462.571 174.934C463.658 181.644 466.712 189.248 465.234 191.023C464.729 191.698 464.073 192.245 463.319 192.623C462.565 193.001 461.734 193.197 460.891 193.198C459.409 193.297 455.456 196.061 455.456 196.353C455.456 196.644 451.81 196.649 448.539 198.034C445.268 199.418 440.45 200.204 440.45 200.204C440.45 200.204 431.063 199.907 430.188 200.797C429.313 201.687 428.414 207.017 430.287 211.259C432.159 215.501 434.24 218.676 435.811 219.254C437.382 219.832 447.353 216.49 455.441 215.699C463.53 214.908 472.31 208.495 472.31 208.495C472.31 208.495 481.979 205.035 483.674 199.215C485.369 193.396 481.629 161.412 481.629 161.412C481.629 161.412 478.743 146.53 470.758 150.555Z" fill="white"/>
<path opacity="0.1" d="M470.556 197.95C470.556 197.95 463.144 196.467 465.724 198.939C468.303 201.411 468.288 203.577 471.445 203.478C474.603 203.379 470.556 197.95 470.556 197.95Z" fill="black"/>
<path opacity="0.1" d="M483.081 251.139C483.081 251.139 479.731 253.408 486.14 258.639C492.548 263.87 483.081 251.139 483.081 251.139Z" fill="black"/>
<path opacity="0.1" d="M476.688 269.794C476.688 270.091 475.502 280.671 479.939 283.316C484.376 285.961 476.688 269.794 476.688 269.794Z" fill="black"/>
<path d="M406.239 186.87C402.662 186.994 394.934 188.086 398.941 195.567C402.484 202.187 408.438 197.762 411.788 194.405C410.97 191.275 408.984 188.578 406.239 186.87Z" fill="#FFB0B1"/>
<path opacity="0.1" d="M469.573 141.092C465.778 143.687 462.596 145.878 461.973 146.333C460.274 147.593 457.032 154.995 454.942 158.772C453.277 161.813 447.867 162.594 445.826 162.787L446.088 160.527C450.728 158.451 454.28 151.835 454.28 151.835L463.451 135.747L466.608 138.62C466.608 138.62 467.794 139.608 469.573 141.092Z" fill="black"/>
<path d="M469.573 140.795C465.778 143.391 462.596 145.581 461.973 146.041C460.274 147.296 457.032 154.698 454.942 158.475C453.277 161.516 447.867 162.297 445.826 162.49L446.088 160.23C450.728 158.154 454.28 151.539 454.28 151.539L463.451 135.45L466.608 138.313C466.608 138.313 467.794 139.292 469.573 140.795Z" fill="#DCE7FF"/>
<path d="M462.27 128.197C462.272 131.165 461.372 134.063 459.691 136.508C457.704 139.399 454.748 141.481 451.359 142.377C447.97 143.274 444.372 142.924 441.218 141.393C438.064 139.862 435.563 137.25 434.169 134.031C432.774 130.813 432.579 127.201 433.619 123.851C434.659 120.501 436.864 117.634 439.835 115.772C442.806 113.91 446.345 113.175 449.811 113.701C453.278 114.227 456.44 115.978 458.726 118.638C461.012 121.298 462.269 124.689 462.27 128.197Z" fill="#FFB0B1"/>
<path opacity="0.1" d="M487.844 177.515C485.838 176.28 484.204 174.524 483.116 172.433C482.291 170.801 481.742 168.917 480.334 167.76C479.064 166.722 477.37 166.47 475.788 166.005C470.59 164.468 466.233 159.721 466.069 154.302C465.99 151.751 466.786 149.205 466.425 146.678C466.22 145.249 465.652 143.895 464.775 142.748C464.339 142.199 463.862 141.685 463.347 141.21C462.655 140.558 461.929 139.925 461.296 139.232C460.898 138.804 460.55 138.331 460.259 137.823C460.024 137.408 459.833 136.969 459.691 136.513C458.702 133.487 459.602 129.898 458.515 126.837L458.455 126.669C458.045 125.582 457.21 124.494 456.049 124.41C454.888 124.326 453.895 125.29 452.788 125.72C450.471 126.62 447.971 125.087 446.039 123.525C444.107 121.962 441.928 120.178 439.472 120.524C437.847 120.756 436.562 121.864 435.065 122.437C434.727 122.568 434.378 122.669 434.022 122.739C435.289 119.577 437.617 116.955 440.606 115.325C443.594 113.694 447.058 113.155 450.4 113.802C453.742 114.448 456.755 116.239 458.922 118.867C461.088 121.495 462.272 124.796 462.27 128.202C462.272 129.231 462.164 130.257 461.949 131.262C461.973 131.332 461.998 131.396 462.028 131.465C462.601 132.948 463.248 134.471 463.816 135.786L466.608 138.318C466.608 138.318 467.794 139.307 469.573 140.79C473.441 144.053 480.127 149.798 483.575 153.313C486.609 156.418 487.558 168.453 487.844 177.515Z" fill="black"/>
<path d="M434.892 113.404C435.598 111.965 435.949 110.354 436.794 108.989C438.034 107.011 440.198 105.746 442.422 104.979C448.228 102.977 460.496 100.07 464.162 104.979C464.884 105.968 465.481 107.066 466.48 107.748C467.24 108.267 468.16 108.49 468.995 108.88C471.332 109.978 472.824 112.371 473.619 114.813C474.415 117.256 474.652 119.876 475.235 122.393C475.981 125.621 477.29 128.682 478.595 131.722C480.132 135.312 481.762 139.035 484.727 141.571C488.773 145.032 489.668 149.932 493.423 153.729C497.87 158.238 497.726 165.679 495.434 171.587C495.132 172.363 494.791 173.174 494.91 174C495.029 174.826 495.641 175.577 496.219 176.235L498.65 178.979C492.899 180.368 486.392 177.362 483.714 172.087C482.889 170.455 482.34 168.576 480.927 167.414C479.662 166.376 477.962 166.129 476.386 165.664C471.188 164.122 466.83 159.37 466.667 153.951C466.588 151.405 467.384 148.859 467.023 146.337C466.822 144.898 466.252 143.535 465.368 142.382C464.009 140.607 461.959 139.415 460.852 137.438C458.979 134.13 460.402 129.834 459.053 126.284C458.638 125.196 457.808 124.108 456.647 124.024C455.486 123.94 454.493 124.904 453.381 125.334C451.069 126.234 448.568 124.707 446.637 123.139C444.705 121.572 442.526 119.792 440.065 120.143C438.439 120.371 437.16 121.478 435.663 122.056C434.556 122.482 432.313 122.862 431.344 121.928C429.299 120.044 434.037 115.164 434.892 113.404Z" fill="#591D4B"/>
<path opacity="0.1" d="M485.087 170.455C484.257 168.824 483.714 166.945 482.301 165.788C481.036 164.75 479.336 164.498 477.755 164.033C472.562 162.495 468.204 157.744 468.036 152.325C467.957 149.779 468.752 147.228 468.397 144.706C468.19 143.276 467.62 141.923 466.741 140.775C465.378 139 463.327 137.809 462.225 135.831C460.353 132.529 461.776 128.232 460.422 124.677C460.012 123.594 459.177 122.507 458.021 122.418C456.864 122.329 455.861 123.303 454.755 123.733C452.442 124.633 449.937 123.1 448.01 121.538C446.083 119.975 443.894 118.19 441.439 118.537C439.813 118.769 438.528 119.876 437.036 120.45C435.929 120.875 433.681 121.261 432.713 120.326C430.677 118.349 435.416 113.479 436.265 111.728C436.972 110.285 437.323 108.678 438.173 107.313C438.217 107.239 438.267 107.165 438.316 107.091C437.68 107.618 437.132 108.242 436.69 108.94C435.845 110.305 435.495 111.906 434.788 113.355C433.933 115.105 429.195 119.99 431.235 121.953C432.224 122.892 434.447 122.507 435.554 122.082C437.036 121.503 438.331 120.396 439.956 120.168C442.427 119.817 444.601 121.602 446.528 123.164C448.455 124.727 450.975 126.259 453.277 125.36C454.384 124.929 455.352 123.96 456.538 124.049C457.724 124.138 458.515 125.221 458.945 126.309C460.293 129.859 458.87 134.155 460.743 137.463C461.85 139.406 463.9 140.622 465.259 142.407C466.143 143.56 466.714 144.923 466.914 146.362C467.275 148.884 466.48 151.43 466.559 153.976C466.722 159.415 471.08 164.147 476.278 165.689C477.844 166.154 479.553 166.401 480.818 167.439C482.236 168.601 482.795 170.48 483.605 172.112C486.283 177.387 492.79 180.393 498.542 179.004L497.395 177.708C492.41 177.783 487.365 174.945 485.087 170.455Z" fill="black"/>
<path opacity="0.1" d="M451.024 147.89C450.377 148.879 448.524 153.942 446.977 158.362C445.53 157.798 444.215 154.204 444.215 154.204L451.933 143.218C452.724 144.305 452.205 146.11 451.024 147.89Z" fill="black"/>
<path d="M451.321 147.593C450.673 148.582 448.82 153.645 447.274 158.065C445.826 157.506 444.512 153.907 444.512 153.907L452.23 142.926C453.02 144.009 452.501 145.818 451.321 147.593Z" fill="#DCE7FF"/>
<path d="M406.446 198.103L402.168 184.601C402.117 184.443 402.098 184.276 402.112 184.111C402.126 183.945 402.172 183.784 402.248 183.637C402.324 183.489 402.429 183.358 402.556 183.251C402.683 183.144 402.83 183.064 402.988 183.014C403.306 182.914 403.651 182.945 403.947 183.098C404.243 183.252 404.467 183.517 404.569 183.834L408.848 197.322L408.423 200.145L406.446 198.103Z" fill="#BE8B87"/>
<path opacity="0.1" d="M402.573 183.414C402.892 183.313 403.238 183.342 403.535 183.496C403.832 183.65 404.057 183.916 404.159 184.235L408.438 197.722L408.116 199.838L408.428 200.165L408.853 197.342L404.549 183.854C404.447 183.536 404.224 183.271 403.927 183.118C403.631 182.964 403.286 182.934 402.968 183.033C402.7 183.12 402.469 183.294 402.311 183.528C402.395 183.482 402.482 183.444 402.573 183.414Z" fill="white"/>
<path d="M406.446 198.103L408.848 197.342L408.497 199.656L408.423 200.165L407.721 199.433L406.446 198.103Z" fill="#EFC8C4"/>
<path d="M407.721 199.433C407.763 199.38 407.815 199.336 407.874 199.304C407.909 199.282 407.949 199.271 407.991 199.271C408.032 199.271 408.072 199.282 408.107 199.304C408.14 199.345 408.168 199.39 408.191 199.438C408.223 199.492 408.268 199.539 408.321 199.574C408.374 199.609 408.434 199.632 408.497 199.64L408.423 200.135L407.721 199.433Z" fill="#727A9C"/>
<path d="M402.143 189.397C402.143 189.397 410.725 189.347 408.704 193.001C406.684 196.655 403.526 197.095 403.526 197.095L402.143 189.397Z" fill="#FFB0B1"/>
<path d="M348.765 25.4229H348.395C333.651 25.4229 320.611 33.2297 313.111 44.7496C305.611 33.2297 292.571 25.4229 277.827 25.4229H277.457C266.392 25.5284 255.816 29.9992 248.026 37.8637C240.237 45.7283 235.865 56.3511 235.859 67.4236C235.859 81.1733 241.877 100.683 253.612 116.737C275.97 147.326 313.111 174.089 313.111 174.089C313.111 174.089 350.252 147.331 372.606 116.737C384.345 100.683 390.359 81.1733 390.359 67.4236C390.353 56.3519 385.981 45.7299 378.192 37.8655C370.404 30.001 359.829 25.5297 348.765 25.4229ZM343.464 119.09C341.784 119.084 340.146 118.569 338.765 117.615C337.383 116.66 336.322 115.31 335.721 113.741H326.906C326.326 113.737 325.761 113.552 325.291 113.212C324.82 112.871 324.468 112.392 324.283 111.842L321.575 103.679L313.007 133.636C312.84 134.213 312.491 134.72 312.012 135.081C311.532 135.442 310.949 135.637 310.349 135.638H310.176C309.55 135.608 308.953 135.364 308.486 134.946C308.018 134.529 307.708 133.963 307.607 133.344L298.777 80.2043L292.324 111.649C292.176 112.247 291.833 112.777 291.348 113.156C290.864 113.535 290.266 113.741 289.651 113.741H277.234C276.862 113.756 276.491 113.697 276.142 113.565C275.794 113.433 275.475 113.232 275.206 112.974C274.937 112.716 274.723 112.407 274.577 112.064C274.431 111.721 274.356 111.352 274.356 110.979C274.356 110.606 274.431 110.238 274.577 109.895C274.723 109.552 274.937 109.242 275.206 108.984C275.475 108.726 275.794 108.525 276.142 108.394C276.491 108.262 276.862 108.202 277.234 108.218H287.477L296.618 65.9403C296.768 65.3153 297.13 64.7618 297.643 64.3745C298.156 63.9871 298.787 63.7901 299.429 63.8169C300.071 63.8438 300.683 64.0929 301.162 64.5217C301.641 64.9505 301.956 65.5323 302.053 66.1678L311.07 120.376L318.749 93.5733C318.909 93.0088 319.247 92.5112 319.712 92.1548C320.178 91.7983 320.747 91.6022 321.333 91.5956H321.387C321.968 91.5958 322.534 91.7795 323.004 92.1204C323.474 92.4613 323.825 92.9421 324.006 93.4942L328.902 108.233H335.612C336.089 106.782 336.958 105.492 338.121 104.505C339.285 103.517 340.699 102.87 342.206 102.635C343.714 102.401 345.257 102.588 346.666 103.175C348.074 103.763 349.293 104.729 350.187 105.966C351.082 107.203 351.617 108.663 351.735 110.185C351.852 111.707 351.547 113.233 350.853 114.592C350.159 115.952 349.103 117.094 347.802 117.891C346.5 118.688 345.004 119.11 343.478 119.11L343.464 119.09Z" fill="white"/>
</g>
<defs>
<linearGradient id="paint0_linear_539_2255" x1="176.063" y1="383.109" x2="176.063" y2="78.8746" gradientUnits="userSpaceOnUse">
<stop stop-color="#808080" stop-opacity="0.25"/>
<stop offset="0.54" stop-color="#808080" stop-opacity="0.12"/>
<stop offset="1" stop-color="#808080" stop-opacity="0.1"/>
</linearGradient>
<linearGradient id="paint1_linear_539_2255" x1="441.444" y1="379.262" x2="441.444" y2="101.4" gradientUnits="userSpaceOnUse">
<stop stop-color="#808080" stop-opacity="0.25"/>
<stop offset="0.54" stop-color="#808080" stop-opacity="0.12"/>
<stop offset="1" stop-color="#808080" stop-opacity="0.1"/>
</linearGradient>
<clipPath id="clip0_539_2255">
<rect width="546" height="387" fill="white"/>
</clipPath>
</defs>
</svg>
