<svg width="229" height="166" viewBox="0 0 229 166" fill="none" xmlns="http://www.w3.org/2000/svg">
<g clip-path="url(#clip0_170_5741)">
<path d="M145.93 124.445V164.461H45.6816C34.2596 164.461 24.9666 155.485 24.9666 144.453C24.9666 133.421 34.2596 124.445 45.6816 124.445H145.93Z" fill="#F2F2F2"/>
<path d="M148.393 164.153C148.393 164.561 148.23 164.953 147.942 165.241C147.653 165.53 147.262 165.692 146.854 165.692H43.896C38.3042 165.692 32.9414 163.471 28.9874 159.516C25.0334 155.562 22.812 150.199 22.812 144.607C22.812 139.015 25.0334 133.651 28.9874 129.697C32.9414 125.743 38.3042 123.521 43.896 123.521H146.854C147.262 123.521 147.653 123.684 147.942 123.972C148.231 124.261 148.393 124.652 148.393 125.061C148.393 125.469 148.231 125.86 147.942 126.149C147.653 126.437 147.262 126.6 146.854 126.6H43.896C39.1205 126.6 34.5406 128.497 31.1638 131.874C27.787 135.251 25.89 139.831 25.89 144.607C25.89 149.383 27.787 153.963 31.1638 157.34C34.5406 160.717 39.1205 162.614 43.896 162.614H146.854C147.262 162.614 147.653 162.776 147.942 163.065C148.23 163.353 148.393 163.745 148.393 164.153Z" fill="#3E94E7"/>
<path d="M145.93 133.679H38.2018C38.1202 133.679 38.0419 133.647 37.9842 133.589C37.9265 133.531 37.894 133.453 37.894 133.371C37.894 133.29 37.9265 133.211 37.9842 133.154C38.0419 133.096 38.1202 133.063 38.2018 133.063H145.93C146.012 133.063 146.09 133.096 146.148 133.154C146.206 133.211 146.238 133.29 146.238 133.371C146.238 133.453 146.206 133.531 146.148 133.589C146.09 133.647 146.012 133.679 145.93 133.679Z" fill="#CCCCCC"/>
<path d="M145.93 141.067H38.2018C38.1202 141.067 38.0419 141.034 37.9842 140.977C37.9265 140.919 37.894 140.841 37.894 140.759C37.894 140.677 37.9265 140.599 37.9842 140.541C38.0419 140.484 38.1202 140.451 38.2018 140.451H145.93C146.012 140.451 146.09 140.484 146.148 140.541C146.206 140.599 146.238 140.677 146.238 140.759C146.238 140.841 146.206 140.919 146.148 140.977C146.09 141.034 146.012 141.067 145.93 141.067Z" fill="#CCCCCC"/>
<path d="M145.93 148.454H38.2018C38.1202 148.454 38.0419 148.422 37.9842 148.364C37.9265 148.307 37.894 148.228 37.894 148.147C37.894 148.065 37.9265 147.987 37.9842 147.929C38.0419 147.871 38.1202 147.839 38.2018 147.839H145.93C146.012 147.839 146.09 147.871 146.148 147.929C146.206 147.987 146.238 148.065 146.238 148.147C146.238 148.228 146.206 148.307 146.148 148.364C146.09 148.422 146.012 148.454 145.93 148.454Z" fill="#CCCCCC"/>
<path d="M145.93 155.842H38.2018C38.1202 155.842 38.0419 155.81 37.9842 155.752C37.9265 155.694 37.894 155.616 37.894 155.534C37.894 155.453 37.9265 155.374 37.9842 155.317C38.0419 155.259 38.1202 155.227 38.2018 155.227H145.93C146.012 155.227 146.09 155.259 146.148 155.317C146.206 155.374 146.238 155.453 146.238 155.534C146.238 155.616 146.206 155.694 146.148 155.752C146.09 155.81 146.012 155.842 145.93 155.842Z" fill="#CCCCCC"/>
<path d="M223.408 131.978L198.303 163.138L120.241 100.236C111.347 93.0688 109.742 80.2485 116.663 71.658C123.585 63.0675 136.452 61.9092 145.346 69.0761L223.408 131.978Z" fill="#F2F2F2"/>
<path d="M200.413 164.442C200.157 164.76 199.785 164.963 199.379 165.007C198.974 165.05 198.567 164.931 198.249 164.675L118.078 100.073C113.724 96.5648 110.942 91.47 110.344 85.9099C109.745 80.3498 111.38 74.7799 114.889 70.4254C118.397 66.0708 123.492 63.2885 129.052 62.6904C134.611 62.0922 140.181 63.7274 144.535 67.236L224.706 131.838C224.864 131.965 224.995 132.121 225.092 132.298C225.189 132.476 225.25 132.671 225.271 132.872C225.293 133.073 225.275 133.276 225.218 133.47C225.161 133.664 225.067 133.845 224.94 134.002C224.813 134.16 224.656 134.291 224.479 134.388C224.301 134.485 224.107 134.545 223.906 134.567C223.705 134.589 223.501 134.57 223.307 134.513C223.113 134.456 222.932 134.362 222.775 134.235L142.604 69.6329C140.763 68.1481 138.647 67.0406 136.378 66.3737C134.109 65.7068 131.73 65.4935 129.379 65.746C127.027 65.9985 124.748 66.7119 122.672 67.8454C120.596 68.9789 118.764 70.5104 117.28 72.3522C115.796 74.194 114.69 76.3102 114.024 78.5798C113.358 80.8494 113.145 83.2281 113.399 85.5798C113.652 87.9315 114.366 90.2102 115.501 92.2858C116.635 94.3614 118.167 96.1932 120.009 97.6765L200.18 162.278C200.498 162.534 200.701 162.906 200.745 163.312C200.788 163.718 200.669 164.124 200.413 164.442Z" fill="#CCCCCC"/>
<path d="M217.614 139.168L133.728 71.5729C133.697 71.5475 133.671 71.5162 133.651 71.4807C133.632 71.4453 133.62 71.4063 133.615 71.3661C133.611 71.3259 133.615 71.2853 133.626 71.2465C133.637 71.2077 133.656 71.1715 133.682 71.1401C133.707 71.1086 133.738 71.0824 133.774 71.0631C133.809 71.0437 133.848 71.0315 133.888 71.0272C133.929 71.0228 133.969 71.0265 134.008 71.0378C134.047 71.0492 134.083 71.0682 134.114 71.0935L218 138.689C218.032 138.714 218.058 138.745 218.078 138.781C218.097 138.816 218.109 138.855 218.114 138.896C218.118 138.936 218.114 138.976 218.103 139.015C218.092 139.054 218.073 139.09 218.047 139.122C218.022 139.153 217.991 139.18 217.955 139.199C217.92 139.218 217.881 139.23 217.84 139.235C217.8 139.239 217.76 139.235 217.721 139.224C217.682 139.213 217.646 139.194 217.614 139.168Z" fill="#CCCCCC"/>
<path d="M212.979 144.921L129.093 77.3256C129.03 77.2743 128.989 77.2 128.981 77.1189C128.972 77.0377 128.996 76.9565 129.047 76.893C129.098 76.8295 129.173 76.7889 129.254 76.7801C129.335 76.7713 129.416 76.7951 129.48 76.8462L213.366 144.441C213.397 144.467 213.423 144.498 213.443 144.534C213.462 144.569 213.475 144.608 213.479 144.648C213.483 144.688 213.48 144.729 213.468 144.768C213.457 144.807 213.438 144.843 213.413 144.874C213.387 144.906 213.356 144.932 213.32 144.952C213.285 144.971 213.246 144.983 213.206 144.987C213.165 144.992 213.125 144.988 213.086 144.977C213.047 144.965 213.011 144.946 212.979 144.921Z" fill="#CCCCCC"/>
<path d="M208.345 150.673L124.459 83.0778C124.395 83.0266 124.354 82.9522 124.346 82.871C124.337 82.7898 124.361 82.7085 124.412 82.645C124.463 82.5814 124.538 82.5408 124.619 82.532C124.7 82.5233 124.781 82.5472 124.845 82.5984L208.731 150.194C208.762 150.219 208.789 150.25 208.808 150.286C208.827 150.321 208.84 150.36 208.844 150.4C208.848 150.441 208.845 150.481 208.833 150.52C208.822 150.559 208.803 150.595 208.778 150.626C208.752 150.658 208.721 150.684 208.685 150.703C208.65 150.723 208.611 150.735 208.571 150.739C208.531 150.744 208.49 150.74 208.451 150.729C208.412 150.717 208.376 150.698 208.345 150.673Z" fill="#CCCCCC"/>
<path d="M203.71 156.426L119.824 88.8307C119.792 88.8053 119.766 88.774 119.747 88.7385C119.727 88.7031 119.715 88.6641 119.711 88.6239C119.707 88.5837 119.71 88.5431 119.722 88.5043C119.733 88.4655 119.752 88.4294 119.777 88.3979C119.803 88.3664 119.834 88.3402 119.869 88.3209C119.905 88.3015 119.944 88.2893 119.984 88.285C120.024 88.2806 120.065 88.2843 120.104 88.2957C120.142 88.307 120.179 88.326 120.21 88.3513L204.096 155.947C204.128 155.972 204.154 156.003 204.173 156.039C204.193 156.074 204.205 156.113 204.209 156.153C204.214 156.194 204.21 156.234 204.199 156.273C204.187 156.312 204.168 156.348 204.143 156.38C204.118 156.411 204.086 156.437 204.051 156.457C204.015 156.476 203.976 156.488 203.936 156.493C203.896 156.497 203.855 156.493 203.816 156.482C203.777 156.47 203.741 156.451 203.71 156.426Z" fill="#CCCCCC"/>
<path d="M228.692 166H0.307796C0.226163 166 0.147874 165.968 0.090151 165.91C0.0324281 165.853 0 165.774 0 165.693C0 165.611 0.0324281 165.533 0.090151 165.475C0.147874 165.417 0.226163 165.385 0.307796 165.385H228.692C228.774 165.385 228.852 165.417 228.91 165.475C228.968 165.533 229 165.611 229 165.693C229 165.774 228.968 165.853 228.91 165.91C228.852 165.968 228.774 166 228.692 166Z" fill="#CCCCCC"/>
<path d="M104.06 120.239L100.541 120.238L98.8677 106.665L104.061 106.666L104.06 120.239Z" fill="#FFB8B8"/>
<path d="M98.0276 119.233H104.814V123.506H93.7548C93.7548 122.945 93.8653 122.39 94.08 121.871C94.2947 121.353 94.6095 120.882 95.0062 120.485C95.403 120.088 95.874 119.773 96.3924 119.559C96.9108 119.344 97.4664 119.233 98.0276 119.233Z" fill="#2F2E41"/>
<path d="M68.1109 120.239L64.5922 120.238L62.9187 106.665L68.1121 106.666L68.1109 120.239Z" fill="#FFB8B8"/>
<path d="M62.0787 119.233H68.8649V123.506H57.8059C57.8059 122.945 57.9164 122.39 58.1312 121.871C58.3459 121.353 58.6606 120.882 59.0574 120.485C59.4541 120.088 59.9252 119.773 60.4436 119.559C60.962 119.344 61.5176 119.233 62.0787 119.233Z" fill="#2F2E41"/>
<path d="M79.864 19.5559V18.0169C79.864 15.3841 80.9098 12.8591 82.7714 10.9974C84.633 9.13573 87.1578 8.08984 89.7904 8.08984C92.4231 8.08984 94.9479 9.13573 96.8095 10.9974C98.671 12.8591 99.7168 15.3841 99.7168 18.0169V19.5559C99.7168 21.454 98.9629 23.2744 97.6208 24.6165C96.2788 25.9586 94.4586 26.7126 92.5606 26.7126H87.0203C86.0805 26.7126 85.1499 26.5275 84.2817 26.1679C83.4135 25.8082 82.6246 25.2811 81.96 24.6165C81.2955 23.9519 80.7684 23.163 80.4088 22.2947C80.0491 21.4264 79.864 20.4958 79.864 19.5559Z" fill="#2F2E41"/>
<path d="M89.7904 27.2425C93.9655 27.2425 97.3502 23.8577 97.3502 19.6823C97.3502 15.5069 93.9655 12.1221 89.7904 12.1221C85.6152 12.1221 82.2306 15.5069 82.2306 19.6823C82.2306 23.8577 85.6152 27.2425 89.7904 27.2425Z" fill="#FFB8B8"/>
<path d="M48.6701 45.6657C48.9769 45.376 49.3434 45.1571 49.744 45.0244C50.1445 44.8917 50.5693 44.8484 50.9883 44.8976C51.4074 44.9469 51.8106 45.0874 52.1694 45.3093C52.5283 45.5312 52.8342 45.8291 53.0655 46.182L59.546 44.9561L61.2515 48.7128L52.0754 50.3155C51.4568 50.6648 50.7316 50.7751 50.0372 50.6253C49.3427 50.4756 48.7273 50.0764 48.3076 49.5032C47.8878 48.9301 47.6929 48.2228 47.7597 47.5156C47.8265 46.8083 48.1504 46.1501 48.6701 45.6657Z" fill="#FFB8B8"/>
<path d="M83.9814 32.1321L73.3545 39.1331L55.4229 44.8595C55.1852 44.9359 54.9813 45.0923 54.8459 45.3021C54.7106 45.5119 54.6521 45.7621 54.6805 46.0102L55.0716 49.3797C55.089 49.5288 55.1373 49.6727 55.2135 49.8021C55.2897 49.9314 55.3921 50.0434 55.5141 50.1309C55.6361 50.2184 55.775 50.2794 55.922 50.3101C56.069 50.3407 56.2207 50.3403 56.3675 50.3088L73.2439 46.6912C74.0606 46.5171 74.8329 46.1771 75.5128 45.6922L87.4515 37.1974C87.8843 36.8878 88.2297 36.4714 88.454 35.9888C88.6783 35.5062 88.7739 34.9738 88.7315 34.4433C88.6877 33.9121 88.5064 33.4014 88.2054 32.9615C87.9044 32.5216 87.4941 32.1677 87.0148 31.9345C86.5355 31.7013 86.0038 31.5968 85.4719 31.6315C84.9401 31.6661 84.4264 31.8387 83.9814 32.1321Z" fill="#CCCCCC"/>
<path d="M100.604 116.387C100.334 116.387 100.07 116.309 99.8435 116.161C99.6174 116.013 99.4391 115.803 99.3305 115.556L83.1989 75.6933C83.1613 75.6069 83.098 75.534 83.0177 75.4846C82.9374 75.4351 82.8439 75.4115 82.7497 75.4168C82.6556 75.4221 82.5653 75.4561 82.4911 75.5142C82.4168 75.5724 82.3622 75.6519 82.3345 75.742L69.1736 114.549C69.1181 114.73 69.0262 114.897 68.9036 115.041C68.7809 115.185 68.6302 115.302 68.4607 115.385C68.2911 115.469 68.1063 115.516 67.9176 115.526C67.7288 115.535 67.5402 115.506 67.3633 115.439L62.95 113.784C62.7105 113.695 62.5003 113.541 62.3429 113.34C62.1855 113.139 62.087 112.898 62.0583 112.644C60.0729 95.347 77.3866 51.6874 77.5617 51.2485L77.6102 51.127L93.3931 54.6184L93.4259 54.6542C99.7227 61.524 104.899 104.853 105.872 113.469C105.908 113.781 105.838 114.095 105.671 114.361C105.505 114.626 105.253 114.827 104.958 114.931L101.062 116.308C100.915 116.36 100.76 116.387 100.604 116.387Z" fill="#2F2E41"/>
<path d="M87.0053 56.0236C83.1814 56.0236 78.9182 55.2612 77.6059 52.1142L77.5757 52.0419L77.6165 51.9749C78.6523 50.2753 80.0213 47.376 79.2855 46.8317C77.836 45.76 77.1327 43.9968 77.1951 41.5911C77.3307 36.3688 80.8888 31.7322 86.0491 30.0535C87.4895 29.5925 88.9554 29.215 90.4393 28.923C91.5211 28.7047 92.6378 28.7288 93.7092 28.9934C94.7806 29.258 95.7801 29.7566 96.636 30.4534C97.5026 31.1548 98.2031 32.0394 98.6871 33.0438C99.1712 34.0481 99.4268 35.1472 99.4357 36.262C99.4898 41.843 98.6306 49.6161 94.2302 54.9526C94.0239 55.2002 93.737 55.3671 93.4198 55.4239C91.3027 55.8069 89.1567 56.0075 87.0053 56.0236Z" fill="#CCCCCC"/>
<path d="M85.583 55.8148C85.7911 55.0683 86.2854 54.434 86.9585 54.0499C87.6315 53.6658 88.429 53.5629 89.1775 53.7635C89.3304 53.8062 89.4794 53.8614 89.6232 53.9285L94.5438 49.4502L97.9659 51.7558L90.9291 57.9832C90.6114 58.5561 90.1112 59.0063 89.5081 59.2621C88.905 59.518 88.2336 59.5647 87.6009 59.395C87.2323 59.2941 86.8873 59.1212 86.586 58.8862C86.2847 58.6511 86.0329 58.3587 85.8452 58.0258C85.6576 57.6929 85.5378 57.3261 85.4928 56.9466C85.4478 56.5671 85.4784 56.1824 85.583 55.8148Z" fill="#FFB8B8"/>
<path d="M93.7644 55.8723C93.4451 55.8725 93.1356 55.7621 92.8885 55.5598L90.9481 53.974C90.7863 53.8418 90.6565 53.6747 90.5685 53.4853C90.4804 53.2958 90.4364 53.0889 90.4396 52.88C90.4428 52.6711 90.4933 52.4657 90.5871 52.279C90.681 52.0924 90.8159 51.9294 90.9816 51.8023L99.1203 45.5599C99.2167 45.4855 99.28 45.3761 99.2963 45.2554C99.3127 45.1347 99.2808 45.0124 99.2075 44.9151L94.1842 38.2736C93.6006 37.5046 93.3078 36.5539 93.3578 35.5897C93.4078 34.6256 93.7973 33.7102 94.4573 33.0056C95.1525 32.2548 96.1044 31.7928 97.1243 31.7112C98.1442 31.6297 99.1575 31.9345 99.9631 32.5652L99.9949 32.5988L105.24 40.1102C105.808 40.5549 106.264 41.1248 106.575 41.7753C106.885 42.4257 107.041 43.1392 107.031 43.86C107.02 44.5807 106.843 45.2892 106.513 45.9302C106.183 46.5711 105.71 47.1271 105.129 47.5548L94.5888 55.6007C94.3501 55.7771 94.0612 55.8723 93.7644 55.8723Z" fill="#CCCCCC"/>
<path d="M83.0941 17.5552V13.8041L89.7904 10.8799L96.1754 13.8041V17.5552C96.1754 17.7185 96.1106 17.8751 95.9951 17.9905C95.8797 18.106 95.7231 18.1708 95.5598 18.1708H83.7097C83.5464 18.1708 83.3899 18.106 83.2744 17.9905C83.159 17.8751 83.0941 17.7185 83.0941 17.5552Z" fill="#2F2E41"/>
<path d="M89.483 8.5879C88.4984 5.43634 90.5662 1.8245 93.6231 0.577032C96.68 -0.670438 100.337 0.201582 102.917 2.26259C105.496 4.3236 107.096 7.4106 107.944 10.6016C108.792 13.7927 108.953 17.1202 109.11 20.4183C112.866 21.1082 115.42 25.5632 114.119 29.1535C112.818 32.7439 108.003 34.5276 104.677 32.651C101.351 30.7744 100.388 25.7299 102.788 22.7598C103.924 21.3544 104.558 19.6102 104.591 17.8035C104.624 15.9968 104.053 14.2309 102.968 12.7854C101.884 11.3399 100.349 10.2975 98.605 9.82322C96.8615 9.34898 95.0096 9.47002 93.3426 10.1672C91.4916 10.9413 89.169 8.92996 89.483 8.5879Z" fill="#2F2E41"/>
<path d="M47.2817 31.1147C42.785 31.0852 38.3445 30.1126 34.2472 28.2598C34.0032 28.1511 33.7962 27.9738 33.6513 27.7495C33.5064 27.5252 33.4298 27.2635 33.4309 26.9965V15.7865C33.4313 15.4193 33.5774 15.0672 33.8371 14.8075C34.0967 14.5478 34.4488 14.4018 34.816 14.4014H59.7475C60.1147 14.4018 60.4667 14.5479 60.7264 14.8075C60.9861 15.0672 61.1321 15.4193 61.1325 15.7865V26.9965C61.1336 27.2636 61.0571 27.5252 60.9122 27.7495C60.7672 27.9738 60.5602 28.1511 60.3163 28.2598C56.2189 30.1126 51.7784 31.0852 47.2817 31.1147Z" fill="#3E94E7"/>
<path d="M47.2784 22.0332C47.0935 22.0333 46.9105 21.9965 46.7401 21.9249L26.9698 13.5833C26.7149 13.4757 26.498 13.2943 26.3471 13.0623C26.1963 12.8303 26.1183 12.5584 26.1234 12.2818C26.1285 12.0051 26.2163 11.7363 26.3756 11.51C26.5348 11.2837 26.7582 11.1103 27.0169 11.0121L46.7875 3.51138C47.106 3.39002 47.458 3.39077 47.7759 3.51349L67.2816 11.0142C67.5389 11.1131 67.7607 11.2866 67.9189 11.5123C68.077 11.7381 68.1642 12.0059 68.1693 12.2815C68.1744 12.5571 68.0972 12.8279 67.9475 13.0594C67.7978 13.2908 67.5824 13.4724 67.329 13.5807L47.8231 21.9222C47.6509 21.9956 47.4656 22.0333 47.2784 22.0332Z" fill="#3E94E7"/>
<path d="M35.7395 29.0229C36.7594 29.0229 37.5862 28.196 37.5862 27.176C37.5862 26.156 36.7594 25.3291 35.7395 25.3291C34.7195 25.3291 33.8927 26.156 33.8927 27.176C33.8927 28.196 34.7195 29.0229 35.7395 29.0229Z" fill="#3F3D56"/>
<path opacity="0.2" d="M67.3964 12.3969L47.8904 20.7384C47.7384 20.8034 47.5747 20.8371 47.4094 20.8375C47.244 20.8379 47.0802 20.805 46.9278 20.7407L27.1575 12.3993C26.9092 12.2971 26.7021 12.115 26.5688 11.8819C26.4816 12.033 26.4276 12.201 26.4103 12.3747C26.3931 12.5483 26.4129 12.7237 26.4686 12.8891C26.5243 13.0545 26.6145 13.2061 26.7333 13.334C26.852 13.4618 26.9967 13.5629 27.1575 13.6306L46.9278 21.972C47.0802 22.0363 47.244 22.0692 47.4094 22.0688C47.5747 22.0684 47.7384 22.0347 47.8904 21.9697L67.3964 13.6281C67.5564 13.5599 67.7001 13.4584 67.8181 13.3305C67.936 13.2026 68.0255 13.0512 68.0806 12.8861C68.1357 12.7211 68.1552 12.5463 68.1378 12.3731C68.1204 12.2 68.0664 12.0326 67.9795 11.8818C67.8472 12.1131 67.6422 12.2942 67.3964 12.3969Z" fill="black"/>
<path d="M35.8946 27.1689C35.9762 27.1689 36.0545 27.1364 36.1122 27.0787C36.17 27.021 36.2024 26.9427 36.2024 26.861V16.5611L46.3539 12.8627C46.4355 12.8639 46.5143 12.8327 46.5728 12.7758C46.6314 12.7189 46.665 12.6411 46.6662 12.5595C46.6675 12.4778 46.6362 12.3991 46.5793 12.3405C46.5225 12.2819 46.4447 12.2483 46.363 12.2471L36.2116 15.9455C36.1299 15.9436 36.0486 15.9583 35.9728 15.9888C35.897 16.0192 35.8281 16.0647 35.7704 16.1226C35.712 16.1797 35.6657 16.2479 35.6342 16.3233C35.6027 16.3986 35.5865 16.4795 35.5868 16.5611V26.861C35.5868 26.9427 35.6192 27.021 35.677 27.0787C35.7347 27.1364 35.813 27.1688 35.8946 27.1689Z" fill="#3F3D56"/>
</g>
<defs>
<clipPath id="clip0_170_5741">
<rect width="229" height="166" fill="white"/>
</clipPath>
</defs>
</svg>
