<svg width="396" height="287" viewBox="0 0 396 287" fill="none" xmlns="http://www.w3.org/2000/svg">
<g clip-path="url(#clip0_174_6146)">
<path d="M252.351 215.155V284.339H78.9955C59.2439 284.339 43.1738 268.821 43.1738 249.747C43.1738 230.674 59.2439 215.155 78.9955 215.155H252.351Z" fill="#F2F2F2"/>
<path d="M256.609 283.807C256.609 284.513 256.328 285.189 255.829 285.688C255.33 286.187 254.654 286.468 253.948 286.468H75.9074C66.2377 286.468 56.9641 282.627 50.1266 275.791C43.289 268.954 39.4478 259.682 39.4478 250.013C39.4478 240.345 43.289 231.072 50.1266 224.236C56.9641 217.399 66.2377 213.559 75.9074 213.559H253.948C254.654 213.559 255.331 213.839 255.83 214.338C256.329 214.837 256.609 215.514 256.609 216.22C256.609 216.925 256.329 217.602 255.83 218.101C255.331 218.6 254.654 218.88 253.948 218.88H75.9074C67.6494 218.88 59.7295 222.161 53.8902 227.999C48.0508 233.838 44.7703 241.756 44.7703 250.013C44.7703 258.27 48.0508 266.189 53.8902 272.028C59.7295 277.866 67.6494 281.146 75.9074 281.146H253.948C254.654 281.146 255.33 281.427 255.829 281.926C256.328 282.425 256.609 283.101 256.609 283.807Z" fill="#FF704A"/>
<path d="M252.351 231.121H66.0606C65.9194 231.121 65.784 231.065 65.6842 230.965C65.5844 230.865 65.5283 230.73 65.5283 230.589C65.5283 230.448 65.5844 230.312 65.6842 230.213C65.784 230.113 65.9194 230.057 66.0606 230.057H252.351C252.492 230.057 252.627 230.113 252.727 230.213C252.827 230.312 252.883 230.448 252.883 230.589C252.883 230.73 252.827 230.865 252.727 230.965C252.627 231.065 252.492 231.121 252.351 231.121Z" fill="#CCCCCC"/>
<path d="M252.351 243.893H66.0606C65.9194 243.893 65.784 243.837 65.6842 243.738C65.5844 243.638 65.5283 243.502 65.5283 243.361C65.5283 243.22 65.5844 243.085 65.6842 242.985C65.784 242.885 65.9194 242.829 66.0606 242.829H252.351C252.492 242.829 252.627 242.885 252.727 242.985C252.827 243.085 252.883 243.22 252.883 243.361C252.883 243.502 252.827 243.638 252.727 243.738C252.627 243.837 252.492 243.893 252.351 243.893Z" fill="#CCCCCC"/>
<path d="M252.351 256.666H66.0606C65.9194 256.666 65.784 256.61 65.6842 256.51C65.5844 256.41 65.5283 256.275 65.5283 256.134C65.5283 255.993 65.5844 255.857 65.6842 255.757C65.784 255.658 65.9194 255.602 66.0606 255.602H252.351C252.492 255.602 252.627 255.658 252.727 255.757C252.827 255.857 252.883 255.993 252.883 256.134C252.883 256.275 252.827 256.41 252.727 256.51C252.627 256.61 252.492 256.666 252.351 256.666Z" fill="#CCCCCC"/>
<path d="M252.351 269.437H66.0606C65.9194 269.437 65.784 269.381 65.6842 269.282C65.5844 269.182 65.5283 269.046 65.5283 268.905C65.5283 268.764 65.5844 268.629 65.6842 268.529C65.784 268.429 65.9194 268.373 66.0606 268.373H252.351C252.492 268.373 252.627 268.429 252.727 268.529C252.827 268.629 252.883 268.764 252.883 268.905C252.883 269.046 252.827 269.182 252.727 269.282C252.627 269.381 252.492 269.437 252.351 269.437Z" fill="#CCCCCC"/>
<path d="M386.33 228.178L342.916 282.05L207.928 173.298C192.548 160.907 189.772 138.742 201.741 123.89C213.71 109.037 235.961 107.035 251.341 119.426L386.33 228.178Z" fill="#F2F2F2"/>
<path d="M346.566 284.308C346.123 284.857 345.48 285.208 344.778 285.283C344.076 285.359 343.373 285.153 342.824 284.71L204.187 173.019C196.658 166.953 191.847 158.145 190.812 148.532C189.778 138.919 192.605 129.289 198.672 121.76C204.739 114.232 213.549 109.421 223.163 108.387C232.777 107.353 242.409 110.18 249.938 116.246L388.575 227.937C388.847 228.156 389.074 228.427 389.241 228.734C389.409 229.04 389.515 229.377 389.552 229.725C389.59 230.072 389.558 230.424 389.46 230.759C389.362 231.095 389.198 231.407 388.979 231.679C388.759 231.952 388.488 232.178 388.182 232.345C387.875 232.513 387.538 232.618 387.19 232.656C386.843 232.693 386.491 232.661 386.156 232.563C385.82 232.464 385.508 232.3 385.235 232.081L246.599 120.39C243.415 117.823 239.757 115.908 235.833 114.755C231.909 113.602 227.796 113.233 223.729 113.67C219.662 114.107 215.722 115.34 212.132 117.3C208.542 119.259 205.374 121.907 202.807 125.091C200.241 128.276 198.328 131.935 197.176 135.859C196.024 139.783 195.657 143.895 196.095 147.961C196.534 152.027 197.769 155.966 199.73 159.555C201.692 163.144 204.341 166.311 207.527 168.875L346.163 280.566C346.713 281.009 347.064 281.652 347.139 282.353C347.215 283.055 347.008 283.758 346.566 284.308Z" fill="#CCCCCC"/>
<path d="M376.311 240.61L231.251 123.743C231.196 123.7 231.151 123.645 231.117 123.584C231.084 123.523 231.063 123.455 231.055 123.386C231.048 123.316 231.054 123.246 231.074 123.179C231.094 123.112 231.126 123.05 231.17 122.995C231.214 122.941 231.268 122.895 231.329 122.862C231.391 122.828 231.458 122.807 231.528 122.8C231.597 122.792 231.667 122.799 231.734 122.818C231.801 122.838 231.864 122.871 231.918 122.915L376.979 239.781C377.034 239.825 377.079 239.879 377.113 239.94C377.146 240.002 377.167 240.069 377.175 240.139C377.182 240.208 377.176 240.279 377.156 240.346C377.137 240.413 377.104 240.475 377.06 240.53C377.016 240.584 376.962 240.63 376.901 240.663C376.839 240.697 376.772 240.718 376.702 240.725C376.633 240.733 376.562 240.726 376.495 240.706C376.428 240.687 376.366 240.654 376.311 240.61Z" fill="#CCCCCC"/>
<path d="M368.296 250.556L223.236 133.689C223.126 133.601 223.056 133.472 223.041 133.332C223.026 133.192 223.067 133.051 223.156 132.941C223.244 132.832 223.373 132.761 223.513 132.746C223.653 132.731 223.794 132.772 223.904 132.861L368.964 249.727C369.019 249.771 369.064 249.825 369.098 249.886C369.131 249.948 369.153 250.015 369.16 250.085C369.168 250.154 369.161 250.224 369.142 250.292C369.122 250.359 369.089 250.421 369.045 250.476C369.001 250.53 368.947 250.575 368.886 250.609C368.825 250.642 368.757 250.664 368.688 250.671C368.618 250.678 368.548 250.672 368.481 250.652C368.413 250.633 368.351 250.6 368.296 250.556Z" fill="#CCCCCC"/>
<path d="M360.281 260.502L215.221 143.635C215.111 143.547 215.041 143.418 215.026 143.278C215.01 143.137 215.052 142.997 215.14 142.887C215.229 142.777 215.357 142.707 215.498 142.692C215.638 142.676 215.779 142.718 215.889 142.806L360.949 259.673C361.004 259.717 361.049 259.771 361.082 259.832C361.116 259.893 361.137 259.961 361.145 260.03C361.152 260.1 361.146 260.17 361.126 260.237C361.106 260.304 361.074 260.367 361.03 260.421C360.986 260.475 360.932 260.521 360.87 260.554C360.809 260.588 360.742 260.609 360.672 260.616C360.603 260.624 360.532 260.617 360.465 260.598C360.398 260.578 360.336 260.545 360.281 260.502Z" fill="#CCCCCC"/>
<path d="M352.267 270.447L207.206 153.58C207.152 153.537 207.106 153.482 207.073 153.421C207.039 153.36 207.018 153.292 207.011 153.223C207.003 153.153 207.01 153.083 207.029 153.016C207.049 152.949 207.082 152.886 207.126 152.832C207.169 152.778 207.224 152.732 207.285 152.699C207.346 152.665 207.414 152.644 207.483 152.637C207.553 152.629 207.623 152.636 207.69 152.655C207.757 152.675 207.82 152.708 207.874 152.752L352.935 269.618C352.989 269.662 353.035 269.716 353.068 269.777C353.102 269.839 353.123 269.906 353.13 269.976C353.138 270.045 353.132 270.115 353.112 270.183C353.092 270.25 353.06 270.312 353.016 270.367C352.972 270.421 352.918 270.466 352.856 270.5C352.795 270.533 352.727 270.555 352.658 270.562C352.588 270.569 352.518 270.563 352.451 270.543C352.384 270.524 352.321 270.491 352.267 270.447Z" fill="#CCCCCC"/>
<path d="M395.468 287H0.532258C0.391094 287 0.255712 286.944 0.155894 286.844C0.0560766 286.744 0 286.609 0 286.468C0 286.327 0.0560766 286.191 0.155894 286.091C0.255712 285.992 0.391094 285.936 0.532258 285.936H395.468C395.609 285.936 395.744 285.992 395.844 286.091C395.944 286.191 396 286.327 396 286.468C396 286.609 395.944 286.744 395.844 286.844C395.744 286.944 395.609 287 395.468 287Z" fill="#CCCCCC"/>
<path d="M179.946 207.883L173.862 207.882L170.968 184.415L179.949 184.416L179.946 207.883Z" fill="#FFB8B8"/>
<path d="M169.515 206.145H181.25V213.532H162.126C162.126 212.562 162.317 211.601 162.688 210.705C163.06 209.809 163.604 208.994 164.29 208.308C164.976 207.622 165.791 207.078 166.687 206.707C167.584 206.336 168.544 206.145 169.515 206.145Z" fill="#2F2E41"/>
<path d="M117.781 207.883L111.697 207.882L108.803 184.415L117.784 184.416L117.781 207.883Z" fill="#FFB8B8"/>
<path d="M107.35 206.145H119.085V213.532H99.9614C99.9614 212.562 100.153 211.601 100.524 210.705C100.895 209.809 101.439 208.994 102.126 208.308C102.812 207.622 103.626 207.078 104.523 206.707C105.419 206.336 106.38 206.145 107.35 206.145Z" fill="#2F2E41"/>
<path d="M138.105 33.8112V31.1503C138.105 26.5984 139.914 22.2329 143.133 19.0142C146.352 15.7955 150.718 13.9873 155.271 13.9873C159.823 13.9873 164.189 15.7955 167.409 19.0142C170.628 22.2329 172.436 26.5984 172.436 31.1503V33.8112C172.436 37.0928 171.132 40.24 168.812 42.5605C166.491 44.8809 163.343 46.1845 160.061 46.1845H150.481C148.855 46.1846 147.246 45.8645 145.745 45.2427C144.243 44.6209 142.879 43.7095 141.73 42.5605C140.581 41.4115 139.669 40.0475 139.047 38.5463C138.426 37.0451 138.105 35.4361 138.105 33.8112Z" fill="#2F2E41"/>
<path d="M155.271 47.1C162.49 47.1 168.343 41.2479 168.343 34.029C168.343 26.8101 162.49 20.958 155.271 20.958C148.051 20.958 142.198 26.8101 142.198 34.029C142.198 41.2479 148.051 47.1 155.271 47.1Z" fill="#FFB8B8"/>
<path d="M84.163 78.9528C84.6935 78.4519 85.3274 78.0734 86.02 77.844C86.7126 77.6146 87.4471 77.5398 88.1718 77.6249C88.8964 77.71 89.5936 77.9529 90.2142 78.3366C90.8348 78.7203 91.3638 79.2353 91.7637 79.8455L102.97 77.7259L105.919 84.221L90.0516 86.992C88.9819 87.5959 87.7278 87.7865 86.527 87.5276C85.3261 87.2688 84.2619 86.5785 83.5361 85.5876C82.8102 84.5966 82.4731 83.3739 82.5887 82.1511C82.7042 80.9282 83.2643 79.7903 84.163 78.9528Z" fill="#FFB8B8"/>
<path d="M145.225 55.5544L126.849 67.6587L95.8403 77.559C95.4293 77.6911 95.0767 77.9615 94.8427 78.3243C94.6086 78.687 94.5075 79.1196 94.5565 79.5485L95.233 85.3741C95.263 85.632 95.3465 85.8807 95.4783 86.1043C95.6101 86.328 95.7871 86.5216 95.9981 86.6729C96.2091 86.8241 96.4494 86.9296 96.7035 86.9826C96.9576 87.0356 97.2201 87.0349 97.4739 86.9805L126.657 80.7259C128.07 80.4249 129.405 79.837 130.581 78.9987L151.226 64.312C151.975 63.7767 152.572 63.0568 152.96 62.2224C153.347 61.388 153.513 60.4675 153.439 59.5503C153.364 58.6319 153.05 57.7489 152.53 56.9884C152.009 56.2279 151.3 55.6159 150.471 55.2128C149.642 54.8096 148.723 54.6291 147.803 54.689C146.883 54.7489 145.995 55.0471 145.225 55.5544Z" fill="#CCCCCC"/>
<path d="M173.97 201.224C173.503 201.224 173.046 201.088 172.655 200.833C172.264 200.577 171.956 200.214 171.768 199.786L143.872 130.868C143.807 130.718 143.698 130.592 143.559 130.507C143.42 130.421 143.258 130.38 143.095 130.39C142.933 130.399 142.777 130.458 142.648 130.558C142.52 130.659 142.425 130.796 142.377 130.952L119.619 198.046C119.523 198.359 119.364 198.648 119.152 198.897C118.94 199.145 118.679 199.348 118.386 199.492C118.093 199.636 117.773 199.719 117.447 199.735C117.12 199.751 116.794 199.7 116.488 199.585L108.857 196.724C108.442 196.57 108.079 196.304 107.807 195.956C107.535 195.608 107.364 195.191 107.315 194.752C103.881 164.847 133.821 89.3635 134.124 88.6048L134.208 88.3945L161.501 94.431L161.557 94.4928C172.446 106.37 181.396 181.283 183.08 196.179C183.143 196.718 183.02 197.261 182.733 197.72C182.445 198.179 182.01 198.527 181.499 198.706L174.762 201.088C174.508 201.178 174.24 201.224 173.97 201.224Z" fill="#2F2E41"/>
<path d="M150.455 96.8609C143.842 96.8609 136.47 95.5427 134.201 90.1018L134.149 89.9768L134.219 89.8609C136.01 86.9225 138.378 81.9098 137.105 80.9689C134.599 79.1159 133.383 76.0675 133.49 71.9082C133.725 62.8793 139.878 54.863 148.801 51.9606C151.292 51.1636 153.827 50.5111 156.393 50.0063C158.264 49.6288 160.195 49.6704 162.048 50.1278C163.9 50.5853 165.629 51.4474 167.109 52.6521C168.607 53.8648 169.819 55.3942 170.656 57.1306C171.493 58.867 171.935 60.7673 171.95 62.6948C172.044 72.3438 170.558 85.7827 162.949 95.0092C162.592 95.4373 162.096 95.7258 161.547 95.8241C157.886 96.4862 154.175 96.8331 150.455 96.8609Z" fill="#CCCCCC"/>
<path d="M147.995 96.499C148.355 95.2083 149.21 94.1117 150.374 93.4476C151.537 92.7835 152.916 92.6056 154.211 92.9524C154.475 93.0263 154.733 93.1217 154.982 93.2378L163.491 85.4951L169.408 89.4813L157.24 100.248C156.69 101.238 155.825 102.017 154.782 102.459C153.74 102.901 152.579 102.982 151.484 102.689C150.847 102.514 150.251 102.215 149.729 101.809C149.208 101.403 148.773 100.897 148.449 100.322C148.124 99.746 147.917 99.1118 147.839 98.4557C147.761 97.7996 147.814 97.1345 147.995 96.499Z" fill="#FFB8B8"/>
<path d="M162.143 96.5976C161.591 96.5979 161.055 96.407 160.628 96.0574L157.273 93.3156C156.993 93.0871 156.768 92.7982 156.616 92.4707C156.464 92.1431 156.388 91.7854 156.393 91.4242C156.399 91.0631 156.486 90.7079 156.648 90.3852C156.811 90.0625 157.044 89.7808 157.331 89.561L171.404 78.7684C171.571 78.6398 171.681 78.4507 171.709 78.242C171.737 78.0333 171.682 77.8218 171.555 77.6536L162.869 66.1711C161.859 64.8414 161.353 63.1977 161.44 61.5307C161.526 59.8638 162.2 58.2812 163.341 57.0631C164.543 55.765 166.189 54.9662 167.953 54.8252C169.717 54.6842 171.469 55.2112 172.862 56.3017L172.917 56.3597L181.988 69.3462C182.968 70.1152 183.758 71.1004 184.295 72.2251C184.832 73.3497 185.102 74.5832 185.084 75.8294C185.065 77.0755 184.759 78.3004 184.188 79.4085C183.618 80.5167 182.799 81.478 181.796 82.2174L163.568 96.128C163.156 96.433 162.656 96.5976 162.143 96.5976Z" fill="#CCCCCC"/>
<path d="M143.691 30.3526V23.8673L155.271 18.8115L166.312 23.8673V30.3526C166.312 30.6349 166.2 30.9056 166.001 31.1052C165.801 31.3048 165.53 31.4169 165.248 31.4169H144.756C144.474 31.4169 144.203 31.3048 144.003 31.1052C143.804 30.9056 143.691 30.6349 143.691 30.3526Z" fill="#2F2E41"/>
<path d="M154.739 14.8478C153.037 9.39898 156.612 3.15441 161.899 0.99764C167.185 -1.15913 173.509 0.348518 177.969 3.91183C182.43 7.47514 185.197 12.8123 186.664 18.3293C188.13 23.8464 188.408 29.5993 188.679 35.3015C195.174 36.4943 199.592 44.1965 197.342 50.404C195.092 56.6114 186.765 59.6953 181.013 56.4508C175.262 53.2064 173.597 44.4849 177.747 39.3498C179.711 36.9199 180.808 33.9044 180.865 30.7808C180.921 27.6572 179.934 24.604 178.059 22.1049C176.184 19.6057 173.529 17.8034 170.514 16.9835C167.499 16.1636 164.296 16.3729 161.413 17.5782C158.213 18.9166 154.196 15.4392 154.739 14.8478Z" fill="#2F2E41"/>
<path d="M81.7622 53.7944C73.9862 53.7434 66.3075 52.0618 59.222 48.8584C58.8003 48.6705 58.4423 48.364 58.1917 47.9762C57.941 47.5884 57.8086 47.1361 57.8106 46.6744V27.2933C57.8113 26.6583 58.0638 26.0496 58.5129 25.6006C58.9619 25.1517 59.5707 24.8991 60.2057 24.8984H103.319C103.954 24.8992 104.562 25.1517 105.011 25.6007C105.461 26.0496 105.713 26.6583 105.714 27.2933V46.6744C105.716 47.1361 105.583 47.5884 105.333 47.9762C105.082 48.364 104.724 48.6705 104.302 48.8585C97.2169 52.0619 89.5381 53.7434 81.7622 53.7944Z" fill="#FF704A"/>
<path d="M81.7566 38.0941C81.437 38.0944 81.1206 38.0307 80.8259 37.907L46.6379 23.485C46.197 23.299 45.822 22.9853 45.5611 22.5842C45.3002 22.1831 45.1655 21.7131 45.1742 21.2347C45.183 20.7564 45.3349 20.2916 45.6103 19.9004C45.8857 19.5091 46.272 19.2093 46.7194 19.0396L80.9078 6.07148C81.4585 5.86165 82.0673 5.86294 82.6171 6.07512L116.347 19.0432C116.792 19.2143 117.176 19.5142 117.449 19.9045C117.723 20.2948 117.874 20.7578 117.882 21.2343C117.891 21.7108 117.758 22.179 117.499 22.5792C117.24 22.9793 116.868 23.2932 116.429 23.4805L82.6987 37.9023C82.4008 38.0291 82.0804 38.0944 81.7566 38.0941Z" fill="#FF704A"/>
<path d="M61.8029 50.1772C63.5667 50.1772 64.9965 48.7476 64.9965 46.9841C64.9965 45.2206 63.5667 43.791 61.8029 43.791C60.0392 43.791 58.6094 45.2206 58.6094 46.9841C58.6094 48.7476 60.0392 50.1772 61.8029 50.1772Z" fill="#3F3D56"/>
<path opacity="0.2" d="M116.546 21.4334L82.8147 35.8552C82.5518 35.9676 82.2688 36.0259 81.9828 36.0266C81.6968 36.0273 81.4136 35.9704 81.1501 35.8592L46.9622 21.4377C46.5328 21.2609 46.1746 20.9461 45.9442 20.543C45.7934 20.8044 45.7 21.0948 45.6701 21.395C45.6402 21.6953 45.6746 21.9984 45.7709 22.2844C45.8671 22.5703 46.0232 22.8325 46.2285 23.0536C46.4339 23.2746 46.684 23.4494 46.9622 23.5664L81.1501 37.988C81.4136 38.0991 81.6968 38.1561 81.9828 38.1554C82.2688 38.1547 82.5518 38.0964 82.8147 37.984L116.546 23.5622C116.822 23.4441 117.071 23.2688 117.275 23.0476C117.479 22.8265 117.633 22.5646 117.729 22.2793C117.824 21.994 117.858 21.6917 117.828 21.3924C117.797 21.0931 117.704 20.8036 117.554 20.543C117.325 20.9428 116.971 21.2558 116.546 21.4334Z" fill="black"/>
<path d="M62.0708 46.9723C62.212 46.9723 62.3474 46.9163 62.4472 46.8165C62.547 46.7167 62.6031 46.5813 62.6031 46.4401V28.6325L80.1576 22.2382C80.2988 22.2403 80.435 22.1862 80.5363 22.0879C80.6376 21.9896 80.6957 21.8551 80.6978 21.7139C80.6999 21.5728 80.6458 21.4366 80.5475 21.3353C80.4492 21.234 80.3146 21.1759 80.1735 21.1738L62.6189 27.5681C62.4777 27.5649 62.3372 27.5903 62.2061 27.6429C62.075 27.6955 61.9559 27.7742 61.856 27.8742C61.7551 27.973 61.6751 28.091 61.6205 28.2212C61.566 28.3515 61.5382 28.4913 61.5386 28.6325V46.4401C61.5386 46.5813 61.5947 46.7166 61.6945 46.8164C61.7943 46.9163 61.9297 46.9723 62.0708 46.9723Z" fill="#3F3D56"/>
</g>
<defs>
<clipPath id="clip0_174_6146">
<rect width="396" height="287" fill="white"/>
</clipPath>
</defs>
</svg>
