<svg width="154" height="156" viewBox="0 0 154 156" fill="none" xmlns="http://www.w3.org/2000/svg">
<path d="M152.664 53.5711L128.049 46.0247C127.504 45.8577 126.933 45.7968 126.366 45.8452L1.61059 56.4783C-0.168181 56.6299 -0.615219 59.0326 0.989658 59.8156L4.9858 61.7653H4.87925V155.1H8.64478V63.5505L21.169 69.661C22.1273 70.1286 23.1967 70.3194 24.2572 70.2121L25.5897 70.0773V155.1H29.3553V69.6964L125.847 59.9354V155.1H129.613V59.5545L145.616 57.9356V155.1H149.382V57.5546L152.302 57.2593C154.351 57.0519 154.634 54.175 152.664 53.5711Z" fill="#3F3D56"/>
<path d="M37.8276 56.1087C40.1811 56.1087 75.0124 51.8662 75.0124 51.8662L80.19 58.937L43.9466 66.0078L37.8276 56.1087Z" fill="white"/>
<path d="M76.0556 151.474L70.0042 151.463L67.1655 128.082L76.0969 128.098L76.0556 151.474Z" fill="#A0616A"/>
<path d="M55.323 151.301C55.1341 151.618 55.0329 152.644 55.0322 153.014C55.0303 154.15 55.9483 155.072 57.0826 155.074L75.8233 155.106C76.5971 155.108 77.2255 154.48 77.2269 153.705L77.2282 152.924C77.2282 152.924 78.1593 150.577 76.2556 147.679C76.2556 147.679 73.8794 149.942 70.3408 146.386L69.2987 144.487L61.7225 150.016L57.5275 150.526C56.6097 150.638 55.7964 150.506 55.323 151.301Z" fill="#2F2E41"/>
<path d="M108.534 140.603L103.76 144.21L87.5967 127.483L94.6434 122.16L108.534 140.603Z" fill="#A0616A"/>
<path d="M92.0954 152.853C92.1356 153.216 92.6667 154.084 92.8863 154.376C93.5614 155.272 94.8342 155.45 95.7291 154.774L110.514 143.604C111.125 143.143 111.247 142.273 110.786 141.662L110.322 141.046C110.322 141.046 109.657 138.64 106.431 137.494C106.431 137.494 105.907 140.696 101 140.008L99.0487 139.135L96.3725 148.018L93.3709 150.925C92.7142 151.561 91.9946 151.943 92.0954 152.853Z" fill="#2F2E41"/>
<path d="M95.887 19.7638C95.887 25.3525 91.3631 29.883 85.7826 29.883C80.2021 29.883 75.6782 25.3525 75.6782 19.7638C75.6782 14.1751 80.2021 9.64453 85.7826 9.64453C91.3631 9.64453 95.887 14.1751 95.887 19.7638Z" fill="#A0616A"/>
<path d="M94.9354 78.1093C94.9354 78.1093 57.7323 76.0003 55.6265 80.2182C53.5207 84.4361 67.0109 142.373 67.0109 142.373L79.0465 139.846L73.1751 99.1986C73.1751 99.1986 104.22 107.433 108.432 97.5909C112.644 87.7492 111.431 84.0846 111.431 84.0846L94.9354 78.1093Z" fill="#2F2E41"/>
<path d="M104.467 71.0293C104.467 71.0293 68.0322 78.8515 67.1155 83.477C66.1988 88.1025 94.5122 140.401 94.5122 140.401L105.452 134.777L89.0526 97.1322C89.0526 97.1322 121.167 96.8483 122.629 86.2414C124.091 75.6345 121.953 72.4216 121.953 72.4216L104.467 71.0293Z" fill="#2F2E41"/>
<path d="M108.623 31.3613H91.1187L79.1415 51.0447C79.1415 51.0447 76.3337 63.7648 79.1415 65.1375C81.9492 66.5103 81.9492 81.2728 81.9492 81.2728L111.431 84.0848C111.431 84.0848 115.643 39.7971 114.239 35.5792C112.835 31.3613 108.623 31.3613 108.623 31.3613Z" fill="#3E94E7"/>
<path d="M80.8964 44.3662L79.1415 65.1373L59.4032 56.7478L54.6924 54.3751C53.7697 53.1702 52.5723 52.2041 51.2004 51.5576C47.7887 49.8925 44.1667 50.3049 43.1089 52.4785C42.051 54.6521 43.9582 57.7636 47.3689 59.4277C48.7231 60.1117 50.2212 60.4609 51.7378 60.4461L65.5214 68.2863L65.5376 68.2556L65.5987 68.3649L87.2139 77.4062L92.1873 50.1386L80.8964 44.3662Z" fill="#A0616A"/>
<path d="M78.7899 21.1675C78.7899 21.1675 68.2608 22.5734 72.4725 13.4347C72.4725 13.4347 71.8303 8.48064 74.9591 8.14576C78.088 7.81087 82.2997 2.18705 82.2997 2.18705C82.2997 2.18705 91.9556 -2.73381 96.9549 2.18705C101.954 7.1079 116.695 35.93 116.695 35.93L106.868 46.4747C106.868 46.4747 100.96 30.9206 94.0865 32.7223C87.2133 34.5241 80.8958 39.8961 80.8958 39.8961C80.8958 39.8961 73.9205 36.4002 77.0572 33.3532C80.1938 30.3062 78.7899 21.1675 78.7899 21.1675Z" fill="#2F2E41"/>
<path d="M92.8292 36.6333C92.8292 36.6333 87.9156 30.3065 84.4059 35.2274C80.8961 40.1482 78.0884 46.475 78.0884 46.475L92.1273 51.3959L92.8292 36.6333Z" fill="#3E94E7"/>
<path d="M146.133 153.701L129.822 101.782L129.824 101.781H129.862L129.796 101.696L129.795 101.695L128.633 97.9965L128.633 97.9961C130.403 96.4688 131.608 94.2863 131.848 91.7737L124.393 50.7066C124.906 45.3139 120.778 40.6001 115.369 40.4068L98.5468 40.3644C93.7646 40.1947 89.6225 43.6546 88.9259 48.3968L88.554 50.914L83.3999 86.0276C83.2116 87.2909 83.287 88.5354 83.5835 89.6997L79.8744 90.1852L78.7495 90.336L74.3014 90.9158L74.2873 90.9206L73.7319 90.9913H73.1294V106.076H73.1671V154.289C73.1671 154.6 73.4212 154.855 73.7319 154.855C74.0472 154.855 74.3014 154.6 74.3014 154.289V106.076H80.9006L87.4855 154.232C87.5279 154.515 87.7679 154.723 88.0504 154.723C88.0739 154.723 88.1021 154.723 88.1257 154.718C88.4363 154.676 88.6528 154.388 88.6105 154.077L82.0491 106.076H113.713C116.856 106.076 119.77 105.076 122.142 103.366L134.696 154.144C134.761 154.401 134.992 154.572 135.245 154.572C135.291 154.572 135.338 154.566 135.385 154.554C135.689 154.477 135.872 154.168 135.795 153.864L123.119 102.595C123.288 102.454 123.457 102.304 123.616 102.149L128.656 101.852L145.051 154.042C145.127 154.284 145.351 154.439 145.592 154.439C145.648 154.439 145.705 154.43 145.762 154.413C146.061 154.318 146.227 154 146.133 153.701ZM127.556 98.8022C127.598 98.7786 127.636 98.7503 127.673 98.7267L127.795 99.112L127.556 98.8022Z" fill="#E6E6E6"/>
</svg>
