<svg width="265" height="190" viewBox="0 0 265 190" fill="none" xmlns="http://www.w3.org/2000/svg">
<g clip-path="url(#clip0_180_2501)">
<path d="M218.159 98.2258H17.8688C15.1841 98.2258 13 96.0384 13 93.3495V24.876C13 22.1874 15.1841 20 17.8688 20H218.159C220.843 20 223.027 22.1874 223.027 24.876V93.3495C223.027 96.0384 220.843 98.2258 218.159 98.2258ZM17.8688 20.5813C15.5043 20.5813 13.5805 22.508 13.5805 24.876V93.3495C13.5805 95.7177 15.5043 97.6444 17.8688 97.6444H218.159C220.523 97.6444 222.447 95.7177 222.447 93.3495V24.876C222.447 22.508 220.523 20.5813 218.159 20.5813H17.8688Z" fill="#3F3D56"/>
<path d="M142.407 90.6309H132.034C131.212 90.6309 130.545 91.2984 130.545 92.1219V96.4064C130.545 97.2299 131.212 97.8974 132.034 97.8974H142.407C143.229 97.8974 143.896 97.2299 143.896 96.4064V92.1219C143.896 91.2984 143.229 90.6309 142.407 90.6309Z" fill="#3F3D56"/>
<path d="M164.175 94.915H153.802C152.98 94.915 152.313 95.5826 152.313 96.4061V96.4061C152.313 97.2296 152.98 97.8972 153.802 97.8972H164.175C164.997 97.8972 165.664 97.2296 165.664 96.4061V96.4061C165.664 95.5826 164.997 94.915 164.175 94.915Z" fill="#3E94E7"/>
<path d="M55.4185 122.268C55.6981 122.049 55.9316 121.776 56.1056 121.466C56.2796 121.156 56.3905 120.814 56.4319 120.46C56.4734 120.106 56.4445 119.748 56.3471 119.406C56.2496 119.063 56.0855 118.744 55.8642 118.466C55.7714 118.349 55.6695 118.24 55.5593 118.14L54.7605 82.834L48.9951 83.8676L51.5992 118.431C51.2237 118.908 51.02 119.499 51.0211 120.107C51.0221 120.715 51.228 121.305 51.6052 121.781C52.0492 122.35 52.6985 122.72 53.4124 122.811C54.1263 122.902 54.8471 122.707 55.4185 122.268Z" fill="#FFB7B7"/>
<path d="M53.8266 76.3186C53.7568 76.3016 53.6864 76.2865 53.6151 76.2729C53.0525 76.167 52.474 76.1801 51.9168 76.3115C51.3595 76.4429 50.8357 76.6896 50.3789 77.036C49.9221 77.3823 49.5423 77.8206 49.2639 78.3227C48.9855 78.8249 48.8146 79.3799 48.7621 79.9522L48.6016 81.7023L49.2314 100.588L55.3666 100.554L56.6649 84.764L56.9585 80.6241C57.0277 79.6505 56.7511 78.6837 56.1778 77.8955C55.6044 77.1072 54.7713 76.5485 53.8266 76.3186Z" fill="#CBCBCB"/>
<path d="M78.4996 186.387L81.8993 186.387L83.5162 173.222H78.499L78.4996 186.387Z" fill="#FFB7B7"/>
<path d="M77.6323 185.272L84.327 185.271C85.4585 185.272 86.5439 185.723 87.3439 186.526C88.144 187.329 88.5935 188.419 88.5936 189.555V189.694L77.6325 189.695L77.6323 185.272Z" fill="#2F2E41"/>
<path d="M25.9927 182.392L29.0694 183.843L36.1079 172.617L31.5666 170.476L25.9927 182.392Z" fill="#FFB7B7"/>
<path d="M25.6797 181.013L31.7394 183.87C32.7635 184.353 33.5548 185.225 33.9388 186.294C34.3228 187.362 34.2684 188.54 33.7874 189.569L33.7284 189.695L23.8071 185.016L25.6797 181.013Z" fill="#2F2E41"/>
<path d="M61.8904 69.4897C63.9943 65.6253 62.5798 60.7801 58.731 58.6677C54.8822 56.5552 50.0565 57.9754 47.9526 61.8398C45.8487 65.7042 47.2631 70.5494 51.112 72.6619C54.9608 74.7743 59.7864 73.3541 61.8904 69.4897Z" fill="#FFB8B8"/>
<path d="M57.2167 77.2434L49.9936 75.1104L45.1499 87.3966L54.1575 106.082L54.3274 109.41C54.3274 109.41 47.9906 117.205 47.4443 128.607L45.0649 135.177L42.2607 141.405L25.3208 176.208L32.2903 180.622L63.0633 129.27L78.1818 182.344L84.5222 182.701L78.6106 115.597L72.07 102.355L69.175 95.7882C69.175 95.7882 72.4586 88.5952 66.1018 85.2247L57.2167 77.2434Z" fill="#2F2E41"/>
<path d="M63.3843 56.9102C61.4207 55.287 58.233 55.4414 56.0315 56.8772C54.7187 56.1121 53.1976 55.7863 51.6882 55.9469C50.1787 56.1075 48.7594 56.7462 47.6355 57.7706C45.4407 59.8607 44.8664 63.4686 46.0371 66.2772C46.527 67.7293 46.6548 69.2799 46.4091 70.7931C46.1634 72.3063 45.5518 73.736 44.6279 74.9567C46.7567 75.0814 48.8854 75.2061 51.0193 75.2422C51.5143 74.928 51.9715 74.5576 52.3821 74.1384C53.2308 75.0558 54.0856 75.5272 54.2559 75.4987C56.5375 75.2096 58.8458 75.2017 61.1293 75.4751C60.046 72.0167 58.9627 68.5582 57.6338 65.4963C59.8718 66.7099 62.9703 65.9427 64.3898 63.8235C65.8092 61.7042 65.348 58.5334 63.3843 56.9102Z" fill="#2F2E41"/>
<path d="M72.1491 122.481C72.3695 122.202 72.5327 121.882 72.6291 121.54C72.7255 121.197 72.7533 120.838 72.7107 120.485C72.6682 120.132 72.5563 119.79 72.3814 119.48C72.2065 119.171 71.9721 118.899 71.6918 118.681C71.5744 118.589 71.4498 118.508 71.3193 118.436L62.2742 84.3086L56.9126 86.6744L67.5383 119.654C67.2851 120.206 67.2255 120.829 67.369 121.42C67.5125 122.011 67.8507 122.535 68.3288 122.909C68.8935 123.357 69.6113 123.563 70.3265 123.483C71.0416 123.403 71.6965 123.043 72.1491 122.481Z" fill="#FFB7B7"/>
<path d="M59.8405 78.1953C59.7687 78.1953 59.6968 78.1972 59.6243 78.2009C59.0527 78.2307 58.4935 78.38 57.9826 78.6393C57.4718 78.8986 57.0205 79.2621 56.6576 79.7066C56.2947 80.151 56.0282 80.6667 55.8752 81.2205C55.7222 81.7743 55.686 82.3541 55.7691 82.9228L56.0229 84.6617L61.058 102.869L67.0132 101.387L64.5772 85.7338L63.8929 81.6406C63.7323 80.678 63.237 79.8036 62.4951 79.1729C61.7532 78.5421 60.8127 78.1958 59.8405 78.1953Z" fill="#CBCBCB"/>
<path d="M113.481 190H0.297071C0.218283 190 0.142721 189.968 0.0870098 189.913C0.0312982 189.857 0 189.781 0 189.702C0 189.622 0.0312982 189.547 0.0870098 189.491C0.142721 189.435 0.218283 189.403 0.297071 189.403H113.481C113.56 189.403 113.635 189.435 113.691 189.491C113.747 189.547 113.778 189.622 113.778 189.702C113.778 189.781 113.747 189.857 113.691 189.913C113.635 189.968 113.56 190 113.481 190Z" fill="#CBCBCB"/>
</g>
<defs>
<clipPath id="clip0_180_2501">
<rect width="265" height="190" fill="white"/>
</clipPath>
</defs>
</svg>
