<svg width="350" height="271" viewBox="0 0 350 271" fill="none" xmlns="http://www.w3.org/2000/svg">
<g clip-path="url(#clip0_183_1990)">
<rect x="18.543" y="28.5264" width="299.547" height="111.253" rx="5" fill="white"/>
<path d="M311.184 140.101H25.4879C21.6584 140.101 18.543 136.981 18.543 133.146V35.4811C18.543 31.6462 21.6584 28.5264 25.4879 28.5264H311.184C315.014 28.5264 318.129 31.6462 318.129 35.4811V133.146C318.129 136.981 315.014 140.101 311.184 140.101ZM25.4879 29.3555C22.1151 29.3555 19.371 32.1035 19.371 35.4811V133.146C19.371 136.524 22.1151 139.272 25.4879 139.272H311.184C314.557 139.272 317.301 136.524 317.301 133.146V35.4811C317.301 32.1035 314.557 29.3555 311.184 29.3555H25.4879Z" fill="#3F3D56"/>
<path d="M203.131 129.269H188.335C187.162 129.269 186.211 130.221 186.211 131.395V137.506C186.211 138.681 187.162 139.633 188.335 139.633H203.131C204.304 139.633 205.255 138.681 205.255 137.506V131.395C205.255 130.221 204.304 129.269 203.131 129.269Z" fill="#3F3D56"/>
<path d="M234.182 135.379H219.385C218.213 135.379 217.262 136.331 217.262 137.506V137.506C217.262 138.68 218.213 139.632 219.385 139.632H234.182C235.355 139.632 236.306 138.68 236.306 137.506C236.306 136.331 235.355 135.379 234.182 135.379Z" fill="#FF704A"/>
<path d="M79.0501 174.392C79.4489 174.08 79.7821 173.691 80.0302 173.249C80.2783 172.806 80.4365 172.318 80.4957 171.814C80.5548 171.31 80.5136 170.799 80.3746 170.31C80.2356 169.822 80.0015 169.366 79.6858 168.969C79.5535 168.803 79.4081 168.648 79.2509 168.506L78.1115 118.147L69.8877 119.622L73.6022 168.92C73.0666 169.601 72.776 170.443 72.7775 171.311C72.7791 172.178 73.0727 173.02 73.6108 173.699C74.244 174.51 75.1703 175.038 76.1886 175.167C77.2068 175.297 78.235 175.019 79.0501 174.392Z" fill="#FFB7B7"/>
<path d="M76.7792 108.854C76.6796 108.829 76.5793 108.808 76.4775 108.788C75.675 108.637 74.8499 108.656 74.0551 108.843C73.2602 109.031 72.513 109.383 71.8614 109.877C71.2098 110.371 70.6681 110.996 70.271 111.712C69.8738 112.428 69.63 113.22 69.5551 114.036L69.3262 116.532L70.2246 143.469L78.9759 143.421L80.8278 120.899L81.2466 114.995C81.3454 113.606 80.9509 112.227 80.133 111.103C79.3151 109.978 78.1268 109.182 76.7792 108.854Z" fill="#CBCBCB"/>
<path d="M111.973 265.846L116.822 265.846L119.128 247.068H111.972L111.973 265.846Z" fill="#FFB7B7"/>
<path d="M110.736 264.256L120.286 264.256C121.9 264.256 123.448 264.9 124.589 266.045C125.73 267.191 126.372 268.745 126.372 270.366V270.564L110.737 270.565L110.736 264.256Z" fill="#2F2E41"/>
<path d="M37.0762 260.148L41.4649 262.218L51.5047 246.207L45.0269 243.152L37.0762 260.148Z" fill="#FFB7B7"/>
<path d="M36.6301 258.182L45.2736 262.257C46.7344 262.946 47.8632 264.19 48.4109 265.714C48.9587 267.238 48.881 268.918 48.195 270.385L48.1109 270.565L33.959 263.892L36.6301 258.182Z" fill="#2F2E41"/>
<path d="M88.2818 99.1147C91.2829 93.6029 89.2653 86.6921 83.7753 83.679C78.2853 80.666 71.4019 82.6917 68.4008 88.2035C65.3997 93.7154 67.4173 100.626 72.9073 103.639C78.3973 106.652 85.2807 104.627 88.2818 99.1147Z" fill="#FFB8B8"/>
<path d="M81.6149 110.173L71.3118 107.131L64.4027 124.655L77.2513 151.306L77.4937 156.052C77.4937 156.052 68.4547 167.171 67.6754 183.434L64.2815 192.804L60.2814 201.688L36.1182 251.328L46.0596 257.624L89.9547 184.379L111.52 260.081L120.564 260.589L112.132 164.878L102.802 145.991L98.6725 136.624C98.6725 136.624 103.356 126.364 94.2888 121.557L81.6149 110.173Z" fill="#2F2E41"/>
<path d="M90.4126 81.1721C87.6117 78.8568 83.0647 79.0771 79.9244 81.125C78.0519 80.0338 75.8821 79.5691 73.729 79.7982C71.576 80.0273 69.5514 80.9382 67.9482 82.3992C64.8175 85.3804 63.9984 90.5264 65.6683 94.5323C66.3671 96.6035 66.5493 98.8152 66.1988 100.974C65.8484 103.132 64.976 105.171 63.6582 106.912C66.6948 107.09 69.7311 107.268 72.775 107.319C73.481 106.871 74.1332 106.343 74.7188 105.745C75.9295 107.053 77.1488 107.726 77.3917 107.685C80.6462 107.273 83.9387 107.262 87.196 107.652C85.6508 102.719 84.1056 97.7859 82.2099 93.4186C85.4023 95.1496 89.822 94.0553 91.8468 91.0326C93.8714 88.0099 93.2137 83.4874 90.4126 81.1721Z" fill="#2F2E41"/>
<path d="M102.914 174.696C103.229 174.298 103.461 173.842 103.599 173.353C103.736 172.864 103.776 172.353 103.715 171.849C103.655 171.345 103.495 170.858 103.246 170.416C102.996 169.974 102.662 169.586 102.262 169.275C102.094 169.145 101.917 169.029 101.731 168.927L88.8286 120.25L81.1807 123.624L96.3373 170.664C95.9762 171.452 95.8911 172.339 96.0958 173.182C96.3005 174.025 96.783 174.773 97.4649 175.306C98.2704 175.945 99.2943 176.239 100.314 176.125C101.335 176.011 102.269 175.497 102.914 174.696Z" fill="#FFB7B7"/>
<path d="M85.3569 111.531C85.2545 111.531 85.1519 111.534 85.0485 111.539C84.2331 111.582 83.4355 111.795 82.7068 112.165C81.9781 112.534 81.3343 113.053 80.8167 113.687C80.2991 114.321 79.919 115.056 79.7007 115.846C79.4825 116.636 79.4309 117.463 79.5493 118.274L79.9114 120.754L87.0936 146.724L95.5881 144.611L92.1133 122.284L91.1373 116.445C90.9082 115.072 90.2017 113.825 89.1434 112.926C88.0852 112.026 86.7436 111.532 85.3569 111.531Z" fill="#CBCBCB"/>
<path d="M161.871 271H0.423746C0.311362 271 0.20358 270.955 0.124112 270.876C0.0446442 270.796 0 270.688 0 270.575C0 270.462 0.0446442 270.354 0.124112 270.274C0.20358 270.194 0.311362 270.149 0.423746 270.149H161.871C161.983 270.149 162.091 270.194 162.171 270.274C162.25 270.354 162.295 270.462 162.295 270.575C162.295 270.688 162.25 270.796 162.171 270.876C162.091 270.955 161.983 271 161.871 271Z" fill="#CBCBCB"/>
</g>
<defs>
<clipPath id="clip0_183_1990">
<rect width="378" height="271" fill="white"/>
</clipPath>
</defs>
</svg>
