<svg width="227" height="173" viewBox="0 0 227 173" fill="none" xmlns="http://www.w3.org/2000/svg">
<g clip-path="url(#clip0_170_5774)">
<path d="M137.645 52.1322C137.928 52.1452 138.207 52.0709 138.446 51.9196C138.685 51.7682 138.872 51.5469 138.981 51.2858C139.09 51.0247 139.116 50.7364 139.056 50.4598C138.996 50.1833 138.852 49.9319 138.645 49.7398C138.61 49.6015 138.585 49.5022 138.55 49.3638C138.563 49.3337 138.575 49.3036 138.588 49.2736C139.857 46.2435 144.159 46.2644 145.418 49.299C146.535 51.9923 147.957 54.6902 148.308 57.538C148.462 58.7967 148.397 60.0727 148.115 61.3092C150.739 55.5798 152.102 49.3526 152.11 43.0499C152.111 41.4683 152.023 39.8879 151.848 38.3161C151.702 37.0275 151.501 35.7481 151.243 34.478C149.837 27.586 146.817 21.1263 142.433 15.6293C140.311 14.4702 138.594 12.6878 137.515 10.5223C137.125 9.74389 136.848 8.91292 136.695 8.05525C136.935 8.08668 137.598 4.43712 137.417 4.21321C137.751 3.70645 138.348 3.45455 138.712 2.96006C140.524 0.500757 143.021 0.930167 144.324 4.27216C147.109 5.67878 147.135 8.01156 145.427 10.2552C144.34 11.6826 144.191 13.614 143.237 15.1421C143.335 15.2678 143.437 15.3896 143.536 15.5154C145.329 17.8239 146.892 20.3028 148.203 22.9166C147.832 20.0177 148.379 16.5252 149.312 14.274C150.375 11.7089 152.366 9.54859 154.119 7.33108C156.225 4.66752 160.543 5.82995 160.914 9.20644C160.918 9.23913 160.921 9.27181 160.925 9.30448C160.664 9.45154 160.409 9.60764 160.16 9.77277C159.847 9.98233 159.604 10.2818 159.463 10.6318C159.323 10.9818 159.292 11.3662 159.373 11.7345C159.455 12.1028 159.645 12.4378 159.92 12.6958C160.195 12.9537 160.542 13.1224 160.914 13.1799L160.952 13.1858C160.859 14.1253 160.695 15.0564 160.462 15.9711C162.711 24.6783 157.855 27.8496 150.921 27.9921C150.768 28.0707 150.619 28.1492 150.466 28.2239C151.783 31.9587 152.608 35.8491 152.923 39.7971C153.101 42.1263 153.09 44.4661 152.891 46.7936L152.903 46.7111C153.406 44.123 154.785 41.7877 156.808 40.0996C159.813 37.6286 164.059 36.7186 167.3 34.7324C168.861 33.7763 170.861 35.0119 170.588 36.8229C170.584 36.8518 170.58 36.8808 170.575 36.9097C170.092 37.1067 169.621 37.3337 169.166 37.5893C168.906 37.7364 168.651 37.8925 168.401 38.0576C168.088 38.2671 167.845 38.5665 167.705 38.9166C167.564 39.2667 167.533 39.651 167.614 40.0193C167.696 40.3876 167.887 40.7226 168.162 40.9806C168.437 41.2385 168.783 41.4072 169.155 41.4647L169.194 41.4706C169.221 41.4745 169.245 41.4785 169.272 41.4824C168.446 43.456 167.287 45.2726 165.846 46.8526C164.44 54.4536 158.399 55.1748 151.938 52.9613H151.934C151.225 56.0451 150.198 59.0469 148.869 61.9181H137.92C137.88 61.7964 137.845 61.6706 137.81 61.5489C138.823 61.6126 139.841 61.552 140.839 61.3682C140.027 60.3703 139.215 59.3646 138.402 58.3668C138.384 58.3482 138.367 58.3285 138.351 58.3079C137.939 57.7972 137.523 57.2904 137.111 56.7798L137.111 56.7791C137.089 55.2137 137.268 53.6519 137.645 52.1324L137.645 52.1322Z" fill="#F2F2F2"/>
<path d="M172.8 24.0821C170.764 16.6519 187.184 10.2804 191.496 16.2639C192.096 15.4133 194.312 14.8966 195.329 15.1575C196.345 15.4185 197.2 16.0708 198.034 16.7024C199.181 17.5844 200.37 18.4977 201.074 19.7659C201.783 21.029 201.893 22.7513 200.939 23.8473C200.183 24.7188 197.951 25.2825 196.814 25.5121C196.022 25.6739 195.355 25.8044 194.781 25.8983C194.26 25.147 194.02 24.2361 194.103 23.3253C193.717 23.586 193.394 23.929 193.156 24.3296C192.918 24.7302 192.771 25.1786 192.727 25.6426C192.711 25.8357 199.135 49.4937 199.135 49.4937C198.363 49.9334 197.551 50.2986 196.71 50.5845C195.047 48.0397 193.773 45.2602 192.93 42.3384C192.737 44.2922 192.761 46.2615 193.003 48.2098C193.132 49.3023 193.316 50.3876 193.556 51.4613C185.923 53.1105 174.442 52.5677 169.447 45.5533C169.447 45.5243 169.446 45.4953 169.445 45.4662C169.441 45.1893 169.341 44.9224 169.162 44.7112C168.983 44.5 168.737 44.3576 168.464 44.3084C168.192 44.2592 167.911 44.3063 167.67 44.4416C167.429 44.5769 167.242 44.7919 167.141 45.05C167.02 45.3594 166.909 45.6273 166.809 45.8404C165.355 40.6317 167.237 34.6037 172.8 24.0821Z" fill="#2F2E41"/>
<path d="M159.811 148.651V148.895C159.801 148.814 159.801 148.732 159.811 148.651Z" fill="#2F2E41"/>
<path d="M167.286 106.601C167.48 106.549 167.678 106.51 167.877 106.486C167.648 106.524 167.451 106.562 167.286 106.601Z" fill="#2F2E41"/>
<path d="M167.113 106.646C167.165 106.631 167.224 106.616 167.286 106.602C167.228 106.617 167.172 106.628 167.113 106.646Z" fill="#2F2E41"/>
<path d="M222.338 172.999H194.36C193.961 172.68 193.683 172.233 193.574 171.734C193.465 171.235 193.531 170.713 193.761 170.256C194.525 168.501 193.027 166.898 193.027 166.898C192.519 166.302 192.165 165.589 191.998 164.823C191.831 164.057 191.855 163.262 192.068 162.508C192.81 159.916 189.905 152.601 189.905 152.601C189.905 152.601 188.339 162.047 186.42 172.999H159.811C159.365 172.239 159.13 171.374 159.13 170.492C159.13 169.611 159.365 168.745 159.811 167.985C161.362 165.353 159.811 164.849 159.811 164.849C159.811 164.849 158.26 161.904 159.811 159.765C161.362 157.627 159.811 148.895 159.811 148.895C159.869 149.281 160.311 148.579 160.991 147.107C162.027 144.868 163.609 140.841 165.208 136.166C166.351 132.83 167.503 129.159 168.466 125.57H168.469C168.721 124.627 168.96 123.692 169.186 122.767C169.628 120.951 170.007 119.187 170.294 117.53C170.918 113.962 171.124 110.897 170.645 108.904C170.247 107.245 169.378 106.33 167.877 106.487C168.681 106.353 169.859 106.227 171.311 106.108C171.573 106.087 171.844 106.066 172.124 106.042C182.951 105.223 206.18 104.753 206.18 104.753L213.295 117.507L222.305 133.663C222.305 133.663 222.06 155.336 222.338 172.999Z" fill="#2F2E41"/>
<path d="M192.475 49.6282L176.083 46.1475L172.828 52.7055L161.868 59.0575C161.868 59.0575 168.933 87.9742 168.892 92.0411C168.79 102.367 152.286 125.513 164.752 123.732C177.218 121.952 179.751 114.493 183.753 115.672C187.362 116.736 191.769 121.468 194.719 118.084C197.67 114.7 198.709 118.607 200.575 118.742C201.461 118.807 200.927 114.469 203.158 118.877C205.389 123.285 217.218 117.352 213.209 113.338C206.532 106.654 205.175 57.3816 205.175 57.3816L197.741 55.0921L192.475 49.6282Z" fill="#E6E6E6"/>
<path d="M161.558 154.641C162.216 153.855 162.543 152.843 162.467 151.819C162.391 150.796 161.92 149.843 161.153 149.162C160.994 149.026 160.825 148.904 160.647 148.796L163.388 135.331L157.052 131.535L155.289 150.387C154.9 151.161 154.777 152.043 154.94 152.895C155.104 153.747 155.545 154.521 156.194 155.096C156.566 155.419 156.999 155.666 157.467 155.822C157.934 155.979 158.428 156.041 158.92 156.006C159.412 155.971 159.892 155.84 160.334 155.619C160.775 155.398 161.168 155.093 161.491 154.72C161.514 154.694 161.536 154.668 161.558 154.641Z" fill="#A0616A"/>
<path d="M181.231 83.6672C181.191 83.2344 180.639 83.0378 179.875 82.7664C179.107 82.5297 178.378 82.1838 177.708 81.7393C176.016 80.5156 176.682 79.2357 177.603 77.4669C177.783 77.1229 177.97 76.7649 178.145 76.3929C178.667 75.2909 177.837 70.7447 175.675 62.8785C175.009 60.4568 175.011 58.7465 174.55 57.6117C174.092 56.4769 173.174 55.9177 170.67 55.8007C167.645 55.6478 164.682 56.7021 162.431 58.7324C162.37 58.7862 162.307 58.8447 162.246 58.9009C162.132 59.0085 162.02 59.1185 161.91 59.2308C159.829 61.3267 158.638 64.147 158.586 67.1017L158.574 67.6048L158.058 91.6388L156.606 112.729L154.606 141.782L156.087 141.855L162.001 142.149L162.719 142.185L164.42 135.039L166.468 126.44L167.22 123.282L169.555 113.483L170.645 108.904L171.311 106.108L171.582 104.966L172.905 99.4161C172.935 99.2991 175.979 87.2798 179.487 85.27C180.796 84.5212 181.268 84.086 181.231 83.6672Z" fill="#E6E6E6"/>
<path d="M220.595 154.498C219.856 153.787 219.423 152.815 219.388 151.79C219.354 150.765 219.72 149.766 220.41 149.007C220.553 148.855 220.708 148.715 220.873 148.588L216.704 135.496L222.596 131.041L226.371 149.594C226.841 150.322 227.058 151.186 226.987 152.051C226.915 152.915 226.56 153.732 225.977 154.373C225.641 154.735 225.238 155.027 224.789 155.232C224.341 155.438 223.856 155.553 223.364 155.571C222.871 155.589 222.379 155.51 221.917 155.338C221.455 155.166 221.031 154.905 220.67 154.569C220.644 154.546 220.62 154.522 220.595 154.498Z" fill="#A0616A"/>
<path d="M223.477 126.089C223.477 126.089 218.882 109.904 220.283 108.152C221.685 106.4 217.546 106.057 219.329 102.794C221.113 99.5311 218.651 98.9854 218.651 98.9854L217.315 91.4828L214.927 73.0545L214.854 72.5064L214.16 67.1451C213.966 65.6137 213.465 64.1373 212.688 62.804C211.911 61.4707 210.873 60.308 209.637 59.3854C209.574 59.337 209.51 59.2905 209.445 59.244C209.151 59.0321 208.851 58.8358 208.544 58.6551C206.251 57.3012 203.559 56.7893 200.93 57.2074C195.977 57.9797 197.519 59.8287 196.715 64.7822C195.41 72.8365 195.071 77.4445 195.707 78.4856C195.922 78.8362 196.147 79.1716 196.362 79.4936C197.468 81.1555 198.268 82.3544 196.715 83.7557C196.097 84.2678 195.409 84.6892 194.672 85.0074C193.942 85.361 193.414 85.6147 193.421 86.0493C193.43 86.4704 193.945 86.8507 195.326 87.4537C196.999 88.1867 198.796 90.9579 200.268 93.7889C201.436 96.0708 202.478 98.4152 203.388 100.812L216.04 136.43L218.104 142.239L218.815 142.126L224.661 141.198L226.127 140.966L223.477 126.089Z" fill="#E6E6E6"/>
<path d="M185.559 45.9012C192.945 45.9012 198.933 39.9076 198.933 32.5141C198.933 25.1206 192.945 19.127 185.559 19.127C178.173 19.127 172.186 25.1206 172.186 32.5141C172.186 39.9076 178.173 45.9012 185.559 45.9012Z" fill="#A0616A"/>
<path d="M165.501 25.1261C163.465 17.6959 179.885 11.3244 184.197 17.3079C184.797 16.4572 187.013 15.9405 188.029 16.2015C189.046 16.4624 189.901 17.1148 190.735 17.7463C191.882 18.6283 193.071 19.5417 193.775 20.8099C194.484 22.0729 194.593 23.7952 193.639 24.8912C192.883 25.7628 190.652 26.3264 189.515 26.5561C188.723 26.7179 188.055 26.8483 187.482 26.9423C186.961 26.191 186.721 25.28 186.804 24.3693C186.418 24.6299 186.094 24.9729 185.856 25.3735C185.618 25.7742 185.472 26.2226 185.428 26.6866C185.412 26.8797 191.835 50.5377 191.835 50.5377C191.063 50.9773 190.252 51.3426 189.411 51.6284C187.747 49.0836 186.473 46.3042 185.631 43.3823C185.437 45.3361 185.462 47.3054 185.704 49.2538C185.833 50.3463 186.017 51.4315 186.257 52.5052C178.624 54.1545 167.143 53.6117 162.148 46.5973C162.147 46.5683 162.146 46.5392 162.146 46.5101C162.142 46.2333 162.042 45.9664 161.863 45.7552C161.684 45.5439 161.437 45.4015 161.165 45.3523C160.893 45.3032 160.612 45.3502 160.371 45.4855C160.129 45.6208 159.943 45.8359 159.842 46.0939C159.721 46.4034 159.609 46.6713 159.51 46.8843C158.055 41.6757 159.937 35.6477 165.501 25.1261Z" fill="#2F2E41"/>
<path d="M99.176 71.3841C98.8936 71.3971 98.614 71.3229 98.3751 71.1715C98.1362 71.0201 97.9496 70.7989 97.8405 70.5378C97.7315 70.2767 97.7052 69.9883 97.7654 69.7118C97.8255 69.4352 97.9691 69.1839 98.1767 68.9918C98.2114 68.8534 98.2364 68.7541 98.2712 68.6158C98.2587 68.5856 98.2462 68.5556 98.2336 68.5255C96.9642 65.4955 92.6619 65.5164 91.4033 68.5509C90.2861 71.2442 88.8638 73.9422 88.5136 76.7899C88.3594 78.0487 88.4244 79.3247 88.7059 80.5612C86.0821 74.8317 84.7196 68.6046 84.7108 62.3018C84.7102 60.7202 84.798 59.1398 84.9737 57.568C85.1189 56.2795 85.3204 55.0001 85.5781 53.7299C86.9845 46.838 90.0039 40.3782 94.3885 34.8813C96.5106 33.7222 98.2268 31.9398 99.3058 29.7743C99.6967 28.9958 99.973 28.1649 100.126 27.3072C99.8867 27.3386 99.2234 23.6891 99.404 23.4652C99.0704 22.9584 98.4733 22.7065 98.1089 22.212C96.2968 19.7527 93.8002 20.1821 92.4969 23.5241C89.7127 24.9307 89.6858 27.2635 91.3941 29.5071C92.481 30.9345 92.6303 32.8659 93.584 34.3941C93.4859 34.5198 93.3838 34.6416 93.2857 34.7673C91.4922 37.0759 89.9291 39.5548 88.6187 42.1686C88.9894 39.2696 88.4421 35.7772 87.5089 33.5259C86.4467 30.9609 84.4558 28.8005 82.7025 26.583C80.5965 23.9195 76.278 25.0819 75.907 28.4584C75.9034 28.4911 75.8999 28.5238 75.8965 28.5564C76.1569 28.7035 76.4118 28.8596 76.6612 29.0247C76.9746 29.2343 77.2174 29.5337 77.3578 29.8838C77.4982 30.2338 77.5298 30.6182 77.4482 30.9864C77.3667 31.3547 77.176 31.6898 76.901 31.9477C76.626 32.2056 76.2796 32.3744 75.9072 32.4318L75.869 32.4377C75.9618 33.3773 76.1258 34.3084 76.3596 35.223C74.1103 43.9302 78.9663 47.1016 85.8999 47.2441C86.0529 47.3226 86.2021 47.4012 86.3552 47.4758C85.0386 51.2107 84.2128 55.101 83.8985 59.049C83.7205 61.3782 83.731 63.7181 83.9298 66.0456L83.9181 65.9631C83.4157 63.3749 82.0364 61.0396 80.0132 59.3515C77.0082 56.8805 72.7627 55.9706 69.5209 53.9844C67.9604 53.0283 65.9606 54.2638 66.233 56.0749C66.2373 56.1038 66.2418 56.1327 66.2462 56.1616C66.7295 56.3587 67.2 56.5856 67.6551 56.8412C67.9155 56.9883 68.1705 57.1444 68.4199 57.3095C68.7332 57.5191 68.976 57.8185 69.1164 58.1686C69.2569 58.5186 69.2884 58.903 69.2069 59.2712C69.1254 59.6395 68.9346 59.9746 68.6596 60.2325C68.3846 60.4904 68.0382 60.6592 67.6658 60.7167L67.6276 60.7225C67.6002 60.7265 67.5766 60.7304 67.5492 60.7344C68.3749 62.7079 69.5338 64.5245 70.9752 66.1045C72.3816 73.7056 78.422 74.4268 84.8835 72.2132H84.8874C85.5964 75.2971 86.6235 78.2988 87.9524 81.1701H98.9016C98.9409 81.0483 98.9762 80.9226 99.0115 80.8008C97.998 80.8646 96.9806 80.8039 95.9818 80.6201C96.7942 79.6223 97.6065 78.6166 98.4189 77.6188C98.437 77.6001 98.4541 77.5804 98.4699 77.5598C98.882 77.0492 99.298 76.5424 99.7101 76.0317L99.7103 76.0311C99.7322 74.4656 99.5528 72.9039 99.1763 71.3843L99.176 71.3841Z" fill="#F2F2F2"/>
<path d="M48.0862 16.2646C47.8376 16.8444 40.1752 16.7822 39.8243 17.2984C37.1185 21.2837 46.8723 38.2399 44.1665 42.2303L43.7896 42.68C44.6723 42.2727 45.5202 41.7939 46.3249 41.2482C46.3972 39.6148 46.4695 37.9762 46.547 36.3429C47.3574 37.3807 48.0115 38.5318 48.4885 39.7595C49.1185 39.315 49.6352 38.491 52.3354 36.8701C53.4286 35.6681 54.6888 34.6296 56.0773 33.7868L48.0862 16.2646Z" fill="#2F2E41"/>
<path d="M53.6502 48.9253C52.8046 48.3739 51.8399 48.0323 50.836 47.9289C49.8322 47.8255 48.8182 47.9632 47.8781 48.3306C46.9381 48.698 46.0991 49.2845 45.4309 50.0414C44.7626 50.7984 44.2843 51.704 44.0357 52.683L32.3916 83.0537L12.3766 71.6791C12.2887 70.3717 11.7895 69.1257 10.9504 68.1199C10.1114 67.1141 8.97571 66.4001 7.70624 66.0803C6.43676 65.7605 5.09872 65.8514 3.88404 66.3399C2.66935 66.8284 1.64042 67.6894 0.944809 68.7995C0.249202 69.9096 -0.0773406 71.2116 0.012016 72.519C0.101372 73.8263 0.602039 75.0717 1.4422 76.0766C2.28237 77.0815 3.41887 77.7942 4.6887 78.1125C5.95854 78.4309 7.29647 78.3385 8.51061 77.8486C12.7256 82.3518 30.999 100.815 38.5641 93.6008C44.9229 87.5372 54.0995 64.0367 56.3084 55.9215C56.6623 54.6238 56.5955 53.2472 56.1178 51.9899C55.6401 50.7326 54.7761 49.6596 53.6502 48.9253Z" fill="#FFB6B6"/>
<path d="M31.7856 94.874L35.4602 111.499L62.3296 113.932L64.799 99.4561L31.7856 94.874Z" fill="#FFB6B6"/>
<path d="M72.8292 137.507C72.817 137.746 72.8022 137.981 72.7851 138.22C72.5273 141.665 72.2328 145.638 71.9137 149.991C71.4105 156.901 70.8484 164.768 70.2814 172.999H13.9226L24.8528 140.113C24.8528 140.113 29.2662 137.68 27.0193 133.594C24.7724 129.508 29.1935 132.764 29.2346 126.929C29.2757 121.093 33.2374 114.885 33.2374 114.885L33.8879 106.05L34.2585 106.057L63.5879 106.546L64.123 106.556L65.0238 114.141C70.4933 120.656 73.2837 129.009 72.8292 137.507Z" fill="#2F2E41"/>
<path d="M48.5558 40.8684L61.93 40.1787L68.1419 50.0043C68.1419 50.0043 79.8299 51.9604 79.0197 65.7472C78.2096 79.534 64.799 91.632 64.799 91.632L65.3722 89.6646L64.3766 92.5123L64.5043 94.1113L65.8625 95.8047L66.0023 97.556L64.799 100.327C64.9555 100.578 65.0385 100.868 65.0387 101.164C65.0389 101.46 64.9562 101.75 64.8001 102.001C64.6439 102.252 64.4205 102.455 64.1553 102.585C63.89 102.716 63.5935 102.77 63.2993 102.74L43.9746 100.802C43.5347 99.59 43.1816 98.1404 41.4181 100.554L39.5976 100.377L32.0302 99.6431L31.5847 98.0189C31.3316 97.096 31.2922 96.1275 31.4694 95.187C31.6466 94.2466 32.0358 93.359 32.6074 92.5918C31.95 90.5314 32.1222 88.2956 33.0872 86.3604L33.1234 86.2878L33.927 85.6172C33.927 85.6172 25.135 72.3951 35.228 62.4364L39.2788 55.543L43.8113 50.0075L48.5558 40.8684Z" fill="#3E94E7"/>
<path d="M51.8843 35.0684C58.8887 35.0684 64.5668 29.3845 64.5668 22.3731C64.5668 15.3616 58.8887 9.67773 51.8843 9.67773C44.88 9.67773 39.2019 15.3616 39.2019 22.3731C39.2019 29.3845 44.88 35.0684 51.8843 35.0684Z" fill="#FFB6B6"/>
<path d="M61.5168 40.6615C60.4841 39.7977 59.7652 38.6166 59.472 37.3017C59.2374 38.8982 59.2987 40.5242 59.6528 42.0984C58.966 42.6153 58.2999 43.1064 57.6699 43.5509C57.1929 42.3232 56.5388 41.1721 55.7284 40.1343C55.6509 41.7676 55.5786 43.4062 55.5063 45.0396C54.7017 45.5853 53.8537 46.0641 52.971 46.4713L53.3479 46.0217C56.0537 42.0312 49.0517 34.6862 51.7575 30.701C52.5166 29.5845 49.0879 20.7612 46.4751 20.3632C44.1514 20.0117 44.2495 20.6837 41.9982 21.1747C41.7644 20.1987 41.4014 19.2582 40.919 18.3783C41.0474 19.3588 41.0178 20.3535 40.8312 21.3246C40.0309 21.3556 39.4012 20.8451 38.5489 20.7147C33.1115 19.8825 33.664 13.9951 35.177 12.1291C36.6951 10.2683 41.7349 9.71008 44.0585 9.10529C44.2702 8.89856 44.7504 9.02778 44.9621 8.83135C49.4153 4.75178 55.3711 4.07617 60.7307 5.88433C66.4464 7.81259 70.01 11.5446 71.839 17.298L72.3636 21.9022C72.8342 23.3826 72.2422 30.2708 71.839 31.771C70.2718 37.6026 66.9342 34.6914 61.5168 40.6615Z" fill="#2F2E41"/>
<path d="M80.0089 100.809L79.5096 61.8834C79.4836 60.2343 78.8109 58.6616 77.6367 57.5046C76.4625 56.3477 74.8809 55.6992 73.2333 55.6992C72.381 55.6992 71.5375 55.873 70.7545 56.2099C69.9714 56.5469 69.2651 57.0399 68.6786 57.659C68.0921 58.2781 67.6377 59.0103 67.3431 59.8109C67.0485 60.6116 66.9198 61.4639 66.965 62.3159L68.722 102.734L68.7553 127.339C67.7198 127.778 66.8446 128.526 66.2486 129.481C65.6525 130.436 65.3646 131.551 65.4239 132.676C65.4832 133.8 65.8868 134.879 66.5799 135.766C67.273 136.652 68.2221 137.304 69.2981 137.632C70.374 137.96 71.5248 137.949 72.5941 137.599C73.6633 137.25 74.5991 136.579 75.2745 135.679C75.9498 134.778 76.3318 133.692 76.3686 132.566C76.4055 131.441 76.0954 130.332 75.4804 129.389L80.0089 100.809Z" fill="#FFB6B6"/>
<path d="M145.464 151.169C145.464 151.169 144.692 165.071 144.337 173H117.753C117.206 165.784 117.021 160.483 117.021 160.483L115.567 173H88.6952L87.0293 149.818L95.0799 129.842C95.0799 129.842 138.708 126.813 142.755 130.655C146.8 134.495 145.464 151.169 145.464 151.169Z" fill="#2F2E41"/>
<path d="M121.956 34.2213C129.976 34.2213 136.477 27.7134 136.477 19.6854C136.477 11.6574 129.976 5.14941 121.956 5.14941C113.936 5.14941 107.435 11.6574 107.435 19.6854C107.435 27.7134 113.936 34.2213 121.956 34.2213Z" fill="#FFB6B6"/>
<path d="M138.882 14.9627C137.39 15.6435 136.424 20.5742 135.251 19.4279C134.079 18.2816 134.157 16.7899 132.577 16.3669C131.301 16.0238 129.927 16.4159 128.763 17.0343C128.555 17.1434 128.353 17.2621 128.157 17.3801C128.027 17.2933 127.898 17.2117 127.76 17.1365C126.718 16.5786 125.503 16.4418 124.364 16.7541C125.264 17.0559 126.046 17.6333 126.601 18.4047C126.211 18.6661 125.817 18.9281 125.413 19.1603C122.04 21.1085 117.241 16.8722 113.691 15.2808C115.915 19.4577 114.82 21.1875 112.889 25.5074L112.823 25.7533C112.932 24.6707 109.586 23.8638 109.78 25.3879C109.917 26.47 110.853 28.8752 111.377 29.8306C107.645 25.5106 105.094 20.2241 105.632 14.7706C105.749 13.625 105.714 12.4162 106.304 11.4219C106.895 10.4327 108.127 9.73857 109.217 10.1158C109.125 8.3766 109.505 6.64488 110.317 5.10473C111.13 3.56457 112.344 2.27354 113.83 1.36889C115.317 0.464248 117.021 -0.0201978 118.761 -0.0329449C120.501 -0.045692 122.211 0.413739 123.711 1.2965C125.105 2.11509 126.268 3.27284 127.546 4.27149C128.823 5.27013 130.295 6.14061 131.915 6.22305C132.942 6.27266 134.061 6.02155 134.943 6.55426C135.966 7.17239 136.141 8.46656 136.294 9.71188C135.382 9.80188 134.518 10.162 133.811 10.7463C134.755 10.65 135.705 10.854 136.526 11.3292C136.542 11.3363 136.557 11.3448 136.571 11.3545C137.111 13.4126 137.056 13.8689 138.882 14.9627Z" fill="#2F2E41"/>
<path d="M88.7596 136.875C101.126 122.386 96.9488 103.957 92.0408 85.3533L92.9747 57.8704C93.0205 56.5223 93.3897 55.2049 94.0512 54.0297C94.7126 52.8545 95.6468 51.8558 96.7749 51.118L109.399 42.8623L114.313 35.751L127.857 37.1068L135.367 45.0577L143.681 51.4109C145.768 53.0061 147.357 55.1654 148.259 57.6343C149.16 60.1033 149.338 62.7789 148.771 65.3457L140.816 101.361C140.816 101.361 144.143 120.032 142.113 122.094C140.082 124.156 134.851 122.095 139 124.41C143.978 127.187 148.505 126.675 145.986 129.197C143.466 131.719 146.655 135.225 146.655 135.225L88.7596 136.875Z" fill="#3E94E7"/>
<path d="M94.0468 157.933L96.1084 143.231L87.8824 140.88L86.2553 156.502C85.5745 157.127 85.0813 157.929 84.8312 158.819C84.5811 159.709 84.584 160.651 84.8395 161.54C85.095 162.428 85.5931 163.228 86.2776 163.849C86.9622 164.469 87.8062 164.886 88.7146 165.053C89.6231 165.22 90.56 165.13 91.4201 164.793C92.2802 164.456 93.0294 163.886 93.5834 163.146C94.1374 162.406 94.4743 161.526 94.5561 160.605C94.638 159.685 94.4616 158.759 94.0468 157.933Z" fill="#FFB6B6"/>
<path d="M109.708 45.5127C109.708 45.5127 86.293 53.1411 85.7347 58.7228C85.1763 64.3045 85.3615 67.7214 82.8903 90.0567L83.0205 150.222C83.0205 150.222 98.7186 153.587 97.1087 149.989C95.4988 146.392 96.0605 144.7 96.0605 144.7C96.0605 144.7 99.4262 143.37 98.5837 139.147C97.7412 134.923 101.966 113.992 101.966 113.992L104.633 76.453L109.708 45.5127Z" fill="#3E94E7"/>
<path d="M138.579 157.154L137.481 142.348L145.843 140.541L146.447 156.236C147.085 156.904 147.525 157.737 147.717 158.642C147.908 159.546 147.844 160.486 147.531 161.356C147.218 162.226 146.668 162.991 145.945 163.566C145.221 164.14 144.352 164.501 143.434 164.608C142.517 164.715 141.588 164.564 140.752 164.172C139.915 163.779 139.205 163.161 138.701 162.387C138.196 161.612 137.917 160.712 137.896 159.788C137.874 158.863 138.111 157.951 138.579 157.154Z" fill="#FFB6B6"/>
<path d="M130.292 43.9492C130.292 43.9492 153.158 53.0934 153.351 58.6997C153.544 64.3059 153.136 67.7034 154.143 90.1527L150.085 150.181C150.085 150.181 134.201 152.511 136.042 149.027C137.883 145.543 137.433 143.817 137.433 143.817C137.433 143.817 134.162 142.27 135.278 138.111C136.395 133.951 133.545 112.788 133.545 112.788L133.336 75.1554L130.292 43.9492Z" fill="#3E94E7"/>
</g>
<defs>
<clipPath id="clip0_170_5774">
<rect width="227" height="173" fill="white"/>
</clipPath>
</defs>
</svg>
